<svg width="50" height="29" viewBox="0 0 200 29" fill="none" xmlns="http://www.w3.org/2000/svg">
<path fill-rule="evenodd" clip-rule="evenodd" d="M46.8659 1.25909C46.8655 1.44542 46.6778 1.53824 46.4279 1.44458C46.178 1.35092 45.8966 1.35035 45.8026 1.47438C45.6774 1.5673 45.2081 1.72164 44.7703 1.78287C44.3013 1.84405 43.738 2.12242 43.4874 2.40141C43.268 2.68046 43.1428 2.74233 43.2683 2.5252C43.3625 2.33906 43.3316 2.15265 43.144 2.15228C42.9877 2.15197 42.8 2.24478 42.7372 2.36887C42.6743 2.52402 42.2358 2.95788 41.7348 3.39164C41.2337 3.8254 40.9208 3.98008 41.0463 3.76295C41.3913 3.17361 40.8908 3.32788 40.0453 4.0715C39.6068 4.47433 39.3878 4.56704 39.5133 4.31885C39.7642 3.91565 39.733 3.91559 39.1695 4.31817C38.8564 4.56598 38.4805 4.90683 38.3551 5.09291C38.2297 5.24793 37.9793 5.43375 37.7917 5.43337C37.0725 5.52511 37.0411 5.58716 37.4782 5.86751C37.7904 6.08551 37.8215 6.17873 37.5713 6.20929C37.3524 6.23991 37.0398 6.27035 36.8521 6.30104C36.6958 6.30073 36.5705 6.42468 36.6329 6.51796C36.7572 6.8598 35.5357 8.03745 35.2547 7.85057C35.0986 7.75709 34.8794 7.91191 34.7538 8.2222C34.6594 8.5015 34.158 9.1216 33.6569 9.58641C33.187 10.0513 32.7794 10.6716 32.7788 10.9511C32.7782 11.2305 32.6527 11.4787 32.4651 11.4783C32.3088 11.5091 32.0273 11.5396 31.871 11.5703C31.7147 11.57 31.4643 11.7248 31.3076 11.8798C31.151 12.0658 31.2448 12.0659 31.4952 11.9112C31.8394 11.7255 31.9018 11.7878 31.7447 12.1912C31.619 12.5015 31.5247 12.7807 31.5245 12.8739C31.5243 12.936 31.3056 12.9045 31.0557 12.8109C30.7746 12.6861 30.4929 12.8408 30.3672 13.1821C30.2414 13.5235 29.8965 14.0507 29.5833 14.3607C29.3013 14.6706 29.113 15.0429 29.1753 15.1672C29.2688 15.2916 28.9245 15.4773 28.4554 15.5695C27.7986 15.7235 27.4551 15.5675 26.9249 14.9144C26.5195 14.4477 26.2079 13.9502 26.2082 13.7639C26.209 13.3913 24.6799 12.0529 24.2422 12.052C24.0547 12.0517 24.0236 11.9585 24.1176 11.8344C24.2428 11.7415 23.9936 11.3373 23.5567 10.9327C23.1199 10.5282 22.9019 10.124 23.0896 10.0312C23.2774 9.93846 23.403 9.65924 23.3721 9.47286C23.3727 9.19337 23.3101 9.19325 23.1845 9.47248C23.0902 9.75178 22.8713 9.78238 22.4966 9.56426C22.1843 9.40837 21.8406 9.34557 21.7778 9.43861C21.6839 9.53158 21.5281 9.25179 21.404 8.81678C21.2489 8.1954 20.9055 7.94629 19.8744 7.69581C19.1557 7.53911 18.1874 7.16454 17.7189 6.94623C16.9382 6.54098 16.8131 6.54075 16.5308 7.006C16.3426 7.34722 16.2175 7.37803 16.218 7.1296C16.2186 6.81906 15.8748 6.75624 14.7491 6.94033C12.8103 7.21597 11.9969 7.5249 11.1513 8.29958C10.7755 8.64042 10.2747 8.91892 10.0559 8.91848C9.83705 8.91805 9.64924 9.04189 9.64886 9.22821C9.64855 9.38348 9.42941 9.53832 9.14806 9.53776C8.7104 9.53689 8.71021 9.63005 9.02208 10.0033C9.2404 10.2522 9.30242 10.5007 9.14612 10.5004C7.70773 10.6839 6.80015 11.179 6.98684 11.6141C7.07994 11.9559 7.01729 12.0178 6.67367 11.8929C6.33005 11.768 6.07952 11.9849 5.89089 12.5125C5.70245 12.9469 5.3572 13.6294 5.07516 13.9704L4.5736 14.6526L4.79387 13.9388C5.01414 13.225 5.01419 13.194 4.41904 13.7828C4.07455 14.0927 3.94881 14.434 4.07367 14.5274C4.19853 14.6208 4.13531 14.9623 3.8846 15.2723C3.57117 15.6754 3.53916 16.048 3.72598 16.421C3.91292 16.7319 3.88111 17.0113 3.69329 17.1352C3.5368 17.228 3.3808 17.0725 3.38143 16.7619C3.3823 16.3272 3.31983 16.296 3.10032 16.6371C2.94357 16.8542 2.69324 16.9779 2.50592 16.8533C2.3498 16.7598 2.13053 16.9768 2.00467 17.3803C1.72114 18.4666 1.78347 18.5599 2.47191 18.2196C3.06649 17.9103 3.09775 17.9104 2.78402 18.4687C2.56438 18.872 2.22019 19.0266 1.87651 18.9327C1.50156 18.8388 1.31368 18.9937 1.28148 19.4594C1.2179 19.9872 1.34275 20.0806 1.87457 19.8954C2.31248 19.772 2.43739 19.8344 2.31191 20.0515C2.18649 20.2376 1.84231 20.3922 1.49844 20.3915C1.18583 20.3909 0.841508 20.6075 0.747162 20.8868C0.621492 21.1971 0.683831 21.2904 0.965494 21.1357C1.15331 21.0119 1.05915 21.198 0.745787 21.5701C0.401163 21.942 0.244048 22.3454 0.337582 22.4698C0.462439 22.5632 0.399356 22.8426 0.211289 23.0907C-0.0706248 23.3696 -0.0396136 23.4938 0.210476 23.4943C0.398044 23.4947 0.554664 23.3397 0.554977 23.1845C0.556352 22.5013 1.11818 22.9372 1.27286 23.7449C1.39653 24.4283 1.61492 24.6461 2.17768 24.6162C2.92801 24.5866 3.9612 23.8123 3.77444 23.4083C3.71217 23.2839 3.89992 23.1911 4.21254 23.1917C4.52515 23.1924 4.96337 22.9137 5.15162 22.5725C5.49656 22.0453 5.46536 22.0142 4.99613 22.1685C4.65201 22.2921 4.77749 22.0749 5.34138 21.486C5.81124 21.0211 6.18744 20.494 6.18769 20.3697C6.188 20.2145 6.40708 20.0907 6.65717 20.0912C6.90726 20.0917 7.1264 19.9369 7.12684 19.7195C7.12727 19.5021 7.47215 19.0059 7.87942 18.572C8.31801 18.107 8.69421 17.5798 8.75723 17.3315C8.91497 16.6176 9.91709 15.7501 10.5736 15.7514C10.9174 15.7521 11.199 15.6284 11.1993 15.5042C11.1996 15.349 11.544 15.0702 11.9821 14.8847C12.9834 14.4209 13.1709 14.4212 12.92 14.8244C12.7319 15.1035 13.3568 15.26 14.2636 15.1687C14.4512 15.138 14.6386 15.2316 14.6383 15.3558C14.638 15.5111 14.2314 15.6344 13.7 15.6023C13.1998 15.6013 12.7624 15.5073 12.7626 15.3831C12.7634 15.0105 11.8879 15.1019 11.637 15.5051C11.4802 15.7222 11.5427 15.7533 11.8243 15.5986C12.1373 15.4129 12.1997 15.5062 12.0737 15.9718C11.9477 16.4373 12.0412 16.5928 12.4164 16.5314C12.6978 16.5009 13.1038 16.7191 13.3219 17.0611C13.5401 17.3721 13.8837 17.5281 14.0715 17.4353C14.2905 17.3115 14.3217 17.3737 14.1962 17.5597C14.0708 17.7458 14.2577 18.0878 14.6324 18.3059C14.9758 18.524 15.2564 18.9282 15.2558 19.2388C15.2552 19.5182 15.5044 19.9535 15.8478 20.1716C16.16 20.3896 16.4407 20.7006 16.4716 20.887C16.4713 21.0423 16.7206 21.4465 17.0013 21.7576C17.2507 22.0997 17.4064 22.4105 17.3437 22.5036C17.2498 22.5655 17.5303 22.9697 17.9671 23.4054C18.4039 23.841 18.6529 24.3694 18.5899 24.6177C18.4957 24.8349 18.6202 25.1146 18.8701 25.2083C19.12 25.302 19.3069 25.6129 19.3064 25.8613C19.3058 26.1408 19.4619 26.2653 19.6184 26.1724C19.8062 26.0797 19.931 26.1731 19.9306 26.3905C19.93 26.67 20.0238 26.6701 20.2433 26.329C20.4941 25.9568 20.5565 26.0191 20.5554 26.578C20.5545 27.0438 20.7726 27.3859 21.1788 27.4798C21.5225 27.5737 21.7097 27.7603 21.6156 27.9154C21.4587 28.1946 22.271 28.4447 23.9275 28.6343C24.6464 28.6978 24.9279 28.6052 24.9286 28.2636C24.9293 27.922 24.6793 27.8594 23.835 27.982C22.3652 28.2275 22.4595 27.9792 23.9609 27.5785C24.649 27.3935 25.4938 27.0226 25.8696 26.7128C26.4958 26.2172 26.5273 26.124 26.0591 25.7505C25.6222 25.377 25.5596 25.4079 25.5585 25.9669C25.5578 26.3085 25.3383 26.6496 25.1193 26.7424C24.7751 26.8659 24.7128 26.7726 24.8073 26.4001C24.9646 25.9347 24.9333 25.9346 24.5573 26.3686C24.1499 26.8646 23.2121 26.8317 23.5257 26.3355C23.6198 26.1804 23.3386 26.1177 22.8696 26.1789C22.3693 26.209 22.1507 26.1154 22.2136 25.8981C22.3079 25.6809 22.0893 25.5252 21.7767 25.5246C21.0577 25.5232 21.0262 25.6473 21.7436 26.4562C22.149 26.9538 22.1489 27.016 21.7744 26.7047C21.4934 26.5178 21.181 26.424 21.0869 26.548C20.9617 26.6409 20.8683 26.4544 20.869 26.0818C20.8705 25.3365 21.4028 24.9028 22.2466 25.0597C22.6841 25.1227 22.7781 25.0297 22.6226 24.6257C22.4672 24.1906 22.5611 24.1287 23.0923 24.254C23.4672 24.3479 24.0925 24.3181 24.4992 24.1636C24.9685 23.9782 25.2498 23.9788 25.2495 24.1651C25.2491 24.3514 25.0613 24.4753 24.8112 24.4748C23.9359 24.473 24.06 24.9391 24.9665 24.9719C25.4354 25.0039 25.7795 24.8804 25.6859 24.756C25.5925 24.6006 25.6865 24.4765 25.8741 24.4769C26.0929 24.4773 26.3112 24.7572 26.4043 25.099C26.5903 25.8447 26.7778 25.8761 27.6232 25.2567C27.9988 25.009 28.3741 24.9166 28.499 25.01C28.5926 25.1034 28.6865 25.0415 28.6868 24.8551C28.6873 24.6378 28.8439 24.4828 29.0002 24.4831C29.1878 24.4835 29.1558 24.825 28.8734 25.3524C28.5596 25.9418 28.1527 26.2205 27.5586 26.2814C26.6831 26.3418 25.6815 26.9608 26.4318 26.9623C26.7444 26.9629 26.7441 27.1182 26.4617 27.6456C26.2106 28.1213 26.3043 28.1628 26.7428 27.7703C27.1185 27.4605 27.3382 27.0573 27.2446 26.9329C27.1512 26.7774 27.3077 26.6535 27.5891 26.6541C27.9017 26.6547 27.9952 26.7791 27.8384 27.0272C27.7129 27.2444 28.1513 26.9037 28.8091 26.2528C29.4981 25.6331 30.1556 25.1065 30.3119 25.1068C30.4682 25.1071 30.719 24.766 30.8762 24.3316C31.0334 23.8971 31.3466 23.5872 31.5654 23.6187C31.7841 23.6812 31.9719 23.5574 31.9722 23.4021C32.0987 22.6571 32.5377 22.0058 33.0066 22.0067C33.2567 22.0072 33.4132 21.9454 33.3196 21.8521C33.1636 21.6965 35.6698 19.0619 36.1391 18.8455C36.6397 18.6601 38.3002 16.8623 38.1755 16.6447C38.1133 16.5203 38.4264 16.2725 38.927 16.0872C39.3962 15.9328 40.3666 15.2516 41.0557 14.6008C42.7784 12.9583 43.5602 12.8357 44.6833 13.9559C45.1825 14.4537 45.5878 15.0135 45.5874 15.1998C45.587 15.3861 45.7119 15.4796 45.8684 15.3556C46.0249 15.2628 46.212 15.5116 46.2738 15.8844C46.3355 16.2882 46.5537 16.5992 46.7725 16.5996C46.9913 16.6 47.4282 17.0046 47.771 17.5332C48.4567 18.5594 48.5807 19.0875 48.0811 18.776C47.4879 18.4022 47.767 19.5207 48.3914 19.9567C48.7347 20.2058 48.9217 20.4856 48.7965 20.5786C48.5772 20.8265 50.2291 23.2831 50.6042 23.2838C50.7605 23.2841 50.8851 23.5018 50.8846 23.7812C50.8832 24.4644 52.037 25.8642 52.2879 25.4609C52.382 25.3059 52.6637 25.1512 52.8513 25.1515C53.1326 25.1521 53.1325 25.2142 52.8508 25.4C52.6004 25.5547 52.5999 25.7721 52.9429 26.2076C53.1923 26.5496 53.3797 26.6432 53.3801 26.4258C53.3806 26.2084 53.537 26.1466 53.6931 26.2401C53.8805 26.3647 53.9737 26.6444 53.9418 26.9238C53.784 27.6688 54.8147 28.1677 55.5658 27.7344C56.0667 27.3938 56.1291 27.425 55.972 27.8594C55.8463 28.1697 55.9086 28.2941 56.0964 28.1702C56.2842 28.0464 56.5966 28.1712 56.8149 28.4201C57.0955 28.7622 57.3143 28.7937 57.5961 28.5769C57.8153 28.391 58.1282 28.2674 58.2532 28.2987C58.4094 28.3301 58.7845 28.3308 59.0972 28.3004C59.6287 28.2704 59.6288 28.2083 59.192 27.8037C58.5056 27.1192 59.1642 26.0957 60.2582 26.1289C60.9773 26.1303 60.9772 26.1614 60.414 26.4087C59.8821 26.625 59.882 26.6871 60.3509 26.6881C60.6322 26.7197 60.976 26.7514 61.101 26.7827C61.1946 26.845 61.3201 26.6279 61.3832 26.3485C61.4151 26.0381 61.1656 25.7581 60.6656 25.6328C59.9469 25.4762 59.9158 25.414 60.3548 24.7317C60.8251 24.0494 60.7939 24.0183 60.0746 24.1722C59.4805 24.2641 59.3556 24.2018 59.5126 23.8294C59.7641 23.1157 61.0447 23.6772 61.0743 24.5157C61.1346 25.6338 61.416 25.5722 61.6372 24.4237C61.7634 23.8649 62.0773 23.1824 62.3904 22.9656C62.8601 22.5939 62.8913 22.594 62.5466 23.028C62.0765 23.6171 61.7593 25.8835 62.1662 25.6358C62.3227 25.5119 62.4483 25.2327 62.4488 24.9843C62.4493 24.7358 62.6687 24.4568 62.919 24.3641C63.1694 24.2404 63.3887 23.9924 63.3891 23.775C63.3896 23.5576 63.6714 23.3098 64.0155 23.2173C64.4221 23.125 64.7043 22.6907 64.8305 22.101C64.9567 21.5422 65.1137 21.1699 65.1761 21.2321C65.2385 21.3254 65.9586 20.7679 66.7729 20.0242C67.6498 19.2185 68.3071 18.8161 68.4318 19.0027C68.681 19.4379 68.9633 18.9727 68.871 18.2583C68.7781 17.7923 69.0912 17.5755 69.7474 17.7011C69.9036 17.7324 69.9352 17.6083 69.8417 17.4528C69.5924 17.0486 70.5003 16.3983 70.9374 16.6786C71.2184 16.8344 71.2499 16.7414 71.1255 16.3995C70.8767 15.7469 71.5028 15.3444 71.8768 15.9041C72.0949 16.2462 72.1575 16.2463 72.1581 15.9358C72.1585 15.7184 72.4717 15.4395 72.8784 15.285C73.8795 14.9144 76.2215 16.1923 76.2197 17.1239C76.2193 17.3102 76.3441 17.4036 76.4694 17.3107C76.5945 17.2488 76.7505 17.4355 76.7498 17.777C76.7804 18.0876 77.0295 18.585 77.2791 18.865C77.5599 19.114 77.778 19.4871 77.7777 19.6423C77.7767 20.1081 78.8375 21.1661 79.3377 21.1671C79.6503 21.1677 79.6814 21.2609 79.4622 21.4158C79.2118 21.5706 79.3987 21.9125 79.9916 22.4416C80.4908 22.9084 80.8967 23.1887 80.8969 23.0645C80.8971 22.9713 81.0532 23.0958 81.209 23.3446C81.4582 23.7488 81.5208 23.7179 81.5218 23.2521C81.5223 22.9726 81.7104 22.7245 81.9292 22.7249C82.1793 22.7254 82.1483 22.6011 81.8361 22.4142C81.4926 22.1961 81.4616 22.1029 81.7742 22.1035C82.0243 22.104 82.2738 22.384 82.3669 22.7258C82.46 23.0676 82.6782 23.3475 82.8346 23.3478C82.9909 23.3481 83.0224 23.1929 82.929 23.0375C82.8043 22.8509 83.0859 22.7272 83.5236 22.7281C83.9612 22.729 84.3674 22.854 84.367 23.0403C84.3979 23.1956 84.4285 23.5373 84.4594 23.7237C84.5211 24.1275 85.2714 24.098 85.5848 23.7259C85.6788 23.6019 85.9917 23.4783 86.3357 23.4169C86.6484 23.3554 87.2118 23.0149 87.5876 22.6741C87.9323 22.3021 88.0577 22.116 87.8699 22.2399C87.6508 22.3636 87.4633 22.3012 87.4637 22.1148C87.4642 21.8664 87.7457 21.8049 88.1831 21.9299C88.683 22.0552 89.0272 21.9006 89.3406 21.4975C89.5601 21.1874 89.9043 21.0018 90.0605 21.0952C90.2166 21.1887 90.7488 20.8171 91.2188 20.2901C91.72 19.7632 92.3148 19.3296 92.5649 19.3301C92.815 19.3306 93.2532 19.052 93.5665 18.711C93.8798 18.37 94.4431 18.0917 94.8182 18.0924C95.2246 18.0932 95.6002 17.8766 95.7258 17.6284C95.82 17.3802 96.0393 17.1632 96.2269 17.1636C96.4144 17.164 96.508 17.2884 96.4139 17.4124C96.3512 17.5365 96.6947 17.6924 97.1949 17.7245C97.7575 17.7567 98.1016 17.6331 98.102 17.4158C98.1338 17.1674 98.29 17.2298 98.5395 17.5408C98.7577 17.8518 99.0698 18.1009 99.1948 18.1011C99.5699 18.1018 102.504 20.3125 103.752 21.5261C105.655 23.3931 107.466 24.701 107.935 24.5156C108.185 24.4229 108.467 24.4856 108.56 24.6721C108.685 24.8276 108.903 24.8901 109.06 24.7973C109.216 24.6734 109.341 24.8289 109.341 25.0773C109.34 25.3258 109.465 25.6055 109.621 25.699C110.089 26.0105 110.903 25.5463 110.904 25.0184C110.905 24.6147 110.998 24.6459 111.373 25.1435C111.622 25.4545 111.841 25.5792 111.841 25.4239C111.841 25.2376 111.935 25.2688 112.091 25.4554C112.403 25.9219 115.155 25.2442 115.062 24.7471C115 24.5296 115.188 24.4368 115.532 24.5307C115.906 24.6556 115.844 24.5313 115.314 24.0644C114.502 23.3175 114.596 23.2556 115.721 23.7547C116.345 24.0665 116.658 24.005 117.472 23.4166C118.223 22.8901 118.38 22.642 118.037 22.455C117.818 22.2993 117.381 22.2674 117.099 22.36C116.786 22.4525 116.536 22.3899 116.537 22.2347C116.537 21.7689 117.257 21.615 117.819 21.9577C118.318 22.2693 120.289 21.6521 120.29 21.2173C120.29 21.0931 120.541 20.9384 120.853 20.8769C121.51 20.6918 121.669 19.6984 121.012 19.6971C120.793 19.6967 120.606 19.541 120.606 19.3547C120.607 19.1994 120.732 19.1065 120.888 19.2C121.044 19.2935 121.232 19.0765 121.327 18.7351C121.432 18.3212 121.296 18.2795 120.92 18.61C120.294 19.1678 119.823 20.4401 120.355 20.0995C120.574 20.0068 120.605 20.069 120.479 20.255C120.354 20.4722 119.885 20.5954 119.416 20.5945C118.885 20.5624 118.76 20.5001 119.135 20.4076C119.479 20.3152 119.667 19.9739 119.668 19.3529C119.669 18.856 119.764 18.4835 119.92 18.4838C120.514 18.5782 120.952 18.4238 120.796 18.175C120.672 18.0195 120.859 17.9267 121.141 17.9894C121.453 18.0521 121.891 18.1151 122.109 18.1155C122.578 18.1475 122.607 19.1413 122.106 19.6372C121.887 19.8541 121.855 20.0093 121.981 20.0096C122.449 20.0105 123.452 18.6772 123.297 18.2732C123.204 17.9935 123.423 17.9318 124.079 17.9952C124.61 18.0894 124.923 17.9969 124.83 17.8414C124.705 17.6549 124.893 17.531 125.237 17.5317C125.549 17.5323 126.081 17.285 126.426 16.9751C126.77 16.6653 127.208 16.4488 127.427 16.5423C127.614 16.6048 128.521 16.5134 129.428 16.3289C130.804 16.0211 131.086 16.0527 131.304 16.4569C131.459 16.7056 131.74 16.9235 131.959 16.924C132.178 16.9244 132.49 17.1735 132.646 17.4843C133.206 18.5102 134.796 20.6561 135.951 21.9005C136.574 22.5539 137.042 23.1759 136.979 23.2379C136.823 23.3929 138.883 25.0118 139.195 25.0124C139.289 25.0126 139.664 25.2928 140.038 25.6351C140.537 26.1019 140.819 26.1646 141.132 25.9168C141.445 25.6379 141.539 25.6692 141.538 26.0418C141.537 26.6008 142.38 26.9751 142.662 26.5409C142.788 26.3238 142.975 26.3552 143.256 26.5732C143.568 26.8222 143.85 26.8228 144.319 26.6063C144.663 26.4207 145.226 26.2665 145.57 26.2672C145.914 26.2679 146.383 26.0514 146.665 25.8036C146.916 25.5556 147.323 25.3391 147.542 25.3395C147.854 25.3401 147.823 25.2469 147.48 25.0288C147.105 24.7797 147.136 24.7176 147.73 24.7188C148.137 24.7196 148.418 24.5649 148.356 24.3164C148.294 24.1299 148.357 23.9437 148.482 23.9439C148.92 23.9448 149.954 22.7668 149.767 22.4559C149.642 22.2693 149.83 22.2076 150.205 22.3015C150.986 22.5204 152.991 20.6301 152.617 20.0393C152.492 19.8217 152.523 19.7597 152.742 19.8843C152.929 19.9779 153.273 19.8854 153.493 19.6374C153.743 19.4205 154.369 18.987 154.933 18.7086C155.496 18.4302 155.934 18.0895 155.934 17.9653C155.935 17.8411 156.404 17.7489 156.998 17.75C157.592 17.7512 157.998 17.8452 157.935 17.9382C157.747 18.2484 158.621 18.8712 158.84 18.6232C158.966 18.5303 159.059 18.5926 159.059 18.81C159.058 19.0273 159.37 19.4627 159.776 19.8051C160.213 20.1476 160.306 20.3651 160.025 20.3956C159.493 20.3946 160.335 21.7626 161.458 22.7275C161.864 23.0699 162.176 23.5364 162.175 23.7227C162.174 24.2196 163.361 24.8741 164.361 24.9692C164.799 25.0011 165.173 25.1882 165.235 25.3746C165.298 25.53 165.516 25.5926 165.704 25.4687C165.892 25.3449 165.954 25.4692 165.829 25.7795C165.703 26.1209 165.89 26.3075 166.515 26.4641C167.734 26.7149 169.079 26.3449 169.956 25.4772C170.363 25.1053 170.832 24.7647 170.989 24.765C171.145 24.7653 171.177 24.6101 171.083 24.4546C170.99 24.2681 170.74 24.1434 170.584 24.1431C170.396 24.1427 170.333 24.2668 170.458 24.4223C170.645 24.7643 169.424 25.5382 169.143 25.2582C169.018 25.1647 168.737 25.2574 168.486 25.4432C167.954 25.8769 167.172 26.0306 167.173 25.7201C167.173 25.5648 167.549 25.1929 167.987 24.8832C168.426 24.5736 168.989 24.1399 169.209 23.923C169.428 23.706 169.709 23.6445 169.865 23.769C170.021 23.8935 169.928 23.707 169.679 23.396C169.429 23.0539 169.367 22.8675 169.586 22.9921C169.773 23.1167 170.148 23.0243 170.399 22.7763C170.649 22.5284 170.931 22.3737 171.025 22.467C171.118 22.5914 171.494 22.468 171.838 22.2202C172.214 21.9725 172.402 21.6624 172.277 21.569C172.183 21.4446 172.246 21.3515 172.434 21.3519C172.621 21.3523 172.746 21.632 172.714 21.9735C172.682 22.3461 172.494 22.5631 172.181 22.5004C171.9 22.4688 171.743 22.6238 171.805 22.9655C171.898 23.5867 171.366 23.7099 171.148 23.1194C171.024 22.8397 170.899 22.8705 170.648 23.2116C170.397 23.5527 170.491 23.7703 171.021 24.0508C171.615 24.3625 171.865 24.3009 172.71 23.6504C173.243 23.2478 173.837 22.9074 173.994 22.9077C174.15 22.908 174.463 22.6912 174.682 22.4432C174.902 22.1642 174.933 21.9779 174.746 21.9776C174.589 21.9772 174.34 21.7283 174.215 21.4176C174.06 21.0135 174.123 20.9826 174.403 21.2627C174.59 21.4494 174.965 21.5433 175.184 21.4505C175.435 21.3579 175.685 21.5136 175.809 21.7623C175.933 22.1352 176.183 22.1667 176.903 21.9818C177.403 21.8276 177.81 21.7973 177.809 21.9215C177.809 22.0458 178.278 22.1088 178.809 22.1098C179.403 22.08 179.81 21.8944 179.779 21.7081C179.717 21.5216 179.843 21.3666 180.03 21.367C180.218 21.3673 180.28 21.6469 180.154 21.9883C179.965 22.609 180.215 22.7648 181.184 22.6425C181.403 22.6118 181.528 22.7674 181.496 22.9847C181.433 23.1709 181.558 23.3885 181.714 23.3888C182.683 23.515 183.714 23.9518 183.588 24.1999C183.494 24.324 183.713 24.3865 184.057 24.3251C184.463 24.2638 184.682 24.3574 184.681 24.6679C184.681 24.9164 184.806 25.0719 184.962 24.979C185.119 24.8551 185.306 24.9486 185.368 25.1351C185.43 25.3215 185.868 25.4777 186.337 25.4786C186.806 25.4796 187.337 25.698 187.524 25.9157C187.711 26.1645 188.148 26.3517 188.461 26.3523C188.805 26.353 189.054 26.4467 189.054 26.5709C189.054 26.7262 189.397 26.9753 189.834 27.1936C190.272 27.3807 190.553 27.4123 190.46 27.2879C190.366 27.1325 190.46 26.9774 190.679 26.9157C190.867 26.854 190.93 26.6057 190.805 26.388C190.618 26.1392 190.462 26.1079 190.149 26.3557C189.867 26.5725 189.648 26.541 189.368 26.1989C189.024 25.7945 189.15 25.7326 190.15 25.7346C191.15 25.7366 191.276 25.6748 190.901 25.2393C190.621 24.8971 190.433 24.8657 190.37 25.114C190.276 25.3312 190.026 25.2686 189.589 24.8951C189.027 24.3971 188.965 24.397 189.151 24.8631C189.276 25.236 189.213 25.3291 188.869 25.2042C187.963 24.8608 188.465 24.3339 189.59 24.4603C189.777 24.4917 190.028 24.368 190.153 24.1819C190.247 24.0268 190.498 23.8721 190.654 23.8724C190.842 23.8728 190.904 23.9971 190.778 24.1521C190.684 24.3383 190.872 24.4318 191.216 24.4014C191.632 24.3816 191.643 24.1849 191.248 23.8115C190.468 23.0646 189.561 23.0628 189.81 23.7776C189.965 24.2437 189.903 24.2125 189.529 23.7149C189.217 23.3416 189.155 23.062 189.374 23.0004C189.53 22.9386 189.687 22.6283 189.688 22.3178C189.689 22.0072 189.846 21.6349 190.002 21.542C190.221 21.4183 190.283 21.6047 190.126 22.1323C189.937 22.8772 189.999 22.9395 190.937 22.9413C191.5 22.9424 191.844 23.0673 191.718 23.2534C191.593 23.4395 191.936 23.5644 192.53 23.5656C193.468 23.5674 193.499 23.5986 192.967 23.9701C192.529 24.3109 192.497 24.4661 192.809 24.653C193.09 24.8088 193.153 24.7779 192.997 24.5292C192.841 24.3115 193.123 24.1257 193.749 23.9717C194.312 23.8797 194.812 23.6012 194.906 23.384C195.001 23.1357 195.314 22.95 195.595 22.9506C195.97 22.9513 196.001 23.0135 195.688 23.2302C195.344 23.4159 195.375 23.5402 195.812 23.6963C196.5 23.9461 197.032 23.4503 196.752 22.7976C196.628 22.4558 196.378 22.331 196.002 22.4856C195.596 22.64 195.565 22.5779 195.847 22.2989C196.128 22.02 196.441 22.0517 197.222 22.4569C198.471 23.0805 198.44 23.0804 198.441 22.3041C198.442 21.9004 198.567 21.7454 198.848 21.9012C199.036 22.0258 199.005 21.9326 198.755 21.6836C198.505 21.4347 198.131 21.0303 197.913 20.7814C197.57 20.377 197.538 20.377 197.694 20.8431C197.818 21.247 197.724 21.3089 197.224 21.1837C196.849 21.0898 196.568 20.8719 196.569 20.7166C196.569 20.5614 196.694 20.4995 196.85 20.624C197.006 20.7175 197.225 20.6558 197.351 20.5008C197.445 20.3146 197.757 20.2842 198.039 20.378C198.32 20.5027 198.476 20.4409 198.351 20.2854C198.258 20.0989 198.415 19.7886 198.728 19.5719C199.292 19.1693 199.295 17.6787 198.732 17.6776C198.576 17.6773 198.545 17.4909 198.639 17.2737C198.733 17.0255 198.421 16.5901 197.984 16.2476C197.547 15.9362 197.205 15.4077 197.205 15.0971C197.206 14.5692 197.175 14.5691 196.705 15.0029C196.267 15.4368 196.142 15.4055 195.393 14.7209C194.925 14.2852 194.457 13.9426 194.363 13.9425C193.956 13.9416 192.459 12.3239 192.398 11.8269C192.336 11.4852 191.774 11.1424 190.774 10.861C189.93 10.6419 188.9 10.1741 188.494 9.86273C187.682 9.20899 187.057 9.08352 187.4 9.61212C187.525 9.8608 187.368 9.89155 186.869 9.73528C186.462 9.61026 185.994 9.48511 185.806 9.45368C185.65 9.45337 185.306 9.23534 185.088 9.01753C184.526 8.51955 184.026 8.5496 184.15 9.07776C184.212 9.32632 184.118 9.54351 183.93 9.51209C183.774 9.51178 183.649 9.3873 183.681 9.26315C183.712 9.13899 183.556 8.9213 183.307 8.82764C183.057 8.73398 182.838 8.82674 182.837 9.01306C182.837 9.23044 182.712 9.23018 182.462 9.04336C182.119 8.79425 180.056 8.72803 179.805 8.94491C179.648 9.06882 179.086 9.16087 178.429 9.22167C177.96 9.2518 177.835 9.40681 177.959 9.7176C178.083 10.0905 177.927 10.1523 177.177 10.0266C176.396 9.86976 176.177 9.96249 176.051 10.4902C175.956 10.8316 175.737 11.1106 175.58 11.1103C175.424 11.11 175.362 10.9856 175.456 10.8306C175.55 10.7065 175.269 10.6439 174.862 10.7362C174.456 10.7975 174.143 11.0143 174.173 11.2317C174.204 11.4181 174.016 11.573 173.766 11.5725C173.516 11.572 173.11 11.6954 172.922 11.8193C172.671 11.9741 172.515 11.9116 172.516 11.7253C172.516 11.539 172.391 11.4456 172.235 11.5695C172.047 11.6623 171.828 11.5376 171.672 11.2889C171.548 11.0402 171.298 10.8223 171.111 10.8219C170.954 10.7906 170.798 10.6661 170.799 10.4797C170.799 10.3245 170.394 9.76469 169.926 9.23584C169.427 8.70693 168.99 8.11606 168.959 7.89862C168.836 6.99781 167.837 6.25051 167.836 7.05791C167.835 7.21318 168.054 7.36888 168.335 7.36944C168.585 7.36994 168.71 7.52545 168.616 7.71159C168.365 8.08374 167.21 7.1809 167.305 6.68422C167.337 6.52902 167.087 6.21799 166.744 6.03098C166.4 5.81292 166.057 5.59484 165.963 5.50149C165.87 5.40814 165.401 5.28302 164.901 5.25097C164.369 5.21886 163.901 5.06263 163.776 4.90712C163.683 4.72061 163.151 4.62642 162.62 4.62537C161.87 4.65493 161.682 4.77876 161.806 5.15165C161.962 5.58672 161.93 5.58666 161.431 5.15091C160.994 4.71528 160.682 4.68363 159.9 4.93051C159.368 5.08472 158.085 5.45481 157.053 5.7633C155.99 6.07173 155.207 6.44283 155.238 6.66027C155.3 6.87777 155.112 7.03265 154.862 7.03216C154.612 7.03166 154.393 7.2486 154.392 7.52808C154.392 7.77651 154.267 7.93153 154.142 7.83812C153.829 7.65118 152.514 8.76653 152.513 9.17023C152.513 9.3255 152.138 9.54213 151.668 9.63436C151.231 9.75771 150.573 10.1911 150.26 10.6253C149.915 11.0283 149.477 11.369 149.227 11.3685C149.008 11.3681 148.663 11.5848 148.413 11.8638C148.068 12.2978 148.005 12.2977 147.725 11.8003C147.476 11.3961 147.382 11.3649 147.163 11.706C146.943 12.0472 146.881 12.0471 146.881 11.6434C146.882 11.3639 146.602 10.8975 146.258 10.5863C145.915 10.2751 145.635 9.83977 145.635 9.59134C145.636 9.34291 145.511 9.21844 145.354 9.31129C145.198 9.40414 144.823 9.12391 144.543 8.6886C144.169 8.12888 144.138 7.94249 144.419 8.09832C144.669 8.22303 144.544 8.03647 144.138 7.72513C143.639 7.32043 143.483 6.94746 143.609 6.54401C143.766 6.14062 143.735 6.04742 143.547 6.29547C143.171 6.82265 142.047 6.04405 142.049 5.2677C142.049 4.89506 141.706 4.58382 141.113 4.39632C140.613 4.24005 139.707 3.89669 139.113 3.64708C138.551 3.39753 137.895 3.17882 137.708 3.1474C137.52 3.11597 137.208 3.02221 137.052 2.89768C136.864 2.7731 135.614 2.73954 134.238 2.79892C131.706 2.88706 128.609 3.71938 128.17 4.43275C127.857 4.96005 125.76 6.04278 125.51 5.82491C125.417 5.7005 125.323 5.79347 125.322 6.01085C125.322 6.25928 125.072 6.32088 124.634 6.22685C124.228 6.13288 124.103 6.13263 124.322 6.22623C124.603 6.351 124.446 6.59912 123.757 7.00146C123.225 7.34199 122.662 7.5272 122.537 7.46484C122.287 7.30908 120.721 8.76551 120.877 9.01425C121.126 9.48055 120.844 9.7595 120.188 9.57187C119.688 9.44666 119.407 9.53926 119.281 9.88061C118.778 11.1839 115.589 11.6123 114.684 10.4926C114.466 10.2748 114.185 10.15 114.029 10.2428C113.872 10.3357 113.747 10.2423 113.748 10.0559C113.748 9.86962 113.405 9.40315 112.999 9.0297C112.313 8.3762 112.188 8.18963 112.189 7.63066C112.19 7.50644 112.064 7.59934 111.908 7.84746C111.688 8.18862 111.5 8.18823 110.907 7.7523C110.502 7.47201 110.314 7.25426 110.502 7.25464C110.658 7.25495 111.002 7.44198 111.22 7.62873C111.532 7.93989 111.532 7.87779 111.221 7.31819C110.972 6.94505 110.566 6.66476 110.284 6.69525C110.003 6.7568 109.784 6.66321 109.753 6.53893C109.723 6.07306 108.63 5.41873 107.911 5.38625C107.536 5.38551 107.13 5.22944 107.005 5.04287C106.881 4.8563 106.38 4.79319 105.755 4.91616C104.879 5.06969 104.723 5.00728 104.88 4.60388C105.037 4.20049 104.85 4.10695 103.724 4.16683C101.724 4.22496 98.7526 4.80912 98.9396 5.12003C99.0331 5.24443 98.5639 5.3677 97.9075 5.36639C97.1259 5.36484 96.8756 5.45751 97.1254 5.64433C97.4688 5.86239 97.4687 5.92451 97.0932 6.07903C96.843 6.1717 96.468 6.0778 96.2495 5.89104C95.9375 5.61094 95.9062 5.61088 96.062 5.89067C96.1866 6.1083 96.1237 6.29447 95.9674 6.29416C95.7798 6.29379 95.6238 6.16926 95.6241 5.98294C95.6245 5.82767 95.4058 5.76515 95.1242 5.88881C94.7488 6.01228 94.7485 6.13647 95.0296 6.2923C95.2793 6.47912 95.2164 6.63427 94.747 6.88177C94.2776 7.12927 94.0588 7.12886 93.9656 6.81813C93.841 6.6005 93.7784 6.6314 93.7778 6.94194C93.7459 7.25242 93.2136 7.68613 92.5253 7.96425C91.837 8.21132 91.0232 8.70657 90.7099 9.04754C89.9581 9.8224 88.4263 9.81936 88.4279 9.04301C88.4285 8.73247 88.148 8.29717 87.8046 8.07911C87.4611 7.86105 87.1805 7.51889 87.1809 7.33257C87.1813 7.11519 86.5573 6.49287 85.7769 5.93235C85.0278 5.34083 84.3728 4.6253 84.3733 4.34581C84.3746 3.72474 82.907 2.88336 81.688 2.78778C81.2505 2.7248 80.7819 2.53755 80.7198 2.32005C80.6265 2.10249 80.4392 1.97788 80.3139 2.0708C80.1575 2.16365 79.97 2.10116 79.8765 1.9457C79.783 1.8213 79.1266 1.78895 78.3761 1.91168C77.6567 2.06552 76.8751 2.09504 76.6565 2.00144C76.4379 1.90785 76.2501 2.00063 76.2497 2.18695C76.2494 2.37327 76.1553 2.49731 76.0303 2.46601C75.3742 2.27838 73.7475 2.86517 73.7466 3.29992C73.7461 3.54835 73.5893 3.76542 73.4018 3.76505C73.2455 3.76474 73.1826 3.91988 73.2761 4.07534C73.4007 4.29296 73.213 4.3547 72.6819 4.19838C72.182 4.07317 71.8692 4.13467 71.8688 4.32099C71.8685 4.50731 71.5554 4.7551 71.18 4.87857C70.4605 5.12558 70.2416 5.15622 69.4599 5.24783C69.241 5.27845 69.053 5.46438 69.0526 5.6507C69.0521 5.89913 69.2398 5.86846 69.6155 5.58972C69.9286 5.34191 69.8971 5.46607 69.4898 5.90002C69.1452 6.27198 68.5818 6.61246 68.3003 6.674C67.9876 6.70444 67.6433 6.92113 67.5179 7.13826C67.3924 7.35539 67.142 7.47911 66.9858 7.44775C66.3295 7.32223 66.1729 7.50826 66.5783 8.00592C66.7965 8.3169 66.8587 8.47228 66.7339 8.34782C66.5778 8.22329 66.265 8.34689 66.0142 8.65693C65.7218 8.98759 65.628 8.97706 65.733 8.62533C65.8274 8.28392 65.7965 8.12857 65.6087 8.25241C65.4209 8.3452 65.2951 8.71762 65.2944 9.09027C65.2935 9.49397 65.1369 9.64893 64.8558 9.55521C64.5434 9.43037 64.4494 9.52332 64.5739 9.8341C64.6671 10.1138 64.5417 10.2688 64.1666 10.2681C63.6977 10.2671 63.6663 10.3292 64.0097 10.5472C64.4468 10.8276 64.2266 11.5103 63.6952 11.5093C63.5076 11.5089 63.4767 11.3225 63.6022 11.1054C63.7903 10.8574 63.6965 10.8572 63.3207 11.167C62.945 11.4767 62.8819 11.725 63.0999 12.1602C63.349 12.6265 63.3177 12.6886 62.974 12.5637C62.7241 12.47 62.3799 12.6557 62.1602 13.0589C61.972 13.4002 61.6902 13.617 61.5341 13.5235C61.378 13.43 61.1903 13.4918 61.0648 13.6778C60.7198 14.2361 60.2833 13.6763 60.2852 12.7136C60.2864 12.1236 60.1308 11.8127 59.8181 11.8121C59.5368 11.8116 59.3498 11.5317 59.3505 11.1591C59.352 10.4448 58.4176 8.70394 58.0425 8.7032C57.9174 8.70295 57.7927 8.54745 57.7932 8.33007C57.7935 8.14375 57.4197 7.49087 56.9832 6.93103C56.3908 6.15351 56.0786 5.9355 55.828 6.18344C55.6401 6.36939 55.3584 6.52409 55.2021 6.52378C55.0458 6.52347 55.1713 6.30635 55.4219 6.02736C56.0171 5.43851 55.7993 4.9412 55.0486 5.15709C54.6106 5.31149 54.5794 5.28037 54.9863 5.0017C55.3934 4.69196 55.3935 4.62986 54.9876 4.34957C54.7379 4.19381 54.6444 4.03835 54.7694 4.0386C54.9257 4.03891 54.7391 3.60379 54.365 3.07513C53.8973 2.45312 53.4602 2.17278 52.9912 2.23396C52.6473 2.26433 52.1472 2.2012 51.9287 2.04549C51.7101 1.92084 51.4289 1.8582 51.3662 1.95124C51.2722 2.04421 50.7097 1.91887 50.1163 1.66926C49.4916 1.41959 48.7103 1.29381 48.2098 1.41703C47.6468 1.57118 47.4593 1.53976 47.6162 1.26058C47.7416 1.07451 47.6481 0.919059 47.3668 0.918501C47.0854 0.917942 46.8663 1.07277 46.8659 1.25909ZM83.4365 3.8471C83.4361 4.03342 83.2486 4.00197 82.9677 3.78404C82.7181 3.56616 82.4997 3.34836 82.4998 3.28625C82.4999 3.22414 82.7187 3.25561 82.9686 3.34927C83.2184 3.47398 83.4368 3.69183 83.4365 3.8471ZM38.3826 6.98725C38.1945 7.23531 37.9129 7.35898 37.8194 7.23458C37.7258 7.11017 37.8199 6.9551 38.0389 6.89343C38.2266 6.80064 38.3209 6.58345 38.2274 6.42799C38.1028 6.21036 38.1654 6.17943 38.3839 6.30408C38.6649 6.49096 38.6646 6.64621 38.3826 6.98725ZM65.3854 10.4257C65.2911 10.705 65.1345 10.86 65.0721 10.7667C64.9786 10.6734 65.0102 10.4871 65.1356 10.301C65.418 9.80472 65.6053 9.89827 65.3854 10.4257ZM97.6726 13.3158C97.6721 13.5952 97.8278 13.9061 98.0777 13.9998C98.3901 14.0935 98.4528 14.0005 98.3285 13.6276C98.2041 13.3168 98.2356 13.1616 98.423 13.2862C98.6103 13.3797 98.7348 13.6905 98.7343 13.9079C98.7338 14.1563 98.9211 14.2809 99.1402 14.1882C99.6094 14.0339 100.92 15.1544 100.888 15.7133C100.887 15.9928 100.825 15.9927 100.7 15.6819C100.638 15.4954 100.357 15.3085 100.107 15.308C99.8569 15.3076 99.576 15.1207 99.4826 14.9031C99.296 14.4059 98.3582 14.404 97.732 14.8997C97.5128 15.0545 97.1059 15.3331 96.8555 15.4569C96.4487 15.6734 96.4487 15.6424 96.7934 15.2394C97.1382 14.8053 97.0444 14.8051 95.9184 15.0824C95.2303 15.2673 94.8234 15.5149 94.9795 15.6084C95.1357 15.7019 94.9789 15.95 94.6658 16.1668C94.1337 16.4763 94.04 16.4761 94.0408 16.0413C94.042 15.4513 93.0727 15.5736 92.8526 16.1942C92.7583 16.4425 92.8519 16.5358 93.0397 16.443C93.5092 16.1334 93.6945 17.2828 93.2867 17.9651C92.7221 18.8956 92.0969 18.8634 92.1615 17.8698C92.2579 16.5657 92.1958 16.3171 91.8509 16.8444C91.6628 17.1235 91.5377 17.1543 91.5381 16.9369C91.5391 16.4711 92.8851 15.5732 94.6685 14.8314C95.4506 14.5225 96.4209 13.9344 96.8594 13.5315C97.7677 12.6949 97.7364 12.6948 97.6726 13.3158ZM129.747 13.3794C129.34 13.6581 128.933 13.7815 128.839 13.6882C128.715 13.5948 128.809 13.5018 129.027 13.5022C129.246 13.5027 129.309 13.3475 129.216 13.192C129.122 13.0055 129.341 12.8818 129.748 12.8826L130.435 12.8839L129.747 13.3794ZM132.029 13.1976C131.935 13.3527 132.247 13.6018 132.716 13.6959C133.497 13.9148 133.497 13.9458 132.965 14.1622C132.089 14.502 131.808 14.5015 132.027 14.1603C132.121 14.0052 132.059 13.7877 131.872 13.6631C131.56 13.4762 131.717 12.8865 132.061 12.8872C132.155 12.8873 132.123 13.0115 132.029 13.1976ZM56.063 13.6679C56.1565 13.8234 56.0937 13.9785 55.9374 13.9782C55.7498 13.9778 55.5938 13.8223 55.5941 13.667C55.5945 13.4807 55.6573 13.3566 55.7198 13.3567C55.8136 13.3569 55.9696 13.4814 56.063 13.6679ZM97.354 16.2963C97.4476 16.4207 97.7602 16.4213 98.0417 16.3287C98.4171 16.2053 98.3856 16.2984 97.9473 16.6391C97.3211 17.1037 96.5087 16.9468 96.0724 16.2317C95.8543 15.8896 97.0108 15.9851 97.354 16.2963ZM124.832 16.8167C125.269 17.1592 125.3 17.2524 124.956 17.1275C124.675 17.0338 124.268 17.1261 124.049 17.312C123.736 17.5909 123.611 17.5906 123.518 17.2799C123.424 17.0934 123.237 16.9688 123.081 17.0927C122.924 17.1855 122.799 17.0921 122.8 16.9058C122.8 16.7195 123.144 16.658 123.675 16.7833C124.331 16.9088 124.425 16.878 124.051 16.6288C123.801 16.442 123.739 16.2866 123.895 16.2869C124.082 16.3183 124.488 16.5365 124.832 16.8167ZM95.5084 16.8827C95.2267 17.0684 95.0386 17.3165 95.132 17.503C95.2568 17.6585 95.0377 17.7823 94.6938 17.7816C93.9123 17.7801 93.8202 16.9415 94.6021 16.7567C95.6655 16.4793 96.1031 16.5423 95.5084 16.8827ZM179.694 17.4535C179.694 17.5156 179.475 17.6704 179.193 17.763C178.943 17.8557 178.818 17.8244 178.912 17.6383C179.1 17.3281 179.695 17.2051 179.694 17.4535ZM91.3467 18.8619C90.5327 19.4503 90.377 19.1394 91.0976 18.3645C91.4422 17.9926 91.7238 17.8689 91.7859 18.0864C91.848 18.2728 91.6598 18.6141 91.3467 18.8619ZM182.037 18.2655C182.162 18.4521 182.13 18.5763 181.974 18.5449C181.349 18.4505 181.192 18.6055 181.567 19.041C181.847 19.3831 181.847 19.5073 181.597 19.5068C181.409 19.5065 181.16 19.2886 181.066 19.04C180.942 18.7913 180.755 18.6667 180.598 18.7596C180.442 18.8524 180.317 18.8522 180.317 18.7279C180.317 18.6037 181.037 18.2014 181.788 17.9856C181.819 17.9546 181.944 18.1101 182.037 18.2655ZM178.222 18.7859C178.159 19.0032 178.409 19.2521 178.752 19.3459C179.096 19.4708 179.377 19.6888 179.377 19.8751C179.376 20.0614 179.189 20.061 178.908 19.812C178.533 19.5008 178.44 19.5006 178.439 19.9353C178.438 20.2148 178.219 20.4318 177.969 20.4313C177.719 20.4308 177.5 20.2751 177.5 20.1198C177.501 19.9335 177.657 19.8096 177.845 19.8099C178.001 19.8102 178.064 19.6551 177.939 19.4685C177.815 19.2199 177.659 19.2506 177.47 19.5297C177.251 19.8709 177.095 19.8706 176.658 19.4039C176.159 18.9371 176.159 18.8129 176.566 18.5652C177.192 18.1628 178.317 18.3203 178.222 18.7859ZM81.2177 19.0281C81.2173 19.2144 81.0922 19.2452 80.9048 19.1517C80.7487 19.0582 80.5929 18.8095 80.5932 18.6542C80.5936 18.4679 80.7499 18.4371 80.906 18.5306C81.0934 18.6241 81.218 18.8728 81.2177 19.0281ZM175.47 19.1841C175.157 19.5251 174.781 19.8038 174.656 19.8036C174.187 19.8027 174.721 18.9032 175.252 18.78C175.565 18.6875 175.847 18.6259 175.909 18.595C175.972 18.5951 175.784 18.8432 175.47 19.1841ZM184.691 19.6683C184.847 19.8549 184.66 19.9787 184.253 19.9779C183.659 19.9767 183.628 19.8835 183.911 19.2941C184.099 18.8907 184.287 18.7669 184.349 18.9844C184.411 19.2019 184.567 19.4817 184.691 19.6683ZM173.906 19.8021C173.812 19.9572 173.53 20.1119 173.343 20.1115C173.124 20.1111 173.155 19.9869 173.437 19.8012C174.032 19.4297 174.157 19.43 173.906 19.8021ZM181.221 19.9409C181.533 20.3141 181.501 20.3762 181.064 20.3132C180.751 20.2504 180.439 20.0635 180.377 19.8771C180.222 19.3489 180.784 19.4121 181.221 19.9409ZM83.4041 19.933C83.4038 20.0883 83.341 20.2434 83.2785 20.2433C83.1847 20.2431 83.0287 20.0875 82.9352 19.9321C82.8418 19.7456 82.9046 19.6215 83.0609 19.6218C83.2485 19.6221 83.4045 19.7467 83.4041 19.933ZM86.8429 19.9398C86.8426 20.0951 86.7797 20.2502 86.7172 20.2501C86.6234 20.2499 86.4674 20.0943 86.374 19.9389C86.2805 19.7524 86.3433 19.6283 86.4996 19.6286C86.6872 19.629 86.8432 19.7535 86.8429 19.9398ZM176.969 20.3361C176.937 20.5534 177.374 20.6474 178.093 20.6178C178.781 20.6192 179.25 20.6823 179.156 20.8063C179.093 20.9614 178.405 21.0532 177.624 21.0517C176.655 21.0497 176.28 20.9248 176.436 20.7077C176.531 20.5216 176.437 20.2419 176.219 20.0551C175.875 19.8371 175.938 19.8062 176.407 19.9003C176.751 19.963 177 20.1499 176.969 20.3361ZM85.4349 20.5581C85.5283 20.7136 85.4655 20.8687 85.3092 20.8684C85.1216 20.868 84.9656 20.7124 84.9659 20.5572C84.9663 20.3709 85.0291 20.2468 85.0916 20.2469C85.1854 20.2471 85.3415 20.3716 85.4349 20.5581ZM88.0914 20.8739C88.0907 21.2466 87.8714 21.4946 87.59 21.494C87.1836 21.4932 87.1526 21.4 87.4345 21.09C87.6226 20.842 87.6857 20.5626 87.5608 20.4692C87.4673 20.3448 87.53 20.2517 87.7176 20.2521C87.9364 20.2525 88.0921 20.5323 88.0914 20.8739ZM196.192 21.2438C196.099 21.3368 195.911 21.1811 195.818 20.8704C195.631 20.4353 195.663 20.4043 195.975 20.6844C196.193 20.9022 196.286 21.1508 196.192 21.2438ZM82.6207 20.8631C82.5266 21.0181 82.245 21.1729 82.0574 21.1725C81.8386 21.172 81.8701 21.0479 82.1518 20.8621C82.7465 20.4907 82.8716 20.4909 82.6207 20.8631ZM185.812 22.0617C185.624 22.1855 185.374 22.1229 185.281 21.9364C185.156 21.7498 184.781 21.687 184.406 21.7794C184.031 21.8718 183.687 21.84 183.624 21.7157C183.531 21.5913 183.781 21.4676 184.156 21.4683C184.532 21.438 184.876 21.2524 184.939 21.0662C185.033 20.849 185.283 20.9427 185.626 21.2849C185.969 21.6583 186.031 21.9068 185.812 22.0617ZM170.933 21.5352C170.932 21.7837 170.807 21.9076 170.62 21.8141C170.463 21.7206 170.307 21.8756 170.275 22.1861C170.274 22.6829 170.243 22.6829 170.025 22.1235C169.807 21.5641 170.027 21.285 170.871 21.0693C170.902 21.0383 170.933 21.2557 170.933 21.5352ZM182.187 21.3713C182.187 21.5265 182.124 21.6817 182.061 21.6815C181.968 21.6814 181.812 21.5258 181.718 21.3703C181.625 21.1838 181.688 21.0597 181.844 21.06C182.031 21.0604 182.188 21.1849 182.187 21.3713ZM118.726 21.5558C118.726 21.7111 118.601 21.8661 118.413 21.8657C118.257 21.8654 118.101 21.7098 118.101 21.5546C118.101 21.3682 118.258 21.2443 118.414 21.2447C118.602 21.245 118.727 21.3695 118.726 21.5558ZM178.967 21.5512C178.873 21.6441 178.591 21.6747 178.373 21.5811C178.123 21.4874 178.217 21.3944 178.561 21.3951C178.905 21.3647 179.092 21.4583 178.967 21.5512ZM191.878 21.701C191.877 21.8563 191.658 21.918 191.408 21.8243C191.159 21.6996 190.94 21.575 190.94 21.5128C190.94 21.4507 191.159 21.3891 191.409 21.3896C191.659 21.3901 191.878 21.5147 191.878 21.701ZM193.128 21.8588C192.908 22.1068 192.595 22.3235 192.408 22.3232C192.22 22.3228 192.346 22.1057 192.69 21.8579C193.473 21.2694 193.629 21.2697 193.128 21.8588ZM198.129 22.024C198.128 22.5519 198.065 22.6139 197.691 22.2716C197.379 21.9914 197.348 21.8051 197.63 21.6504C198.131 21.3098 198.131 21.3408 198.129 22.024ZM114.443 21.7647C114.224 21.8264 113.849 21.8256 113.661 21.7632C113.443 21.6696 113.599 21.6078 114.037 21.6086C114.475 21.6095 114.631 21.6719 114.443 21.7647ZM31.286 22.6554C31.0662 23.1208 30.6276 23.5858 30.3148 23.6783C30.002 23.7812 30.0126 23.6984 30.3466 23.4299C30.691 23.1511 30.7853 22.9029 30.598 22.7783C30.192 22.5601 30.7875 21.785 31.3502 21.7861C31.6003 21.7866 31.5998 22.066 31.286 22.6554ZM86.7755 22.3309C86.6804 22.9828 86.2107 23.3856 85.836 23.1674C85.4301 22.9182 85.5562 22.4216 85.9937 22.4846C86.1811 22.5471 86.3377 22.3921 86.3069 22.1747C86.2448 21.9882 86.3702 21.8021 86.5265 21.8024C86.7141 21.8028 86.8386 22.0515 86.7755 22.3309ZM146.704 22.2324C146.61 22.3875 146.328 22.4491 146.078 22.3244C145.422 22.1057 145.485 21.9195 146.267 21.921C146.611 21.9217 146.829 22.0464 146.704 22.2324ZM149.016 22.8891C148.765 23.0439 148.296 23.1362 147.952 23.1355L147.327 23.1032L147.953 22.9492C148.297 22.8567 148.704 22.578 148.861 22.2988C149.08 21.8956 149.205 21.8958 149.299 22.2065C149.361 22.424 149.235 22.7343 149.016 22.8891ZM188.437 22.4705C188.78 22.8749 188.749 22.9059 188.312 22.7498C188.03 22.6561 187.812 22.4383 187.812 22.283C187.813 21.8793 188.001 21.9418 188.437 22.4705ZM115.598 22.6365C115.597 22.916 115.316 23.1018 114.909 23.0699C114.378 23.0378 114.315 23.0066 114.753 22.8833C115.035 22.8217 115.285 22.6048 115.286 22.4496C115.286 22.2943 115.349 22.1702 115.443 22.1704C115.536 22.1706 115.598 22.3881 115.598 22.6365ZM21.1247 23.2874C20.9057 23.4112 20.5931 23.3795 20.3746 23.2238C20.1874 23.0371 19.9687 22.9746 19.8747 23.0676C19.812 23.1606 19.7185 23.0362 19.719 22.7878C19.7196 22.4772 19.9072 22.4465 20.5944 22.7274C21.188 22.9149 21.3439 23.1326 21.1247 23.2874ZM61.8283 22.654C61.8279 22.8403 61.7025 23.0574 61.5147 23.1502C61.3582 23.2431 61.2021 23.1185 61.2026 22.8701C61.2032 22.5906 61.36 22.3736 61.5163 22.3739C61.7038 22.3742 61.8286 22.4987 61.8283 22.654ZM111.127 22.9382C111.126 23.1866 111.001 23.3106 110.845 23.2171C110.689 23.1236 110.658 22.9062 110.752 22.7511C111.034 22.348 111.128 22.4102 111.127 22.9382ZM145.546 22.9754C145.326 23.2234 145.076 23.3471 145.013 23.316C144.858 23.1293 145.328 22.5402 145.64 22.5409C145.797 22.5412 145.765 22.7274 145.546 22.9754ZM143.107 23.1569C143.107 23.3122 143.044 23.4673 142.981 23.4672C142.887 23.467 142.731 23.3114 142.638 23.156C142.545 22.9695 142.607 22.8454 142.764 22.8457C142.951 22.8461 143.107 22.9706 143.107 23.1569ZM146.449 24.6231C146.104 24.964 145.917 25.0258 145.917 24.7773C145.918 24.5599 146.074 24.405 146.262 24.4053C146.449 24.4057 146.512 24.1885 146.388 23.8466C146.232 23.4116 146.264 23.3806 146.576 23.7228C146.919 24.034 146.887 24.1892 146.449 24.6231ZM186.778 23.7405C186.684 23.8334 186.402 23.864 186.184 23.7704C185.934 23.6767 186.028 23.5837 186.372 23.5844C186.716 23.554 186.903 23.6475 186.778 23.7405ZM142.323 24.087C142.417 24.2424 142.354 24.3976 142.198 24.3973C142.01 24.3969 141.854 24.2413 141.855 24.086C141.855 23.8997 141.918 23.7756 141.98 23.7758C142.074 23.7759 142.23 23.9005 142.323 24.087ZM147.794 24.0978C147.794 24.2531 147.731 24.4083 147.669 24.4081C147.575 24.4079 147.419 24.2524 147.325 24.0969C147.232 23.9104 147.295 23.7863 147.451 23.7866C147.638 23.787 147.795 23.9115 147.794 24.0978ZM110.593 24.3345C110.592 24.4898 110.436 24.6448 110.248 24.6444C110.092 24.6441 110.03 24.4887 110.124 24.3336C110.218 24.1475 110.374 24.0236 110.468 24.0237C110.531 24.0239 110.593 24.1482 110.593 24.3345ZM112.906 24.3081C113.187 24.7434 111.904 24.9272 111.561 24.5228C111.343 24.2739 111.468 24.15 112 24.0889C112.406 24.0587 112.813 24.1526 112.906 24.3081ZM20.3705 25.2734C20.5881 25.8638 20.4319 25.8325 19.7769 25.0859C19.2778 24.557 19.278 24.4638 19.684 24.6199C19.9651 24.7446 20.2772 25.0247 20.3705 25.2734ZM55.9431 26.6793C55.3783 27.703 54.9402 27.9195 54.9416 27.2052C54.9421 26.9568 55.1615 26.7088 55.4118 26.5851C56.1314 26.307 55.9768 25.4683 55.1952 25.4667C54.7576 25.4659 54.7266 25.3209 55.1023 25.0318C55.6345 24.6602 55.7596 24.6604 56.1024 25.158C56.4454 25.6245 56.4136 25.9039 55.9431 26.6793ZM57.6024 25.4405C57.6959 25.5959 57.6329 25.8132 57.4451 25.937C57.2886 26.0298 57.1326 25.9053 57.1331 25.6569C57.1342 25.0979 57.3219 25.0051 57.6024 25.4405ZM55.2565 26.0879C55.2562 26.2432 55.0996 26.3982 54.912 26.3978C54.7557 26.3975 54.6935 26.2421 54.7876 26.087C54.8817 25.9009 55.0383 25.7769 55.1321 25.7771C55.1946 25.7773 55.2569 25.9016 55.2565 26.0879ZM57.5355 27.6451C57.1596 28.017 56.9094 28.0787 56.7535 27.8299C56.3483 27.2391 56.4737 27.0841 57.2865 27.0857C58.0993 27.0873 58.068 27.1183 57.5355 27.6451Z" fill="#F46F3B"/>
</svg>
