<svg width="323" height="128" viewBox="0 0 323 128" fill="none" xmlns="http://www.w3.org/2000/svg">
<circle cx="308" cy="38" r="15" fill="#F46F3B" fill-opacity="0.1"/>
<path d="M301.79 39.9772C301.556 40.1819 301.395 40.4694 301.348 40.7959L301.159 40.7959C301.071 40.7958 301 40.7227 301 40.6334L301 40.1396C301 40.0503 301.071 39.9772 301.159 39.9772L301.79 39.9772ZM303.611 40.7959C303.624 40.8593 303.63 40.9226 303.63 40.9892C303.63 41.5463 303.188 41.9994 302.642 41.9994C302.096 41.9994 301.653 41.5462 301.653 40.9891C301.653 40.9225 301.659 40.8592 301.672 40.7959C301.759 40.3297 302.16 39.9772 302.642 39.9773C303.123 39.9773 303.525 40.3297 303.611 40.7959ZM303.136 40.9892C303.136 40.921 303.123 40.8544 303.098 40.7959C303.025 40.6124 302.848 40.484 302.642 40.484C302.435 40.484 302.259 40.6123 302.185 40.7959C302.16 40.8543 302.147 40.9209 302.147 40.9892C302.147 41.2669 302.368 41.4943 302.642 41.4943C302.915 41.4943 303.136 41.2669 303.136 40.9892ZM301.391 39.3292L301.391 34.4873C301.391 34.2182 301.605 34 301.868 34L309.466 34.0004C309.729 34.0004 309.942 34.2186 309.942 34.4877L309.942 39.3296C309.942 39.4189 309.871 39.492 309.783 39.492L301.55 39.4916C301.463 39.4916 301.391 39.4185 301.391 39.3292ZM308.788 38.7829C308.788 38.86 308.849 38.9225 308.925 38.9225L308.929 38.9225C309.005 38.9225 309.066 38.86 309.066 38.7829L309.066 34.7654C309.066 34.6883 309.005 34.6258 308.929 34.6258L308.925 34.6258C308.85 34.6258 308.788 34.6883 308.788 34.7654L308.788 38.7829ZM307.504 38.7828C307.504 38.8599 307.565 38.9224 307.64 38.9224L307.644 38.9224C307.72 38.9224 307.781 38.8599 307.781 38.7828L307.781 34.7653C307.781 34.6882 307.72 34.6257 307.645 34.6257L307.64 34.6257C307.565 34.6257 307.504 34.6882 307.504 34.7653L307.504 38.7828ZM306.219 38.7827C306.219 38.8599 306.28 38.9224 306.355 38.9224L306.36 38.9224C306.435 38.9224 306.496 38.8599 306.496 38.7828L306.496 34.7652C306.496 34.6881 306.435 34.6256 306.36 34.6256L306.356 34.6256C306.28 34.6256 306.219 34.6881 306.219 34.7652L306.219 38.7827ZM304.934 38.7827C304.934 38.8598 304.995 38.9223 305.071 38.9223L305.075 38.9223C305.15 38.9223 305.212 38.8598 305.212 38.7827L305.212 34.7652C305.212 34.6881 305.151 34.6256 305.075 34.6256L305.071 34.6256C304.995 34.6256 304.934 34.6881 304.934 34.7652L304.934 38.7827ZM303.649 38.7826C303.649 38.8597 303.711 38.9222 303.786 38.9223L303.79 38.9223C303.866 38.9223 303.927 38.8598 303.927 38.7826L303.927 34.7651C303.927 34.688 303.866 34.6255 303.79 34.6255L303.786 34.6255C303.711 34.6255 303.65 34.688 303.65 34.7651L303.649 38.7826ZM302.365 38.7826C302.365 38.8597 302.426 38.9222 302.501 38.9222L302.506 38.9222C302.581 38.9222 302.642 38.8597 302.642 38.7826L302.642 34.7651C302.642 34.688 302.581 34.6255 302.506 34.6255L302.501 34.6255C302.426 34.6255 302.365 34.688 302.365 34.7651L302.365 38.7826ZM306.051 40.7961C306.064 40.8594 306.07 40.9227 306.07 40.9893C306.07 41.5464 305.628 41.9996 305.081 41.9995C304.536 41.9995 304.093 41.5463 304.093 40.9892C304.093 40.9226 304.099 40.8593 304.112 40.796C304.199 40.3298 304.6 39.9774 305.081 39.9774C305.563 39.9774 305.965 40.3299 306.051 40.7961ZM305.576 40.9893C305.576 40.9211 305.563 40.8545 305.539 40.796C305.464 40.6125 305.288 40.4841 305.081 40.4841C304.875 40.4841 304.698 40.6124 304.624 40.796C304.6 40.8544 304.587 40.9211 304.587 40.9893C304.587 41.267 304.808 41.4944 305.081 41.4944C305.355 41.4944 305.576 41.267 305.576 40.9893ZM304.229 39.9774L303.494 39.9773C303.656 40.1202 303.784 40.3038 303.862 40.5117C303.939 40.3038 304.067 40.1203 304.229 39.9774ZM314.999 40.1403L314.999 40.634C314.999 40.7234 314.928 40.7965 314.84 40.7965L313.553 40.7964C313.461 40.1515 312.919 39.6529 312.262 39.6529C311.606 39.6528 311.062 40.1514 310.97 40.7963L306.375 40.7961C306.327 40.4696 306.167 40.1821 305.933 39.9774L310.396 39.9776L310.397 35.3323C310.397 35.1536 310.538 35.0075 310.715 35.0075L312.215 35.0075C312.638 35.0076 313.032 35.222 313.269 35.5793L314.237 37.0444C314.378 37.2588 314.454 37.5122 314.454 37.7705L314.454 39.9778L314.84 39.9778C314.928 39.9779 314.999 40.0509 314.999 40.1403ZM313.388 37.0818L312.614 35.9577C312.584 35.9155 312.536 35.8895 312.484 35.8895L311.277 35.8895C311.19 35.8895 311.118 35.9625 311.118 36.0519L311.118 37.1742C311.118 37.2652 311.19 37.3367 311.277 37.3367L313.257 37.3368C313.386 37.3368 313.461 37.189 313.388 37.0818ZM313.251 40.9897C313.251 41.5468 312.807 41.9999 312.262 41.9999C311.716 41.9998 311.274 41.5467 311.274 40.9896C311.274 40.4308 311.716 39.9777 312.262 39.9777C312.808 39.9778 313.251 40.4309 313.251 40.9897ZM312.757 40.9896C312.757 40.7103 312.536 40.4845 312.262 40.4845C311.989 40.4845 311.768 40.7102 311.768 40.9896C311.768 41.2673 311.989 41.4947 312.262 41.4948C312.536 41.4948 312.757 41.2674 312.757 40.9896Z" fill="#F46F3B"/>
<circle cx="106" cy="15" r="15" fill="#F46F3B" fill-opacity="0.1"/>
<g clip-path="url(#clip0_720_9137)">
<path d="M106.907 8.03046C106.361 8.03262 105.82 8.09064 105.3 8.18619C102.665 8.6705 101.18 9.94057 100.378 11.7242C101.327 11.6443 102.262 11.5593 103.172 11.5654C103.905 11.5703 104.621 11.6342 105.315 11.8072C105.776 11.9221 106.064 12.3535 106.154 12.8485C106.244 13.3436 106.18 13.9287 106.001 14.5401L105.992 14.5698L105.978 14.5969C105.742 15.0445 105.24 15.4007 104.601 15.7779C103.962 16.1552 103.183 16.5226 102.406 16.842C101.629 17.1614 100.856 17.432 100.231 17.611C100.011 17.6742 99.8104 17.7252 99.6316 17.7638C99.7007 18.7853 99.831 19.8435 99.9964 20.9132C104.254 19.6581 108.306 18.2918 112.256 16.8689C113.044 15.4101 113.165 14.0323 112.771 12.7104C112.091 10.4265 110.921 9.19793 109.575 8.57055C108.733 8.17844 107.815 8.02685 106.907 8.03046ZM101.917 12.2002C101.642 12.2169 101.362 12.2381 101.081 12.2605L99.7641 17.128C99.8669 17.1021 99.9749 17.0734 100.091 17.0402C100.22 17.0031 100.348 16.9642 100.475 16.9236C100.78 15.9041 101.791 12.6115 101.917 12.2002ZM100.499 12.3072C100.168 12.3343 99.8355 12.3615 99.4988 12.385C99.489 12.3996 99.4771 12.4161 99.4587 12.4594C99.4107 12.5726 99.3562 12.7684 99.3095 13.0081C99.2161 13.4876 99.1463 14.1476 99.1058 14.8088C99.0653 15.47 99.0532 16.1357 99.0695 16.6326C99.0777 16.881 99.0935 17.0888 99.1133 17.2219C99.1148 17.2319 99.1157 17.2321 99.1173 17.2413C99.1313 17.2409 99.1487 17.2398 99.1643 17.2391L100.499 12.3072ZM104.768 12.3247C104.294 12.3247 103.897 12.7376 103.897 13.2485C103.897 13.7594 104.294 14.1723 104.768 14.1723C105.242 14.1723 105.638 13.7594 105.638 13.2485C105.638 12.7376 105.242 12.3247 104.768 12.3247ZM104.768 12.9154C104.954 12.9154 105.092 13.0652 105.092 13.2485C105.092 13.4318 104.954 13.5817 104.768 13.5817C104.582 13.5817 104.444 13.4317 104.444 13.2485C104.444 13.0652 104.582 12.9154 104.768 12.9154ZM111.761 17.6687C108 19.0136 104.138 20.3057 100.091 21.4978C100.103 21.5738 100.115 21.6497 100.128 21.7258C104.613 20.8513 107.905 19.4629 111.411 18.1438C111.532 17.9893 111.649 17.8308 111.761 17.6687Z" fill="#F46F3B"/>
</g>
<circle cx="184" cy="112" r="15" fill="#F46F3B" fill-opacity="0.1"/>
<path d="M179.088 107H192.58V107.507H179.088V107Z" fill="#C93D06"/>
<path d="M192.58 107.507V115.315H190.925C190.689 114.476 189.918 113.858 189.004 113.858C188.09 113.858 187.318 114.476 187.083 115.315H185.629H181.273V109.108H179.088V107.507H192.58Z" fill="#F46F3B"/>
<path d="M175.697 113.166C175.697 112.265 177.878 112.089 177.878 112.089L178.758 109.507H181.271V115.315H180.821C180.585 114.476 179.813 113.858 178.899 113.858C177.985 113.858 177.214 114.476 176.978 115.315H175.697V113.166Z" fill="#F46F3B"/>
<path d="M178.278 112.095L178.996 109.989H180.682V112.095H178.278Z" fill="#A8E0FB"/>
<path d="M175.411 115.38C175.411 115.318 175.449 115.268 175.496 115.268H177.118C177.165 115.268 177.203 115.318 177.203 115.38V115.699C177.203 115.761 177.165 115.812 177.118 115.812H175.496C175.449 115.812 175.411 115.761 175.411 115.699V115.38Z" fill="#C93D06"/>
<path d="M180.533 115.812C180.51 114.93 179.786 114.22 178.899 114.22C178.013 114.22 177.289 114.93 177.266 115.812H176.904C176.927 114.731 177.813 113.858 178.899 113.858C179.986 113.858 180.872 114.731 180.895 115.812H180.533Z" fill="#C93D06"/>
<path d="M178.9 114.22C179.612 114.22 180.218 114.678 180.441 115.315H177.358C177.581 114.678 178.187 114.22 178.9 114.22Z" fill="#312E37"/>
<path d="M180.895 115.812H180.533C180.528 115.638 180.496 115.471 180.441 115.315H180.821C180.865 115.474 180.891 115.64 180.895 115.812Z" fill="#C93D06"/>
<path d="M177.266 115.812H176.904C176.908 115.64 176.933 115.474 176.978 115.315H177.357C177.303 115.471 177.271 115.638 177.266 115.812Z" fill="#C93D06"/>
<path d="M178.9 117.307C178.098 117.307 177.447 116.657 177.447 115.854C177.447 115.052 178.098 114.401 178.9 114.401C179.703 114.401 180.354 115.052 180.354 115.854C180.354 116.657 179.703 117.307 178.9 117.307Z" fill="#312E37"/>
<path d="M178.899 116.827C178.361 116.827 177.926 116.391 177.926 115.854C177.926 115.317 178.361 114.882 178.899 114.882C179.436 114.882 179.871 115.317 179.871 115.854C179.871 116.391 179.436 116.827 178.899 116.827Z" fill="#5C5963"/>
<path d="M178.618 116.664C178.172 116.509 177.937 116.021 178.093 115.576C178.248 115.13 178.736 114.895 179.181 115.051C179.627 115.206 179.862 115.694 179.706 116.139C179.551 116.585 179.063 116.82 178.618 116.664Z" fill="#E9E8ED"/>
<path d="M178.898 116.382C178.606 116.382 178.369 116.146 178.369 115.854C178.369 115.563 178.606 115.326 178.898 115.326C179.189 115.326 179.426 115.563 179.426 115.854C179.426 116.146 179.189 116.382 178.898 116.382Z" fill="#312E37"/>
<path d="M178.827 115.192C178.827 115.151 178.86 115.117 178.902 115.117C178.943 115.117 178.977 115.151 178.977 115.192C178.977 115.233 178.943 115.267 178.902 115.267C178.86 115.267 178.827 115.233 178.827 115.192Z" fill="#5C5963"/>
<path d="M178.827 116.516C178.827 116.475 178.86 116.441 178.902 116.441C178.943 116.441 178.977 116.475 178.977 116.516C178.977 116.558 178.943 116.591 178.902 116.591C178.86 116.591 178.827 116.558 178.827 116.516Z" fill="#5C5963"/>
<path d="M179.167 115.243C179.188 115.208 179.233 115.195 179.269 115.216C179.305 115.237 179.317 115.283 179.297 115.318C179.276 115.354 179.23 115.366 179.194 115.346C179.159 115.325 179.146 115.279 179.167 115.243Z" fill="#5C5963"/>
<path d="M178.505 116.39C178.526 116.354 178.571 116.342 178.607 116.363C178.643 116.383 178.655 116.429 178.634 116.465C178.614 116.501 178.568 116.513 178.532 116.492C178.497 116.472 178.484 116.426 178.505 116.39Z" fill="#5C5963"/>
<path d="M179.437 115.458C179.472 115.438 179.518 115.45 179.539 115.486C179.559 115.522 179.547 115.567 179.511 115.588C179.476 115.609 179.43 115.596 179.409 115.561C179.389 115.525 179.401 115.479 179.437 115.458Z" fill="#5C5963"/>
<path d="M178.288 116.12C178.324 116.1 178.37 116.112 178.39 116.148C178.411 116.184 178.399 116.229 178.363 116.25C178.327 116.271 178.281 116.258 178.261 116.223C178.24 116.187 178.252 116.141 178.288 116.12Z" fill="#5C5963"/>
<path d="M179.564 115.779C179.605 115.779 179.639 115.813 179.639 115.854C179.639 115.895 179.605 115.929 179.564 115.929C179.523 115.929 179.489 115.895 179.489 115.854C179.489 115.813 179.522 115.779 179.564 115.779Z" fill="#5C5963"/>
<path d="M178.242 115.779C178.283 115.779 178.316 115.813 178.316 115.854C178.316 115.895 178.283 115.929 178.242 115.929C178.2 115.929 178.167 115.895 178.167 115.854C178.167 115.813 178.2 115.779 178.242 115.779Z" fill="#5C5963"/>
<path d="M179.511 116.12C179.547 116.141 179.559 116.187 179.539 116.223C179.518 116.258 179.472 116.271 179.437 116.25C179.401 116.229 179.389 116.184 179.409 116.148C179.43 116.112 179.476 116.1 179.511 116.12Z" fill="#5C5963"/>
<path d="M178.363 115.458C178.399 115.479 178.411 115.525 178.39 115.561C178.37 115.596 178.324 115.609 178.288 115.588C178.252 115.567 178.24 115.522 178.261 115.486C178.281 115.45 178.327 115.438 178.363 115.458Z" fill="#5C5963"/>
<path d="M179.297 116.39C179.317 116.426 179.305 116.472 179.269 116.492C179.233 116.513 179.188 116.501 179.167 116.465C179.146 116.429 179.159 116.383 179.194 116.363C179.23 116.342 179.276 116.354 179.297 116.39Z" fill="#5C5963"/>
<path d="M178.634 115.243C178.655 115.279 178.643 115.325 178.607 115.346C178.571 115.366 178.526 115.354 178.505 115.318C178.484 115.283 178.496 115.237 178.532 115.216C178.568 115.195 178.614 115.208 178.634 115.243Z" fill="#5C5963"/>
<path d="M189.005 114.22C189.717 114.22 190.324 114.678 190.547 115.315H190.31H187.463C187.686 114.678 188.293 114.22 189.005 114.22Z" fill="#1D1B21"/>
<path d="M187.085 115.315C187.321 114.476 188.092 113.858 189.006 113.858C189.92 113.858 190.692 114.476 190.927 115.315C190.974 115.482 191.001 115.658 191.002 115.84H190.64C190.638 115.656 190.606 115.48 190.548 115.315C190.325 114.678 189.718 114.22 189.006 114.22C188.294 114.22 187.687 114.678 187.464 115.315C187.406 115.48 187.374 115.656 187.372 115.84H187.01C187.012 115.658 187.038 115.482 187.085 115.315Z" fill="#C93D06"/>
<path d="M189.006 117.307C188.203 117.307 187.552 116.657 187.552 115.854C187.552 115.052 188.203 114.401 189.006 114.401C189.808 114.401 190.459 115.052 190.459 115.854C190.459 116.657 189.808 117.307 189.006 117.307Z" fill="#312E37"/>
<path d="M189.004 116.827C188.467 116.827 188.031 116.391 188.031 115.854C188.031 115.317 188.467 114.882 189.004 114.882C189.541 114.882 189.977 115.317 189.977 115.854C189.977 116.391 189.541 116.827 189.004 116.827Z" fill="#5C5963"/>
<path d="M188.4 116.459C188.066 116.125 188.066 115.584 188.4 115.25C188.734 114.916 189.275 114.916 189.609 115.25C189.942 115.584 189.942 116.125 189.609 116.459C189.275 116.792 188.734 116.792 188.4 116.459Z" fill="#E9E8ED"/>
<path d="M189.003 116.382C188.711 116.382 188.475 116.146 188.475 115.854C188.475 115.563 188.711 115.326 189.003 115.326C189.295 115.326 189.531 115.563 189.531 115.854C189.531 116.146 189.295 116.382 189.003 116.382Z" fill="#312E37"/>
<path d="M188.927 115.192C188.927 115.151 188.96 115.117 189.001 115.117C189.043 115.117 189.076 115.151 189.076 115.192C189.076 115.234 189.043 115.267 189.001 115.267C188.96 115.267 188.927 115.234 188.927 115.192Z" fill="#5C5963"/>
<path d="M188.927 116.516C188.927 116.475 188.96 116.441 189.001 116.441C189.043 116.441 189.076 116.475 189.076 116.516C189.076 116.558 189.043 116.591 189.001 116.591C188.96 116.591 188.927 116.558 188.927 116.516Z" fill="#5C5963"/>
<path d="M189.271 115.243C189.291 115.208 189.337 115.195 189.373 115.216C189.409 115.237 189.421 115.283 189.4 115.318C189.379 115.354 189.334 115.366 189.298 115.346C189.262 115.325 189.25 115.279 189.271 115.243Z" fill="#5C5963"/>
<path d="M188.608 116.39C188.629 116.354 188.675 116.342 188.711 116.363C188.746 116.383 188.759 116.429 188.738 116.465C188.717 116.501 188.672 116.513 188.636 116.492C188.6 116.472 188.588 116.426 188.608 116.39Z" fill="#5C5963"/>
<path d="M189.54 115.458C189.576 115.438 189.622 115.45 189.642 115.486C189.663 115.522 189.651 115.567 189.615 115.588C189.579 115.609 189.533 115.596 189.513 115.561C189.492 115.525 189.504 115.479 189.54 115.458Z" fill="#5C5963"/>
<path d="M188.392 116.12C188.427 116.1 188.473 116.112 188.494 116.148C188.515 116.184 188.502 116.229 188.466 116.25C188.431 116.271 188.385 116.258 188.364 116.223C188.344 116.187 188.356 116.141 188.392 116.12Z" fill="#5C5963"/>
<path d="M189.665 115.779C189.707 115.779 189.74 115.813 189.74 115.854C189.74 115.896 189.707 115.929 189.665 115.929C189.624 115.929 189.591 115.896 189.591 115.854C189.591 115.813 189.624 115.779 189.665 115.779Z" fill="#5C5963"/>
<path d="M188.341 115.779C188.382 115.779 188.416 115.813 188.416 115.854C188.416 115.896 188.382 115.929 188.341 115.929C188.3 115.929 188.266 115.896 188.266 115.854C188.266 115.813 188.3 115.779 188.341 115.779Z" fill="#5C5963"/>
<path d="M189.615 116.12C189.651 116.141 189.663 116.187 189.642 116.223C189.622 116.258 189.576 116.271 189.54 116.25C189.504 116.229 189.492 116.184 189.513 116.148C189.533 116.112 189.579 116.1 189.615 116.12Z" fill="#5C5963"/>
<path d="M188.466 115.458C188.502 115.479 188.515 115.525 188.494 115.561C188.473 115.596 188.427 115.609 188.392 115.588C188.356 115.567 188.344 115.522 188.364 115.486C188.385 115.45 188.431 115.438 188.466 115.458Z" fill="#5C5963"/>
<path d="M189.4 116.39C189.421 116.426 189.409 116.472 189.373 116.492C189.337 116.513 189.291 116.501 189.271 116.465C189.25 116.429 189.262 116.383 189.298 116.363C189.334 116.342 189.379 116.354 189.4 116.39Z" fill="#5C5963"/>
<path d="M188.738 115.243C188.759 115.279 188.746 115.325 188.711 115.346C188.675 115.366 188.629 115.354 188.608 115.318C188.588 115.283 188.6 115.237 188.636 115.216C188.672 115.195 188.717 115.208 188.738 115.243Z" fill="#5C5963"/>
<path d="M180.682 109.989V112.095L178.996 109.989H180.682Z" fill="#89D7F9"/>
<path d="M192.589 113.769H193V114.507H192.589V113.769Z" fill="#C93D06"/>
<path d="M190.657 115.151C190.657 115.089 190.706 115.038 190.766 115.038H192.84C192.9 115.038 192.949 115.089 192.949 115.151V115.47C192.949 115.532 192.9 115.582 192.84 115.582H190.766C190.706 115.582 190.657 115.532 190.657 115.47V115.151Z" fill="#C93D06"/>
<path d="M180.516 115.151C180.516 115.089 180.421 115.038 180.6 115.038H187.006C187.185 115.038 187.33 115.089 187.33 115.151V115.47C187.33 115.532 187.185 115.582 187.006 115.582H180.809C180.63 115.582 180.516 115.532 180.516 115.47V115.151Z" fill="#C93D06"/>
<path d="M179.751 112.804C179.751 112.737 179.812 112.683 179.886 112.683H180.379C180.453 112.683 180.514 112.737 180.514 112.804C180.514 112.872 180.453 112.926 180.379 112.926H179.886C179.812 112.926 179.751 112.872 179.751 112.804Z" fill="white"/>
<path d="M181.272 112.407H192.576V113.064H181.272V112.407Z" fill="#C93D06"/>
<circle cx="15" cy="113" r="15" fill="#F46F3B" fill-opacity="0.1"/>
<path d="M21.1626 112.209C20.2837 112.574 19.8651 113.586 20.2296 114.465C20.5945 115.344 21.6066 115.763 22.4855 115.398C23.3647 115.033 23.7831 114.021 23.4182 113.142C23.0537 112.263 22.0418 111.845 21.1626 112.209Z" fill="#F46F3B"/>
<path d="M22.8746 111.534C21.7139 110.701 20.7751 110.556 19.9789 111.087C19.1058 110.629 17.4253 109.72 16.4582 109.106L16.8277 108.952C16.8866 108.928 16.9141 108.861 16.8897 108.802L16.5595 108.006C16.5457 107.973 16.517 107.948 16.4823 107.939C16.4479 107.93 16.4088 107.938 16.381 107.961L15.8341 108.402C15.8105 108.421 15.7943 108.45 15.7919 108.48C15.7882 108.511 15.7985 108.542 15.8187 108.566L16.0414 108.826C15.859 108.695 15.7881 108.623 15.7622 108.586C15.6727 108.452 15.4897 108.325 15.1268 108.476C14.7058 108.65 14.2479 109.112 14.2287 109.132C14.1957 109.165 14.1863 109.214 14.2042 109.257L14.3215 109.54C14.3457 109.598 14.4126 109.626 14.4714 109.602L15.2539 109.277L15.8327 109.514C17.4567 110.68 18.2478 111.79 18.1821 112.814C18.1136 113.918 17.0505 114.555 16.9326 114.622C16.9112 114.631 16.8847 114.642 16.8668 114.656C16.8544 114.662 16.8208 114.677 16.7328 114.713C15.9105 115.054 15.1945 115.063 14.6065 114.739C13.6004 114.184 13.2387 112.804 13.1623 112.457L13.3736 112.37C13.6655 112.236 13.8098 112.075 13.801 111.893C13.7839 111.53 13.1522 111.297 13.0798 111.272C13.0529 111.263 13.0238 111.263 12.9977 111.274L8.19017 113.268C8.15248 113.284 8.12564 113.319 8.12021 113.359L7.97633 114.418C7.97331 114.426 7.96901 114.437 7.96971 114.452C7.97553 114.613 8.04052 116.04 8.48703 117.001L8.36575 117.052C8.30706 117.076 8.27906 117.143 8.30346 117.202L8.63362 117.997C8.65802 118.056 8.72511 118.084 8.78384 118.059L9.18442 117.893C9.30061 117.897 9.66018 117.896 9.96159 117.771L9.97653 117.765C9.92946 118.074 9.96709 118.387 10.0857 118.673C10.4506 119.552 11.4626 119.97 12.3417 119.606C13.2211 119.241 13.6393 118.229 13.2744 117.35C13.2218 117.223 13.1542 117.103 13.0729 116.994L13.3553 117.262C13.3879 117.293 13.4364 117.303 13.4786 117.285C19.3988 114.829 19.4622 114.628 19.8157 113.512L19.8209 113.494C19.85 113.403 19.8803 113.308 19.9167 113.203C20.1091 112.653 20.4395 112.297 20.9558 112.083C21.4361 111.884 22.0087 111.831 22.6168 111.777L22.8377 111.757C22.8492 111.756 22.8608 111.754 22.8761 111.747C22.9347 111.723 22.9621 111.655 22.9377 111.596C22.926 111.569 22.9033 111.546 22.8746 111.534ZM16.4059 108.236L16.6332 108.784L16.393 108.884L16.0705 108.506L16.4059 108.236ZM8.23207 114.246L8.33878 113.456L13.0444 111.504C13.2586 111.588 13.5655 111.769 13.5723 111.904C13.5752 111.979 13.4693 112.073 13.2811 112.159L8.23207 114.246Z" fill="#F46F3B"/>
<defs>
<clipPath id="clip0_720_9137">
<rect width="14" height="14" fill="white" transform="translate(99 8.00006)"/>
</clipPath>
</defs>
</svg>
