<svg width="300" height="99" viewBox="0 0 300 99" fill="none" xmlns="http://www.w3.org/2000/svg">
<path fillRule="evenodd" clipRule="evenodd" d="M173.889 0.0748326C173.782 0.182206 166.702 0.396952 158.175 0.558011C149.593 0.719071 142.407 0.880131 142.085 0.880131C141.817 0.880131 141.066 0.826444 140.476 0.772757C139.886 0.665384 135.327 0.826444 130.286 1.04119C125.298 1.30962 118.057 1.57806 114.196 1.73912C110.388 1.84649 105.561 2.06124 103.469 2.22229C101.431 2.38335 97.7841 2.65179 95.4243 2.81285C93.0644 2.92022 89.6856 3.18865 87.9157 3.34971C86.1458 3.51077 84.215 3.56446 83.6251 3.56446C81.3725 3.45709 80.3535 3.45709 79.6026 3.51077C78.9054 3.56446 78.9054 3.61815 79.6026 4.10132C80.0853 4.42344 80.1389 4.63819 79.7635 4.63819C79.4417 4.63819 78.959 4.42344 78.7981 4.10132C78.6372 3.83289 77.94 3.61814 77.2428 3.67183C76.2774 3.7792 76.0629 4.04764 76.2238 4.90662C76.3668 5.58665 76.188 5.62244 75.6874 5.014C74.8293 3.94026 73.1131 3.83289 72.2013 4.74556C71.7722 5.17505 71.3968 5.17506 70.8068 4.69188C70.3242 4.26238 69.9487 4.26238 69.7342 4.5845C69.5197 4.90662 68.9833 4.96031 68.5006 4.79925C67.9107 4.5845 67.7498 4.63819 68.0179 5.06768C68.2325 5.44349 68.1252 5.71192 67.857 5.71192C67.5352 5.71192 67.2671 5.49717 67.2671 5.22874C67.2671 4.5845 65.0681 4.63819 64.21 5.28243C63.8346 5.60455 63.191 5.60455 62.601 5.33611C62.0647 5.06768 61.4211 4.85294 61.0993 4.90662C57.8277 5.33611 52.7326 5.87298 51.6063 5.87298C50.7482 5.87298 50.1046 6.03404 50.1046 6.1951C50.1046 6.51722 46.5112 6.83934 43.5614 6.78565C42.3815 6.78565 42.0597 7.0004 42.0597 7.96676V9.14786L40.987 7.96676C40.1289 7.05408 39.4853 6.83934 38.4126 7.10777C37.6082 7.32252 36.75 7.64464 36.4819 7.85938C36.2673 8.12782 35.1947 8.1815 34.2293 8.02044C33.0494 7.8057 32.4058 7.91307 32.4058 8.34256C32.4058 8.66468 32.0303 8.93311 31.6013 8.93311C31.1722 8.93311 30.7968 8.66468 30.7968 8.34256C30.7968 7.91307 30.5286 7.91307 29.9923 8.39625C29.5632 8.77205 29.3487 9.30892 29.5632 9.63104C29.8314 10.0605 29.9923 10.0605 30.0996 9.63104C30.2605 9.20155 30.7432 9.14786 31.6013 9.46998C32.3521 9.73841 33.0494 9.73841 33.2103 9.52367C33.5857 8.87943 38.3054 8.93311 38.3054 9.57735C38.3054 9.7921 38.6808 10.0068 39.1099 10.0068C39.5389 10.0068 39.9144 9.73841 39.9144 9.41629C39.9144 9.09417 40.3971 8.9868 40.987 9.20155C41.6306 9.41629 42.9178 9.63104 43.9368 9.73841C45.3849 9.84579 45.814 9.68472 45.814 9.04049C45.814 8.34256 45.9212 8.28887 46.243 8.82574C46.7257 9.57735 48.4956 9.14786 49.1392 8.1815C49.4074 7.8057 49.5683 7.8057 49.5683 8.28887C49.5683 8.77205 50.8554 8.93311 54.6634 8.87943C57.5059 8.82574 59.5976 8.61099 59.4367 8.34256C59.1149 7.8057 60.7775 7.96676 61.7965 8.55731C62.172 8.82574 62.4401 8.71837 62.4401 8.34256C62.4401 7.96676 63.1374 7.8057 64.3173 7.96676C65.3363 8.07413 66.1944 8.02044 66.1944 7.8057C66.1944 7.59095 66.5699 7.26883 67.0526 7.10777C67.4816 6.94671 67.7498 7.0004 67.5889 7.26883C67.428 7.53726 67.5889 8.02044 68.0179 8.34256C68.6079 8.82574 68.8224 8.71837 69.0906 7.75201C69.3051 6.83934 69.5197 6.67828 69.8415 7.21514C70.2169 7.69832 70.646 7.75201 71.7186 7.3762C72.7376 7.0004 73.1667 7.0004 73.1667 7.3762C73.1667 7.69832 73.6494 7.8057 74.2393 7.59095C74.7757 7.42989 76.1165 7.48358 77.1891 7.8057C78.6372 8.1815 79.2272 8.12782 79.8172 7.59095C80.3535 7.0004 80.6753 7.0004 81.2116 7.48358C81.7479 8.02044 81.8552 7.91307 81.587 7.16146C81.158 6.03404 81.9088 5.98035 83.0351 7.05408C84.0541 8.07413 84.9123 8.07413 86.1458 6.94671C86.6821 6.46353 87.1112 6.30247 87.1112 6.62459C87.1112 7.32252 95.8534 7.26883 96.336 6.51722C96.6042 6.1951 96.7651 6.1951 96.7651 6.62459C96.7651 7.0004 97.0333 7.32252 97.3551 7.32252C97.6232 7.32252 97.7305 7.10777 97.5696 6.78565C97.4087 6.46353 97.6232 6.40985 98.0523 6.57091C98.535 6.73197 98.9104 7.10777 98.9104 7.3762C98.9104 7.59095 99.2859 7.69832 99.7685 7.48358C100.251 7.32252 100.841 7.48358 101.163 7.91307C101.538 8.44993 101.592 8.34256 101.324 7.42989C101.002 6.24879 101.753 5.76561 102.397 6.78565C102.611 7.10777 102.933 7.21514 103.201 7.05408C103.845 6.62459 114.249 6.57091 114.893 7.0004C115.215 7.16146 115.858 7.16146 116.341 6.94671C117.038 6.73197 117.199 6.83934 117.038 7.3762C116.877 7.85938 116.18 8.07413 115 7.96676C114.035 7.85938 113.069 8.02044 112.909 8.28887C112.748 8.55731 111.943 8.93311 111.139 9.14786C110.012 9.41629 109.637 9.30892 109.637 8.66468C109.637 8.12782 109.154 7.85938 108.189 7.91307L106.687 7.96676L108.028 8.39625C109.262 8.77205 109.262 8.82574 108.189 8.87943C107.545 8.93311 106.848 9.20155 106.687 9.46998C106.473 9.7921 105.99 9.84579 105.454 9.52367C104.971 9.30892 104.166 9.20155 103.737 9.36261C103.04 9.63104 103.04 9.52366 103.684 8.77205C104.274 7.96675 104.274 7.85938 103.576 7.85938C103.094 7.85938 102.611 8.28887 102.45 8.82574C102.182 9.57735 101.699 9.73841 100.305 9.57735C99.3395 9.46998 98.3205 9.63104 98.1596 9.95316C97.8914 10.329 97.4087 10.329 96.4433 9.89947C95.5852 9.52367 94.9416 9.46998 94.7271 9.7921C94.5125 10.0605 91.7236 10.2753 88.452 10.2753C85.1804 10.2753 81.6943 10.49 80.6753 10.8121C78.5836 11.4564 76.1701 10.7585 76.6528 9.63104C76.7601 9.25523 76.6528 8.93311 76.3847 8.93311C76.0629 8.93311 75.8483 9.30892 75.8483 9.73841C75.8483 10.2753 75.312 10.5437 74.1321 10.49C73.1667 10.49 61.2066 10.5974 47.6375 10.7048L22.8591 10.9195L20.8211 12.4764C19.7484 13.3354 18.6758 14.0333 18.5149 14.0333C18.354 14.0333 18.2467 14.1944 18.354 14.4091C18.4076 14.6776 18.2467 14.8386 17.9249 14.8386C17.6568 14.8386 17.3886 15.1071 17.3886 15.4292C17.3886 15.6976 17.6031 15.8587 17.8713 15.6976C18.1394 15.4829 18.2467 15.8587 18.0858 16.3955C17.9249 16.9324 18.0858 17.8988 18.4076 18.4893C18.8367 19.2946 18.8367 19.6167 18.354 19.7778C17.8713 19.9389 17.9249 20.261 18.5685 20.9052C19.6412 21.9789 20.2848 22.0863 19.7484 21.12C19.5339 20.7978 19.5875 20.6905 19.8557 20.9052C21.0893 22.0863 19.373 26.1128 17.6031 26.1128C16.6377 26.1128 16.1014 28.1529 16.7986 29.0119C17.1204 29.3877 17.2277 29.8709 17.0132 30.0856C16.7986 30.2467 16.5841 30.8909 16.4768 31.4815C16.3159 32.7163 18.1931 34.0047 18.783 33.0384C18.9976 32.6089 19.2657 32.6626 19.5875 33.1457C20.2848 34.2195 20.1775 34.7027 19.2657 34.7027C18.8903 34.7027 18.3003 35.0248 18.0858 35.4543C17.8713 35.8838 17.1741 36.2596 16.5841 36.4206C15.726 36.5817 15.5114 37.0112 15.4578 38.8902C15.4578 40.125 15.6723 41.145 15.9941 41.145C16.2623 41.145 16.3159 41.3061 16.155 41.4672C15.6187 42.004 16.7986 43.8294 17.6568 43.8294C19.2657 43.8294 18.2467 45.2252 16.6377 45.3326C16.3696 45.3326 15.9941 45.601 15.7796 45.9231C15.3505 46.7284 16.4232 52.2045 17.2277 53.0098C17.6031 53.3856 20.1239 53.654 23.4491 53.7614C26.5598 53.8151 29.3487 54.0835 29.6705 54.2446C29.9923 54.4593 30.2605 54.4056 30.2605 54.0835C30.2605 53.7614 30.9041 53.654 31.8158 53.8151C32.6739 54.0298 33.5321 53.8688 33.693 53.5466C33.9075 53.2245 33.693 52.9561 33.2103 52.9561C32.7276 52.9561 32.513 52.6877 32.6739 52.4192C33.3175 51.3992 34.4438 51.8824 35.141 53.4393C35.6774 54.6741 35.9992 54.8888 36.5355 54.4593C37.0182 54.0835 37.2327 54.0835 37.2327 54.4593C37.2327 54.7814 38.4126 54.9425 40.3434 54.8888C42.006 54.7814 43.8296 54.8888 44.3659 55.0499C45.3313 55.4257 45.3313 55.4794 44.4731 56.1773C43.9905 56.6068 43.0251 57.1973 42.3815 57.5194C41.5233 57.9489 41.2552 58.5932 41.2015 60.3648C41.1479 61.5996 41.3088 62.7807 41.5233 62.8881C41.7379 63.0492 41.7915 63.7471 41.6306 64.5524L41.3624 65.9482L44.1514 65.6261C46.7257 65.304 46.9403 65.3577 46.6185 66.324C46.1894 67.7736 48.1738 68.1494 49.3537 66.8609C49.8901 66.2704 49.9973 65.8409 49.6755 65.8409C49.3001 65.8409 49.0319 65.6261 49.0319 65.3577C49.0319 65.0892 49.461 64.9282 49.9973 65.0356C50.48 65.1429 51.1772 65.2503 51.5527 65.2503C51.8745 65.304 52.5717 65.6798 53.0008 66.163C53.4835 66.5925 53.8589 66.7535 53.8589 66.4314C53.8589 65.7872 55.0388 65.8945 55.5215 66.5925C55.736 66.8072 56.5405 66.5925 57.3986 66.0556C58.2031 65.4651 58.7395 65.3577 58.5249 65.6798C58.2031 66.163 58.4177 66.3777 59.0613 66.4314C59.5976 66.4314 61.7429 66.4851 63.7809 66.5925C67.9107 66.7535 69.4124 67.183 69.4124 68.3104C69.4124 69.3305 69.9487 69.2768 70.8068 68.0957C71.3968 67.3441 71.5041 67.3441 71.5041 67.9883C71.5041 69.3305 70.3242 70.4042 68.7688 70.5116C66.8917 70.6726 67.1598 70.619 56.8087 71.5316C45.1704 72.5517 28.866 74.5381 27.0425 75.1823C26.6134 75.3434 24.8972 75.5581 23.2882 75.7192C19.5339 76.095 10.6845 77.9203 7.19836 79.0477C5.37485 79.6383 4.57035 80.1752 4.73125 80.6583C4.89215 81.0878 4.73125 81.2489 4.30219 81.0878C3.87313 80.9268 3.39043 81.0878 3.1759 81.3563C3.015 81.6784 2.63957 81.8395 2.37141 81.6784C1.62055 81.1952 -0.52476 85.168 0.118834 85.8123C0.440631 86.1344 0.547896 87.1007 0.386998 87.906C0.226099 88.8187 0.333365 89.4629 0.655162 89.4629C0.923326 89.4629 1.29876 89.8924 1.40602 90.4293C1.56692 90.9662 1.99598 91.4493 2.42504 91.503C2.85411 91.5567 4.89215 91.9325 6.9302 92.3083C9.02188 92.6841 10.7918 92.8452 10.8454 92.5768C10.9527 92.3083 11.6499 92.4694 12.2935 92.8989C13.098 93.4357 13.6879 93.5431 13.9025 93.221C14.0634 92.8989 14.4924 92.6841 14.7606 92.6841C15.0824 92.6841 15.1896 92.8452 15.0824 93.0599C14.9215 93.3284 16.0478 93.5431 17.4959 93.6505C19.5875 93.7579 20.3384 93.5968 20.8747 92.8452C21.2501 92.3083 21.7865 92.0399 22.001 92.3083C22.2155 92.5231 22.1083 92.6841 21.7865 92.6841C21.411 92.6841 21.1429 93.0062 21.1429 93.3821C21.1429 93.9189 22.6446 94.1337 27.4716 94.1874C30.9041 94.241 34.3366 94.4021 35.0338 94.5632C36.8037 94.8853 38.8953 94.2947 38.5199 93.5431C38.359 93.221 38.5735 93.3821 39.0026 93.9189C39.6998 94.7779 40.5043 94.8853 44.3123 94.7779C46.7257 94.7242 49.1928 94.4558 49.6755 94.1874C50.2119 93.9189 50.6945 93.9726 50.9091 94.2947C51.2309 94.7779 55.6288 94.5632 56.5942 93.9726C56.8623 93.8116 57.0769 93.8652 57.0769 94.1337C57.0769 94.3484 59.2222 94.6169 61.8502 94.6169C66.3017 94.7242 66.6771 94.6169 66.9989 93.5431C67.3207 92.5768 67.428 92.5231 67.6425 93.3821C67.7498 93.9189 68.2861 94.241 68.7688 94.1874C70.0023 93.9726 70.5923 93.0599 69.7878 92.5768C68.3934 91.7178 70.1096 91.503 71.6113 92.362C72.4695 92.8989 73.5421 93.1673 73.9712 93.0062C74.5075 92.8452 74.6148 93.0062 74.4539 93.6505C74.293 94.1337 74.6684 93.6505 75.2584 92.5768C76.0629 91.1272 76.6528 90.6441 77.2964 90.9125C77.8327 91.1272 78.0473 91.0199 77.7791 90.6441C77.4037 90.0535 78.3691 89.1408 78.9054 89.624C79.3345 90.1072 77.7791 91.8788 76.921 91.8788C76.4919 91.8788 76.0629 92.4157 75.9556 93.0599C75.8483 93.7579 76.0629 94.2947 76.3847 94.2947C76.7601 94.2947 76.921 93.9189 76.7065 93.4894C76.4919 92.8452 76.5992 92.7915 77.4037 93.221C78.1545 93.5968 78.53 93.5431 78.6909 93.0599C78.8518 92.5768 79.1199 92.5768 79.6563 93.0062C80.6753 93.7579 84.1078 93.9726 83.6251 93.221C83.4642 92.9526 83.5714 92.6841 83.9469 92.6841C84.3759 92.6841 84.3759 92.4694 83.8396 91.8251C83.196 91.0735 83.0888 91.1272 82.6597 92.2546C82.3379 93.0063 82.0697 93.221 81.9088 92.7915C81.7479 92.3083 81.4261 92.2546 80.9971 92.6304C80.5144 93.0599 80.2999 92.9526 80.2999 92.2546C80.2999 91.1809 82.3379 89.2482 82.767 89.8924C82.9279 90.1609 83.5178 90.483 84.0541 90.6977C84.5368 90.8588 84.9659 91.3957 84.9659 91.8788C84.9659 92.3083 85.2341 92.6841 85.5022 92.6841C85.824 92.6841 86.0386 92.201 86.0386 91.6104C86.0386 90.9125 86.3067 90.644 86.843 90.8588C87.3794 91.0735 87.4866 91.3957 87.1648 91.8251C86.843 92.2546 87.0576 92.4157 87.9693 92.4694C88.6666 92.5231 89.2565 92.3083 89.2565 92.0399C89.2565 91.7178 89.632 91.7715 90.061 92.1473C90.7046 92.6841 90.7582 92.9526 90.2756 93.2747C89.9001 93.4894 90.5973 93.5968 91.8309 93.5968C93.7617 93.4894 94.0298 93.3284 93.7617 92.4694C93.4935 91.6641 93.6008 91.503 94.298 91.7715C94.7807 91.9862 95.1561 91.8788 95.1561 91.6104C95.1561 91.2883 94.9416 91.0735 94.6198 91.0735C94.3516 91.0735 94.0835 90.6977 94.0835 90.2682C94.0835 89.0335 94.7271 89.3019 96.4969 91.342C97.945 93.0063 99.4468 93.9726 98.6959 92.7378C98.2668 92.0399 99.9294 91.5567 100.948 92.0399C102.182 92.6304 104.059 92.4157 105.078 91.6104C106.526 90.4293 105.346 89.9998 103.469 91.0735C101.967 91.9325 101.592 91.9862 101.592 91.342C101.592 90.6977 101.324 90.6977 100.144 91.1272C98.4814 91.7178 97.3014 91.4493 97.3014 90.3756C97.3014 89.8387 97.7305 89.6777 98.6423 89.8924C99.3931 89.9998 99.9831 89.8924 99.9831 89.5703C99.9831 89.2482 100.68 89.0334 101.592 89.0871C102.45 89.1408 103.201 89.3019 103.201 89.4629C103.201 89.8388 105.99 89.6777 107.116 89.1945C107.653 88.9798 108.403 89.0871 108.886 89.5166C109.637 90.1072 109.852 90.1072 110.388 89.3019C110.924 88.6576 111.246 88.604 111.675 89.0334C112.158 89.5166 112.64 89.5166 113.606 89.0334C114.464 88.6576 115.108 88.604 115.268 88.9261C115.483 89.2482 115.376 89.4629 115.108 89.4629C114.518 89.4629 114.625 91.9325 115.215 92.5231C115.483 92.7378 115.537 92.6841 115.376 92.362C115.161 91.9862 115.483 91.6104 116.127 91.4493C116.931 91.2346 117.146 91.342 116.931 91.8788C116.717 92.4694 116.931 92.5231 117.843 92.201C118.486 91.9862 119.345 91.8788 119.774 92.0399C120.417 92.2546 120.417 92.201 119.774 91.4493C119.345 91.0199 118.969 90.8588 118.862 91.1272C118.755 91.3957 118.433 91.6104 118.165 91.6104C117.843 91.6104 117.789 91.342 118.004 90.9662C118.218 90.644 118.165 90.5367 117.789 90.7514C116.877 91.2883 116.556 90.2682 117.36 89.1408C118.057 88.2281 118.272 88.2282 119.505 88.9261C120.417 89.3556 120.739 89.8387 120.417 90.1609C120.095 90.483 120.149 90.9662 120.632 91.3957C121.543 92.3083 124.118 91.503 124.118 90.3219C124.118 89.9461 124.493 89.4093 124.922 89.2482C125.405 89.0871 125.727 89.1945 125.673 89.624C125.512 90.9125 125.727 91.6104 126.317 91.6104C126.585 91.6104 126.692 91.2883 126.478 90.9125C126.263 90.5904 126.531 90.644 127.121 91.1272C127.658 91.5567 128.462 91.8788 128.838 91.8251C129.159 91.7715 129.857 91.7178 130.286 91.6641C130.715 91.6641 131.09 91.2346 131.09 90.8051C131.09 89.7314 131.948 89.7851 132.377 90.8588C132.645 91.6104 132.753 91.6104 133.557 90.8588C134.469 89.8924 135.649 89.6777 135.113 90.5367C134.952 90.8051 135.273 91.0735 135.863 91.0735C136.453 91.0735 137.043 90.8588 137.204 90.6441C137.472 90.1609 139.725 90.1609 140.529 90.6441C140.798 90.8051 142.407 90.9662 144.123 91.0199C146.322 91.0735 147.287 90.8588 147.502 90.3219C147.663 89.8924 148.199 89.6777 148.682 89.7851C149.164 89.8924 150.344 89.7851 151.202 89.5166C152.239 89.1945 152.329 88.9977 151.471 88.9261C150.72 88.8724 149.593 88.8187 148.95 88.765C148.092 88.765 147.716 88.4429 147.716 87.7987C147.716 87.2081 148.092 86.7786 148.574 86.7786C149.003 86.7786 149.218 86.9934 149.057 87.3155C148.682 87.906 150.022 88.0671 150.559 87.4765C150.881 87.1544 155.278 87.0471 156.566 87.3155C157.585 87.5302 158.389 87.3155 159.194 86.4565C159.998 85.7049 160.105 85.7049 160.374 86.4565C160.749 87.3692 161.983 87.6376 162.304 86.8323C162.412 86.5639 162.894 86.6176 163.431 87.0471C164.289 87.6376 164.289 87.7987 163.538 88.5503C163.109 89.0334 162.733 89.5703 162.733 89.8387C162.787 90.0535 163.323 89.5703 164.021 88.7113C165.093 87.4229 165.415 87.3155 166.38 87.7987C167.292 88.2818 167.453 88.2818 167.292 87.6913C167.078 87.2618 167.453 86.9934 168.204 86.9397C168.901 86.886 169.169 86.9934 168.901 87.2081C167.775 88.0134 168.258 88.6576 170.027 88.7113C171.207 88.7113 171.905 88.4429 172.119 87.906C172.28 87.3155 173.138 86.9934 174.64 86.886C175.927 86.8323 177.053 86.5102 177.107 86.2418C177.322 85.5975 178.823 85.5438 178.823 86.1344C178.823 86.7786 176.195 87.9597 175.605 87.5839C175.337 87.4229 174.854 87.7987 174.533 88.3892C174.05 89.3556 174.104 89.4629 175.337 89.4629C176.142 89.4629 176.624 89.2482 176.41 88.9798C176.249 88.6576 176.571 88.1745 177.161 87.8523C177.858 87.4765 178.341 87.4765 178.555 87.8523C178.716 88.1208 179.145 88.3892 179.467 88.3892C179.842 88.3892 179.789 88.1208 179.413 87.6376C178.716 86.7786 179.52 85.9196 180.432 86.5102C180.754 86.7249 180.915 86.5639 180.861 86.1881C180.7 85.4901 184.616 85.1143 185.045 85.8123C185.206 86.0807 185.849 85.9733 186.493 85.5975C188.424 84.5238 189.603 84.6311 189.228 85.8123C188.96 86.7249 189.067 86.7786 190.033 86.2954C190.676 85.9196 191.159 85.8123 191.159 86.027C191.159 86.1881 191.481 86.1344 191.856 85.8123C192.285 85.4365 192.714 85.4901 193.197 86.027C193.84 86.7249 193.626 86.9934 192.661 86.8323C192.392 86.8323 192.231 87.1544 192.231 87.5839C192.231 88.5503 193.626 88.6576 194.001 87.6913C194.162 87.3155 194.323 87.4229 194.323 87.9597C194.377 88.9798 195.342 89.1408 197.434 88.604L198.667 88.2818L197.595 86.7786C196.2 84.7922 196.254 84.4701 197.97 84.8996C199.257 85.2217 199.311 85.168 198.614 84.309C197.917 83.4501 197.97 83.45 199.204 84.148C200.169 84.6848 202.743 84.8996 208.589 84.8996C216.473 84.8996 216.634 84.8996 217.224 86.1881L217.868 87.4229L218.243 86.2418C218.458 85.5975 218.726 85.2217 218.887 85.3828C219.101 85.5438 219.531 85.2754 219.96 84.7385C220.389 84.2553 220.55 84.148 220.335 84.5775C220.013 85.168 220.174 85.2754 220.979 84.8996C221.515 84.6848 222.534 84.5238 223.178 84.5238C223.821 84.5775 224.518 84.3627 224.679 84.0943C225.216 83.2353 226.02 83.4501 225.698 84.3627C225.484 84.7922 225.645 85.168 225.966 85.168C226.288 85.168 226.556 84.9533 226.556 84.6848C226.556 84.4164 227.146 84.2553 227.897 84.3627C228.648 84.4164 229.238 84.2553 229.238 83.9332C229.238 83.6648 229.614 83.7722 230.15 84.148C230.74 84.6848 231.062 84.7385 231.222 84.309C231.33 83.9332 231.866 83.7722 232.402 83.9332C232.885 84.0406 233.636 83.7722 234.011 83.3427C234.44 82.8595 234.977 82.4837 235.299 82.4837C235.62 82.4837 235.406 82.8058 234.87 83.2353C233.904 83.9332 233.904 83.9869 235.138 83.8259C235.889 83.7185 236.961 83.4501 237.498 83.2353C238.248 82.9669 238.409 83.0206 238.141 83.45C237.551 84.4164 239.536 84.2553 240.984 83.1816C241.735 82.6984 242.11 82.5911 241.895 82.9132C241.627 83.3427 242.11 83.5037 243.451 83.45C244.577 83.3964 245.596 83.0206 245.864 82.5374C246.132 82.0542 246.401 81.9468 246.401 82.2689C246.401 82.6447 247.42 82.8595 248.868 82.8058C252.461 82.7521 250.53 81.6247 246.561 81.4636C244.845 81.41 242.593 81.1415 241.574 80.8731C240.555 80.6047 237.283 80.3362 234.333 80.3362C231.383 80.2825 228.058 80.0141 226.986 79.7457C225.43 79.3699 224.572 79.4236 223.338 80.0678C221.998 80.7657 221.783 80.7657 222.051 80.0678C222.319 79.4772 221.998 79.3699 220.55 79.5846C218.404 79.9067 218.78 79.9604 212.88 79.3699C210.252 79.1551 207.302 79.1014 206.337 79.3162C205.371 79.5309 204.513 79.5309 204.352 79.3699C203.977 78.9941 200.384 78.9941 200.008 79.3699C199.847 79.5309 198.828 79.4772 197.702 79.3162C196.629 79.1014 194.43 79.1014 192.875 79.2625C191.32 79.4772 189.979 79.4772 189.818 79.3699C189.603 79.1551 182.792 79.0478 181.773 79.2625C181.505 79.3162 181.022 79.3162 180.7 79.2625C180.218 79.1551 176.195 79.2625 169.438 79.5309C166.702 79.6383 149.218 80.1752 135.649 80.551C131.519 80.6583 128.14 80.7657 128.14 80.8194C128.14 81.0341 113.767 81.41 104.917 81.4636C99.8758 81.5173 95.5852 81.6784 95.4243 81.8931C95.317 82.1079 93.3326 82.2153 91.08 82.1079C88.0766 81.9468 86.7894 82.1079 86.5213 82.5911C86.2531 82.9669 86.0386 83.0206 86.0386 82.6984C86.0386 82.3763 84.6441 82.2153 82.177 82.3226C80.0317 82.3763 74.3466 82.4837 69.5197 82.4837C62.8156 82.4837 60.8848 82.6447 61.2066 83.1816C61.4747 83.6648 61.3675 83.6648 60.7775 83.2353C60.3484 82.9132 56.8087 82.6984 51.7136 82.7521C47.1548 82.8058 42.9178 82.6448 42.3278 82.43C41.5233 82.1079 41.7915 82.0005 43.4005 81.9468C45.0095 81.9468 45.3313 81.7858 44.7413 81.41C44.2586 81.0878 44.205 80.8731 44.5804 80.8731C44.9022 80.8731 45.3849 81.0878 45.5458 81.41C45.7067 81.6784 46.4576 81.9468 47.2084 81.9468C48.1738 81.9468 48.4956 81.6247 48.5492 80.712C48.5492 79.5846 48.6029 79.5846 49.0319 80.6047C49.3537 81.3026 49.5146 81.41 49.5146 80.8731C49.5683 80.1752 49.6755 80.1752 50.051 80.8194C50.48 81.4636 51.0163 81.5173 52.5717 81.0878C54.6097 80.6047 55.5215 79.5309 54.2879 79.1014C53.9125 78.9941 54.0198 78.9404 54.5561 78.9941C55.6288 79.2088 55.7897 78.4035 54.8243 77.974C54.4488 77.813 55.0924 77.7593 56.2724 77.813C57.9886 77.9203 58.4713 78.1351 58.5786 79.0477C58.6858 79.9067 59.0076 80.1215 59.8121 79.9604C60.992 79.6383 61.0993 79.2088 60.1876 78.2961C59.3831 77.4908 59.8658 77.0077 60.992 77.4371C61.4747 77.5982 61.7965 78.2424 61.7429 78.8867C61.6893 79.692 61.9038 80.0141 62.4401 79.853C62.8692 79.692 63.781 79.5846 64.4245 79.5846C65.1754 79.5309 65.7117 79.1014 65.9263 78.2961C66.0872 77.6519 66.5699 77.115 66.9453 77.115C67.3743 77.115 68.0716 76.7392 68.5006 76.3097C69.1979 75.6655 69.3051 75.7729 69.6269 77.2761L70.0024 78.9941L70.646 77.6519C71.1286 76.6855 71.7722 76.3097 72.7913 76.3097C73.5957 76.3634 74.2393 76.2024 74.2393 75.9876C74.2393 75.7729 74.7757 75.7192 75.3656 75.8802C76.1701 76.095 76.8137 75.8802 77.2428 75.236C77.6718 74.6455 77.9936 74.4844 77.9936 74.8065C77.9936 75.1286 78.3691 75.5581 78.7981 75.7192C79.3345 75.9339 79.6026 75.7729 79.4954 75.236C79.3881 74.8602 79.6026 74.5381 79.8708 74.5918C80.1926 74.6454 80.3535 74.8602 80.2462 75.0749C80.0853 75.6655 80.568 75.6118 81.7479 74.9676C82.9278 74.3233 85.5022 75.1286 85.5022 76.095C85.5022 76.5245 85.2877 76.5782 84.805 76.095C84.2687 75.6655 84.0541 75.7192 84.0541 76.2561C84.0541 76.6855 84.5368 77.1687 85.0732 77.2761C85.9849 77.5445 86.2531 77.115 86.0386 75.5581C85.9849 75.0749 86.2531 74.9139 86.7894 75.1286C87.2185 75.2897 87.7548 75.236 87.9693 74.9139C88.1302 74.5918 89.0956 74.4844 90.1146 74.5918C91.1337 74.7528 91.9918 74.5918 92.1527 74.216C92.3136 73.8401 92.689 73.9475 93.1717 74.5381C93.9762 75.5581 94.888 75.8802 94.3516 74.9676C94.1907 74.6455 94.298 74.4307 94.6198 74.4307C94.9416 74.4307 95.1561 74.8602 95.0489 75.3434C94.9416 76.0413 95.3707 76.3097 96.926 76.4171C98.1596 76.5245 98.8568 76.4171 98.6959 76.095C98.4814 75.8266 98.5886 75.3971 98.9104 75.236C99.2322 75.0213 99.3931 75.0749 99.3395 75.3434C99.2322 75.5581 99.4467 75.8266 99.7149 75.9339C100.037 75.9876 100.251 75.6118 100.305 75.0213C100.359 74.4844 100.519 73.7865 100.734 73.4107C101.27 72.5517 102.128 73.1959 101.753 74.1623C101.592 74.6455 101.807 74.9676 102.343 74.9676C102.826 74.9676 103.201 74.5918 103.201 74.1086C103.201 73.6791 103.469 73.4643 103.791 73.6791C104.113 73.8401 104.595 73.7328 104.81 73.357C105.078 72.9812 105.936 72.6054 106.794 72.498C108.028 72.3369 108.35 72.5517 108.403 73.4107C108.564 75.4508 109.583 75.2897 110.334 73.1422C110.388 72.8738 111.139 72.659 111.943 72.659C112.748 72.659 113.23 72.498 113.069 72.2296C112.909 71.9611 113.069 71.7464 113.391 71.7464C113.767 71.7464 113.874 72.1222 113.713 72.6054C113.552 73.0885 113.391 73.518 113.391 73.6254C113.391 73.7328 112.801 73.7328 112.05 73.5717C111.085 73.4107 110.817 73.518 111.031 74.1086C111.514 75.3971 113.23 75.6655 115.054 74.7528C116.18 74.216 117.038 74.0549 117.628 74.4307C118.325 74.7528 118.701 74.5918 119.184 73.8402C119.72 72.9812 119.666 72.8201 119.023 72.8201C118.594 72.8201 118.218 72.6054 118.218 72.3369C118.218 71.639 119.72 71.1558 120.095 71.8001C120.31 72.0685 120.632 72.1759 120.953 72.0148C121.436 71.6927 129.267 70.9948 131.519 71.0485C132.163 71.1021 132.699 70.8874 132.699 70.6727C132.699 69.8137 134.898 69.7063 136.453 70.5116C138.438 71.478 138.438 71.5853 136.614 71.639C135.756 71.639 134.523 71.8001 133.772 71.9074C133.021 72.0148 132.163 71.9074 131.841 71.639C131.466 71.3706 131.09 71.4779 130.929 71.9611C130.715 72.498 131.197 72.7664 132.592 72.9275C133.664 73.0885 134.63 72.9812 134.737 72.7664C134.844 72.5517 135.22 72.4443 135.649 72.6054C136.024 72.7664 136.882 72.6054 137.526 72.2832C138.331 71.8538 138.867 71.8538 139.35 72.2832C139.886 72.7127 140.154 72.659 140.422 72.0148C140.583 71.5853 140.476 71.2095 140.208 71.2095C139.886 71.2095 139.671 70.9948 139.671 70.7263C139.671 70.4579 140.637 70.1358 141.87 70.0284C143.801 69.8673 144.123 69.9747 144.552 71.1021C144.82 71.8001 145.303 72.1759 145.571 72.0148C146 71.7464 145.946 71.4243 145.517 70.8874C144.713 69.921 145.249 69.3305 146.965 69.3305C148.306 69.2768 148.682 69.8137 147.716 70.4042C147.448 70.5653 147.18 71.0484 147.234 71.3706C147.234 71.8537 147.341 71.8537 147.502 71.3706C147.663 70.9948 148.145 70.8874 148.628 71.0485C149.164 71.2632 149.379 71.1558 149.111 70.78C148.628 70.0284 149.701 69.4379 152.007 69.2231C153.026 69.1694 154.903 68.9547 156.137 68.7936C157.37 68.6862 158.55 68.7936 158.711 69.0621C158.872 69.3305 159.355 69.4379 159.784 69.2231C160.374 69.0084 160.481 69.1694 160.266 69.8137C159.837 70.9411 160.91 70.9411 161.554 69.8137C161.983 69.0084 162.09 69.0084 162.358 69.8137C162.787 70.8874 163.806 70.9411 163.806 69.8674C163.806 69.4379 163.592 69.0621 163.27 69.0621C163.002 69.0621 162.733 68.7936 162.733 68.4715C162.733 68.2031 163.002 68.0957 163.27 68.2568C163.592 68.4178 163.806 68.2568 163.806 67.881C163.806 67.2904 163.913 67.2904 164.289 67.881C164.503 68.3104 165.201 68.5252 165.737 68.4178C166.488 68.3104 166.756 68.5252 166.649 69.3305C166.595 70.2968 166.649 70.2968 167.239 69.4915C167.721 68.8473 168.097 68.7399 168.794 69.1157C169.384 69.4915 169.706 69.4915 169.706 69.1157C169.706 68.8473 170.188 68.7399 170.778 68.901C171.583 69.1157 171.797 69.0084 171.583 68.4178C171.315 67.7736 171.744 67.6125 173.675 67.6125C176.41 67.6125 176.356 67.5588 175.552 69.2231C175.23 69.9389 175.301 70.0284 175.766 69.4915C176.195 68.9547 176.732 68.7399 176.946 68.9547C177.214 69.1694 177.214 68.8473 177 68.3104C176.732 67.5051 176.785 67.3978 177.375 67.881C177.804 68.2568 178.341 68.3104 178.555 68.0957C178.823 67.881 178.823 68.042 178.609 68.3641C178.126 69.2231 180.218 69.3305 180.7 68.5252C180.861 68.2031 180.754 67.9883 180.379 67.9883C179.95 67.9883 179.95 67.7736 180.486 67.1293C181.076 66.3777 181.183 66.3777 181.612 67.1293C181.88 67.6125 182.578 67.9883 183.114 67.9883C183.704 67.9883 184.187 68.2031 184.187 68.5252C184.187 68.7936 184.455 69.0621 184.723 69.0621C185.098 69.0621 185.098 68.7399 184.723 67.9883C184.401 67.3978 184.24 66.8609 184.294 66.8609C184.669 66.6998 187.887 66.3777 190.891 66.163C192.929 66.0556 194.27 66.2167 194.484 66.5925C195.128 67.5588 194.967 67.9883 194.109 67.6662C193.68 67.4515 193.465 67.0757 193.68 66.7535C193.894 66.4314 193.733 66.3777 193.25 66.6998C192.285 67.3441 189.925 67.3441 189.496 66.6998C189.282 66.4314 188.906 66.6998 188.584 67.2367C188.102 68.2031 188.263 68.2568 191.588 68.2031C194.859 68.1494 195.181 68.042 195.074 67.0756C194.967 66.163 195.449 65.9482 198.238 65.4114C200.008 65.0892 201.724 64.9282 201.993 65.0892C202.261 65.2503 202.797 65.1429 203.226 64.7671C203.763 64.3376 204.245 64.3376 205.05 64.7671C205.693 65.0893 206.176 65.1429 206.176 64.8208C206.176 64.5524 207.302 64.1766 208.75 63.9618C210.145 63.7471 211.539 63.3713 211.861 63.1028C212.236 62.8344 212.88 63.0492 213.685 63.8008C214.65 64.7134 215.079 64.8208 215.884 64.3376C216.42 63.9618 217.332 63.6934 217.814 63.6934C218.404 63.6934 218.029 64.1229 216.903 64.7134C215.615 65.4114 214.757 65.5724 214.114 65.2503C213.47 64.8745 212.773 64.9819 211.915 65.5724C211.217 66.0019 210.467 66.2167 210.198 66.0019C209.984 65.7335 209.93 65.8409 210.145 66.2167C210.306 66.5388 210.091 66.9146 209.555 67.0756C208.75 67.2904 208.75 67.3441 209.716 67.3978C210.306 67.3978 211.11 67.1293 211.486 66.7535C212.076 66.2167 212.183 66.2167 211.861 66.7535C211.325 67.7199 211.968 67.6125 212.987 66.6462C213.631 66.0019 213.953 65.9482 214.543 66.4314C215.133 66.9146 215.562 66.8609 216.313 66.163C216.903 65.6261 217.761 65.304 218.351 65.4114C218.887 65.5187 219.262 65.304 219.209 64.8745C218.994 63.9618 219.96 64.0692 220.335 65.0892C220.55 65.6261 220.442 65.7872 220.013 65.5187C219.638 65.304 219.584 65.3577 219.799 65.7872C220.121 66.2704 220.55 66.2167 221.515 65.6261C223.017 64.6061 224.25 64.5524 224.572 65.4114C224.733 65.7872 224.894 65.4651 224.894 64.6061C224.947 63.6934 225.216 63.1565 225.752 63.1565C226.181 63.1565 226.556 62.9418 226.556 62.6197C226.556 62.3512 228.005 62.1365 229.935 62.2439C232.402 62.3512 233.261 62.566 233.261 63.1565C233.261 63.586 233.69 64.0155 234.172 64.1229C234.923 64.284 235.03 64.0692 234.762 63.3713C234.494 62.6734 234.601 62.5123 235.299 62.7807C235.889 62.9955 236.21 62.8344 236.21 62.4049C236.21 61.9217 236.639 61.7607 237.551 61.9217C238.677 62.1902 238.731 62.2976 238.087 62.9955C237.658 63.425 237.283 63.8008 237.283 63.9081C237.283 63.9618 239.107 63.9618 241.359 63.9081C244.202 63.8545 245.65 63.6397 246.186 63.0492C246.937 62.2976 246.883 62.1902 245.596 61.9754C244.684 61.7607 244.094 61.9217 243.88 62.4049C243.504 63.4787 241.037 63.3713 241.037 62.2976C241.037 61.8681 240.823 61.6533 240.501 61.8144C240.233 61.9754 239.965 61.8681 239.965 61.5996C239.965 61.0091 240.555 60.848 241.466 61.1164C241.681 61.2238 241.788 61.4386 241.681 61.6533C241.52 62.2976 243.075 62.1902 243.451 61.5459C244.094 60.4722 246.776 60.9554 247.741 62.2976C248.546 63.3713 248.921 63.5323 249.779 63.0492C250.316 62.7807 251.281 62.6197 251.817 62.7807C252.461 62.9418 252.837 62.7807 252.837 62.3512C252.837 61.7607 253.158 61.707 254.338 62.1365C255.733 62.6197 258.682 62.5123 261.15 61.9217C261.74 61.7607 263.027 61.5996 263.992 61.5996C264.958 61.5459 265.655 61.3312 265.494 61.0628C265.333 60.848 265.762 60.7406 266.406 60.848C268.229 61.1701 269.141 60.3111 268.444 58.969C267.907 57.9489 268.015 57.7342 269.463 56.9826C270.374 56.4994 271.34 56.2847 271.554 56.4457C271.823 56.6068 272.198 56.392 272.305 56.0699C272.52 55.533 272.627 55.533 272.627 56.0699C272.681 56.4994 272.949 56.6068 273.378 56.3383C273.7 56.1236 274.772 55.9088 275.63 55.8552C276.542 55.8552 278.419 55.6404 279.814 55.4257C281.852 55.1035 282.335 54.8351 282.12 54.1909C281.905 53.654 282.013 53.493 282.442 53.654C282.817 53.8151 283.514 54.0835 283.997 54.2983C284.48 54.4593 285.231 54.2983 285.606 53.8688C286.035 53.493 287.161 53.2245 288.127 53.2782C289.468 53.3856 289.843 53.2245 289.629 52.6877C289.36 51.9897 290.165 51.8824 291.238 52.5803C291.613 52.795 291.988 52.4729 292.149 51.8287C292.364 51.0234 292.257 50.8086 291.72 51.0234C291.238 51.1844 291.077 51.0234 291.238 50.5402C291.559 49.7349 294.724 47.4801 296.976 46.46C297.781 46.0842 298.424 45.601 298.424 45.3863C298.424 45.1179 298.853 45.0642 299.39 45.2252C300.194 45.4937 300.194 45.44 299.443 44.7957C299.014 44.4199 298.478 43.6683 298.263 43.1315C298.049 42.5946 297.62 42.3261 297.352 42.4872C297.03 42.702 296.494 42.6483 296.118 42.3798C295.475 41.843 294.831 41.8967 286.357 42.4335C283.997 42.5409 279.17 42.8093 275.63 42.9704C272.091 43.1315 267.746 43.3999 265.977 43.5609C264.207 43.722 260.238 43.9367 257.127 44.0441C249.887 44.2589 234.977 44.9031 229.774 45.2252C227.575 45.3326 224.626 45.44 223.178 45.44C221.729 45.44 220.174 45.6547 219.638 45.9768C218.941 46.3526 218.458 46.3526 218.243 45.9768C218.082 45.7084 217.224 45.44 216.366 45.44C215.508 45.44 214.65 45.7084 214.489 45.9768C214.275 46.3526 213.845 46.3526 213.148 45.9768C211.915 45.3326 209.877 45.2252 210.842 45.8695C211.217 46.0842 209.394 46.2453 206.82 46.1916C204.245 46.1379 201.832 46.299 201.51 46.6211C201.027 46.9969 200.545 46.9432 199.901 46.46C199.15 45.8158 199.043 45.8158 199.472 46.46C199.794 46.9969 199.686 47.1043 199.15 46.7821C198.292 46.1916 196.629 46.1916 195.289 46.7821C194.752 46.9969 194.216 47.0506 194.055 46.8895C193.84 46.7285 193.143 46.8358 192.392 47.1043C191.641 47.3727 190.837 47.4264 190.515 47.2653C189.764 46.7821 184.079 46.5674 183.382 46.9432C182.738 47.319 176.732 47.1579 176.088 46.7284C175.82 46.5674 175.605 46.7284 175.605 46.9969C175.605 47.319 175.337 47.5874 175.015 47.5874C174.747 47.5874 174.586 47.3727 174.801 47.1043C174.962 46.7821 173.835 46.6748 172.012 46.8358C170.296 46.9969 166.863 47.1579 164.342 47.2116C161.393 47.2653 159.515 47.5874 159.033 48.0169C158.443 48.6075 158.175 48.6075 157.906 48.0706C157.638 47.7485 157.102 47.5874 156.566 47.7485C156.083 47.9632 155.815 47.9096 156.029 47.5874C156.244 47.2653 155.654 47.0506 154.742 47.0506C153.884 47.0506 153.026 46.8358 152.865 46.6211C152.758 46.4063 153.455 46.299 154.474 46.4063C155.493 46.5137 156.298 46.4063 156.298 46.0842C156.298 45.7621 155.815 45.6547 155.225 45.8158C153.669 46.2453 153.83 44.581 155.493 43.5073C156.566 42.8093 156.995 42.7556 157.638 43.2925C158.175 43.722 158.443 43.7757 158.443 43.3999C158.443 43.0778 158.818 42.9167 159.247 43.0778C159.676 43.2925 160.374 43.1851 160.749 42.863C161.124 42.5409 162.304 42.4872 163.538 42.702C165.147 42.9704 165.683 43.2925 165.63 44.0441C165.576 44.5273 165.683 44.8494 165.844 44.6884C166.005 44.5273 166.488 44.6884 166.917 45.0642C167.56 45.5473 167.775 45.5473 167.936 45.0105C168.204 44.3126 169.706 44.0978 169.706 44.7957C169.706 45.6547 172.548 45.3863 173.835 44.3662C174.586 43.7757 174.962 43.2925 174.64 43.2925C174.372 43.2925 173.996 42.9167 173.835 42.5409C173.621 41.9503 173.782 41.843 174.372 42.0577C174.962 42.2725 175.123 42.1651 174.854 41.7893C174.586 41.3598 174.854 41.145 175.552 41.145C176.195 41.145 176.732 41.3598 176.732 41.6819C176.785 41.9503 176.892 42.4335 176.946 42.7556C177 43.0241 177.107 43.4536 177.161 43.6683C177.214 44.0441 179.36 41.6819 179.36 41.145C179.36 40.9303 179.735 40.7692 180.164 40.7692C180.593 40.7692 180.754 41.0377 180.593 41.3061C180.379 41.6282 180.593 41.7356 181.129 41.5209C181.612 41.3598 182.148 41.4135 182.309 41.6819C182.524 42.004 183.06 42.004 183.704 41.6282C184.294 41.3598 185.045 41.1987 185.42 41.3598C185.903 41.5209 185.903 41.6282 185.42 41.6282C185.045 41.6819 184.723 41.8967 184.723 42.1114C184.723 42.863 188.477 42.3261 189.335 41.4135C190.14 40.6619 190.247 40.6619 190.891 41.4672C191.373 42.2188 191.91 42.2725 193.626 41.8967C194.752 41.6819 196.039 41.4672 196.415 41.5209C196.951 41.5745 196.951 41.4135 196.468 40.8229C195.986 40.2324 195.986 40.0713 196.468 40.0713C196.844 40.0713 196.951 39.8029 196.79 39.5345C196.629 39.2123 196.629 38.9976 196.898 38.9439C197.112 38.9439 198.238 38.8365 199.365 38.7292C200.491 38.6218 201.993 38.407 202.797 38.246C203.977 37.9239 204.084 37.9775 203.387 38.6755C202.851 39.1586 202.1 39.3197 201.349 39.1586C200.384 38.8902 200.223 38.9976 200.545 39.5881C200.92 40.1787 200.866 40.2324 200.223 39.6955C199.686 39.266 199.204 39.2123 198.667 39.6418C198.024 40.0713 198.024 40.125 198.775 39.8566C199.311 39.6955 199.847 39.8566 200.062 40.125C200.223 40.4471 200.974 40.5545 201.671 40.3934C202.529 40.1787 203.065 40.2861 203.28 40.7692C203.602 41.6819 207.839 41.7893 208.429 40.8766C208.697 40.5545 208.858 40.6619 208.858 41.145C208.858 41.843 208.911 41.843 209.394 41.145C209.823 40.5008 209.93 40.5008 209.93 41.0914C209.93 41.6819 210.091 41.6819 210.735 41.145C211.164 40.8229 211.968 40.6619 212.558 40.8766C213.577 41.1987 214.328 40.5008 214.596 39.0513C214.65 38.6755 214.972 38.0312 215.294 37.7091C215.776 37.2796 215.884 37.6017 215.723 38.9439C215.615 40.125 215.83 40.8766 216.313 41.0377C216.742 41.145 216.903 41.0377 216.742 40.7692C216.581 40.5008 217.332 40.3398 218.404 40.4471C219.96 40.5545 220.174 40.5008 219.316 40.125C218.404 39.6955 218.351 39.5881 219.209 39.5881C220.174 39.5345 220.55 38.4607 219.584 38.4607C219.316 38.4607 219.048 38.246 219.048 38.0312C219.048 37.7628 219.423 37.548 219.852 37.548C220.281 37.548 220.657 37.8702 220.657 38.2997C220.657 38.6755 220.925 38.9976 221.247 38.9976C221.515 38.9976 221.676 39.2123 221.461 39.4808C221.086 40.1787 224.572 39.9639 225.055 39.3197C225.269 38.9976 225.913 38.9976 226.717 39.3734C227.468 39.7492 228.219 39.8566 228.434 39.6418C228.648 39.4271 230.15 39.2123 231.812 39.2123C233.529 39.1586 235.835 38.9976 237.015 38.8365C238.195 38.6755 240.715 38.407 242.646 38.246C244.577 38.0312 247.473 37.6017 249.082 37.2796C250.691 36.9575 252.354 36.6891 252.729 36.6891C253.105 36.6891 253.319 36.3669 253.158 35.9375C252.997 35.5616 253.105 35.2395 253.373 35.2395C253.695 35.2395 253.909 35.4543 253.909 35.7227C253.909 36.0448 254.392 36.2059 254.982 36.1522C255.572 36.0985 256.054 35.9375 256.054 35.7227C256.054 35.508 256.805 35.4543 257.717 35.6153C258.951 35.7764 259.272 35.669 259.004 35.1858C258.736 34.7563 258.79 34.649 259.165 34.9174C259.862 35.3469 261.954 34.3805 261.954 33.6289C261.954 33.3068 261.525 33.0384 261.042 33.0384C260.506 32.9847 260.935 32.7699 261.954 32.5552C262.973 32.2868 264.368 31.9646 265.065 31.7499C266.191 31.3741 266.566 32.0183 266.298 33.7363C266.191 34.3805 266.996 34.2195 268.229 33.3605C269.034 32.8236 269.463 32.7699 269.57 33.1457C269.677 33.5216 270.267 33.6289 270.857 33.4142C271.608 33.1994 271.876 32.6089 271.876 31.3741C271.876 29.9246 272.252 29.4951 274.826 27.9382C276.435 26.9718 277.99 26.0591 278.205 26.0054C279.224 25.5759 277.776 23.9653 275.738 23.2137C273.968 22.5695 271.179 22.4084 262.651 22.5158C256.644 22.5695 251.764 22.4621 251.764 22.2474C251.764 21.9253 252.783 21.12 253.373 20.9589C253.534 20.9589 254.016 20.7978 254.445 20.5831C254.875 20.422 255.625 20.1536 256.054 20.0462C256.698 19.7778 256.698 19.7241 256.001 19.7241C255.518 19.6704 254.982 19.2409 254.821 18.6504C254.445 17.1472 251.71 16.8787 240.501 17.2545C230.74 17.6303 228.273 17.4156 229.828 16.3955C230.311 16.0734 230.364 15.7513 230.043 15.4829C229.506 15.1608 229.453 14.7849 229.721 13.3354C229.721 13.1207 231.598 11.8322 233.797 10.5437C236.425 8.9868 237.766 7.91307 237.551 7.42989C237.39 7.0004 237.283 6.51722 237.283 6.35616C237.283 5.3898 233.797 4.53082 230.418 4.69188C226.878 4.85294 224.411 4.36976 223.821 3.51077C223.285 2.5981 217.653 1.95386 209.019 1.84649C204.192 1.73912 200.276 1.57806 200.276 1.417C200.276 1.25594 197.434 1.09488 193.948 0.987504C183.221 0.719071 175.391 0.343265 174.694 0.128519C174.372 -0.0325408 173.996 -0.0325405 173.889 0.0748326ZM151.041 5.71192C152.168 5.71192 153.08 5.92667 153.08 6.24879C153.08 6.51722 152.919 6.78565 152.704 6.83934C149.057 7.26883 130.876 7.59095 127.765 7.21514C127.282 7.16146 126.96 6.94671 127.121 6.67828C127.282 6.40985 127.658 6.35616 127.926 6.51722C128.194 6.67828 129.267 6.62459 130.286 6.30247C131.68 5.92667 132.163 5.98035 132.163 6.40985C132.163 6.78565 132.431 6.62459 132.753 6.08773C133.128 5.44349 133.557 5.28243 133.933 5.60455C134.308 5.87298 135.542 6.08773 136.722 5.98035C137.901 5.92667 139.135 6.08773 139.403 6.30247C140.047 6.78565 142.675 6.62459 143.265 6.08773C143.855 5.49717 144.606 5.65823 144.176 6.30247C143.694 7.10777 146.107 6.35616 147.18 5.3898C147.663 4.90662 148.092 4.79925 148.467 5.17506C148.789 5.49717 149.915 5.71192 151.041 5.71192ZM141.817 5.3898C141.817 5.55086 141.602 5.81929 141.28 5.98035C141.012 6.14141 140.744 6.03404 140.744 5.76561C140.744 5.44349 141.012 5.17506 141.28 5.17506C141.602 5.17506 141.817 5.28243 141.817 5.3898ZM120.417 7.59095C120.685 7.3762 120.9 7.48358 120.9 7.8057C120.9 8.34256 117.789 9.20155 117.306 8.77205C117.146 8.61099 117.628 7.91307 118.272 7.16146C119.452 5.98035 119.559 5.98035 119.72 6.89302C119.827 7.42989 120.149 7.75201 120.417 7.59095ZM124.547 7.96676C124.171 9.04049 123.045 9.09417 122.992 8.02044C122.992 7.48358 122.831 7.32252 122.67 7.69832C122.562 8.07413 122.241 8.39625 121.973 8.39625C121.383 8.39625 120.846 6.78565 121.222 6.1951C121.597 5.55086 124.761 7.21514 124.547 7.96676ZM156.298 6.1951C156.298 6.94671 155.332 7.42989 154.689 7.05408C154.367 6.83934 154.259 6.46353 154.42 6.1951C154.849 5.55086 156.298 5.55086 156.298 6.1951ZM219.262 17.2545C219.048 17.684 218.833 18.0598 218.726 18.0598C218.619 18.0598 218.512 17.684 218.512 17.2545C218.512 16.825 218.726 16.4492 219.048 16.4492C219.316 16.4492 219.423 16.825 219.262 17.2545ZM22.2155 32.5552C22.2155 33.0921 22.001 33.7363 21.6792 33.8974C21.3574 34.1121 21.1429 33.5216 21.1429 32.5552C21.1429 31.5888 21.3574 30.9983 21.6792 31.213C22.001 31.3741 22.2155 32.0183 22.2155 32.5552ZM52.7862 32.5015C52.7862 32.7699 52.4108 33.0921 52.0354 33.2531C51.499 33.4679 51.3381 33.3068 51.5527 32.7699C51.8745 31.9646 52.7862 31.7499 52.7862 32.5015ZM39.378 33.0384C39.378 33.8974 38.0372 34.0584 37.34 33.3068C36.75 32.6626 36.9109 32.5552 38.0372 32.5552C38.7881 32.5552 39.378 32.7699 39.378 33.0384ZM45.0095 33.0921C44.8486 33.3605 44.4195 33.6289 44.1514 33.6289C43.8296 33.6289 43.7759 33.3605 43.9368 33.0921C44.0977 32.7699 44.5268 32.5552 44.7949 32.5552C45.1167 32.5552 45.1704 32.7699 45.0095 33.0921ZM252.3 34.1658C252.3 34.4342 252.032 34.7027 251.71 34.7027C251.442 34.7027 251.335 34.4342 251.496 34.1658C251.657 33.8437 251.925 33.6289 252.086 33.6289C252.193 33.6289 252.3 33.8437 252.3 34.1658ZM236.157 36.8501C235.728 37.2796 234.065 37.2259 234.065 36.7428C234.065 36.528 234.333 36.3133 234.601 36.3133C234.923 36.3133 235.084 36.1522 235.084 35.8838C234.87 34.7563 235.245 34.5416 235.781 35.508C236.157 36.0985 236.318 36.6891 236.157 36.8501ZM249.887 35.7764C249.35 36.3669 248.707 36.8501 248.385 36.8501C248.117 36.8501 248.439 36.3669 249.136 35.7764C250.798 34.4342 251.12 34.4342 249.887 35.7764ZM241.842 36.3133C242.003 36.5817 241.949 36.8501 241.627 36.8501C241.359 36.8501 240.93 36.5817 240.769 36.3133C240.608 35.9911 240.662 35.7764 240.984 35.7764C241.252 35.7764 241.681 35.9911 241.842 36.3133ZM229.935 36.9575C229.828 37.2259 228.97 37.387 228.112 37.387C227.2 37.387 226.61 37.1722 226.825 36.8501C226.986 36.5817 227.844 36.4206 228.648 36.4743C229.506 36.528 230.096 36.7428 229.935 36.9575ZM223.499 37.7628C223.285 38.246 222.963 38.2997 222.212 37.8702C220.925 37.1722 220.925 37.1186 222.48 37.1186C223.231 37.1186 223.66 37.387 223.499 37.7628ZM214.114 38.0312C214.006 38.3533 213.309 38.6755 212.612 38.7292C211.486 38.8365 211.432 38.7828 212.344 38.0849C213.577 37.2259 214.382 37.1722 214.114 38.0312ZM217.975 38.1386C217.975 38.246 217.6 38.4607 217.171 38.6755C216.742 38.8365 216.366 38.7292 216.366 38.4607C216.366 38.1386 216.742 37.9239 217.171 37.9239C217.6 37.9239 217.975 38.0312 217.975 38.1386ZM208.589 38.9976C209.287 38.9976 209.448 39.1586 209.019 39.5881C208.643 39.9639 207.946 39.9103 206.659 39.266C205.264 38.6755 205.157 38.5144 206.176 38.7292C206.927 38.8365 208 38.9976 208.589 38.9976ZM47.1012 41.1987C46.4039 41.4672 46.3503 41.6282 46.8866 41.6282C47.3693 41.6819 47.1548 42.004 46.3503 42.3798C45.1704 43.0241 44.9558 42.9704 44.3659 42.004C43.8296 41.0377 43.8832 40.8229 44.9022 40.5545C45.5458 40.3934 46.5648 40.3934 47.1012 40.5545C47.8163 40.6977 47.8163 40.9124 47.1012 41.1987ZM192.768 40.8766C192.768 41.3598 192.446 41.5209 191.963 41.3598C191.534 41.145 191.32 40.8229 191.481 40.5545C191.91 39.8029 192.768 40.0176 192.768 40.8766ZM26.238 41.5745C26.0771 41.7356 25.648 41.5745 25.2726 41.1987C24.7899 40.6619 24.8435 40.6082 25.5944 40.9303C26.1307 41.0914 26.3989 41.4135 26.238 41.5745ZM37.1255 41.5209C37.2327 41.9503 36.8573 42.2188 36.2137 42.2188C35.0874 42.2188 34.3366 41.5209 34.9265 40.9303C35.4628 40.3934 36.8573 40.7692 37.1255 41.5209ZM42.9178 41.4135C43.4541 41.843 43.6687 42.2188 43.2932 42.2188C42.2742 42.2188 40.987 41.6282 40.987 41.0914C40.987 40.3934 41.7379 40.5008 42.9178 41.4135ZM51.3918 41.4135C51.5527 41.843 51.4454 42.2188 51.1772 42.2188C50.8554 42.2188 50.6409 41.843 50.6409 41.4135C50.6409 40.984 50.7482 40.6082 50.8554 40.6082C50.9627 40.6082 51.1772 40.984 51.3918 41.4135ZM59.7585 41.145C59.7585 41.4135 59.544 41.6819 59.2222 41.6819C58.954 41.6819 58.6858 41.4135 58.6858 41.145C58.6858 40.8229 58.954 40.6082 59.2222 40.6082C59.544 40.6082 59.7585 40.8229 59.7585 41.145ZM22.0546 41.4672C21.8937 41.6282 21.411 41.6819 21.0356 41.5209C20.6066 41.3598 20.7675 41.1987 21.3574 41.1987C21.9474 41.145 22.2692 41.3061 22.0546 41.4672ZM65.1218 41.6819C65.1218 41.9503 64.6927 42.2188 64.21 42.2188C63.4055 42.2188 63.3519 42.1114 64.0491 41.6819C65.0681 41.0377 65.1218 41.0377 65.1218 41.6819ZM172.387 43.9367C172.387 44.9568 172.28 45.0105 171.851 44.3662C171.422 43.722 171.315 43.722 171.315 44.3126C171.315 44.8494 171.047 44.8494 169.974 44.1515C169.223 43.6683 168.311 43.3999 167.989 43.6146C167.614 43.8294 167.56 43.7757 167.775 43.3999C167.989 43.0241 169.116 42.7556 170.296 42.7556C172.119 42.7556 172.387 42.9167 172.387 43.9367ZM147.716 45.5473C147.716 45.7621 147.18 46.1916 146.59 46.5674C145.678 47.0506 145.517 46.9969 145.839 46.46C146.161 45.9768 146 45.9232 145.41 46.1379C144.23 46.6211 143.05 46.9432 143.587 46.6748C143.801 46.5137 143.962 46.0305 143.962 45.5473C143.962 44.742 143.855 44.742 143.426 45.44C143.05 46.0305 142.889 46.0842 142.889 45.5473C142.889 45.1179 143.372 44.6884 143.962 44.5273C144.552 44.3662 145.035 43.9904 145.035 43.722C145.035 43.1851 147.663 44.9568 147.716 45.5473ZM149.325 44.0978C149.862 44.742 149.862 44.9031 149.111 44.9031C148.628 44.9031 148.253 44.5273 148.253 44.0978C148.253 43.6683 148.36 43.2925 148.467 43.2925C148.574 43.2925 148.95 43.6683 149.325 44.0978ZM127.014 46.1916C126.585 47.2653 125.888 47.2653 124.761 46.1916C123.957 45.3863 124.011 45.3326 125.03 45.6547C125.673 45.8695 126.317 45.7621 126.531 45.44C127.068 44.581 127.443 45.1179 127.014 46.1916ZM142.353 45.5473C142.353 45.8158 141.709 45.8158 140.959 45.6547C139.832 45.3863 139.618 45.44 139.939 45.9768C140.208 46.46 140.154 46.5674 139.725 46.299C139.403 46.0842 139.242 45.6547 139.403 45.3863C139.779 44.7957 142.353 44.9568 142.353 45.5473ZM104.649 46.1379C104.756 46.299 104.327 46.5674 103.684 46.7821C102.933 47.0506 102.343 46.9432 102.236 46.5674C102.128 46.2453 101.807 46.0842 101.538 46.299C101.27 46.46 101.056 46.299 101.056 45.9768C101.056 45.3863 104.059 45.5473 104.649 46.1379ZM117.95 45.9768C118.165 46.299 118.54 46.3526 118.862 46.1916C119.237 45.9768 119.291 46.0842 119.076 46.46C118.755 46.9432 118.486 46.9432 117.95 46.5137C117.575 46.1916 116.824 46.1379 116.341 46.3526C115.644 46.5674 115.483 46.5137 115.751 46.0842C116.234 45.2789 117.521 45.2252 117.95 45.9768ZM121.114 46.2453C120.739 47.1043 119.827 47.3727 119.827 46.5674C119.827 46.1379 120.203 45.8695 121.275 45.4937C121.329 45.44 121.275 45.8158 121.114 46.2453ZM123.313 45.9231C123.152 46.1916 123.474 46.5674 123.957 46.6748C124.547 46.8358 124.386 46.9432 123.474 46.9969C122.026 47.0506 121.597 46.5674 122.348 45.8158C122.884 45.2789 123.689 45.3863 123.313 45.9231ZM130.983 46.1916C130.876 46.46 130.017 46.7821 128.998 46.8358C127.121 46.9969 127.282 46.299 129.213 45.8158C130.607 45.4937 131.197 45.601 130.983 46.1916ZM136.453 45.9768C136.024 46.2453 135.273 46.46 134.844 46.46C134.308 46.46 134.415 46.299 135.113 45.9768C136.561 45.3326 137.419 45.3326 136.453 45.9768ZM18.9976 51.3992C18.9976 51.9897 17.5495 52.0434 17.1741 51.4529C17.0668 51.2381 17.3886 50.9697 17.9785 50.9697C18.5149 50.916 18.9976 51.0771 18.9976 51.3992ZM21.1429 51.1307C21.1429 51.5602 20.1239 51.8287 19.8557 51.4529C19.6948 51.1844 19.9093 50.9697 20.3384 50.9697C20.7675 50.9697 21.1429 51.0771 21.1429 51.1307ZM38.1445 51.1307C37.9836 51.2918 37.5009 51.3455 37.1255 51.1844C36.6964 51.0234 36.8573 50.8623 37.4473 50.8623C38.0372 50.8086 38.359 50.9697 38.1445 51.1307ZM41.1479 52.5266C41.6842 53.3856 41.8988 54.0298 41.6306 54.0298C41.2015 54.0298 39.9144 51.7213 39.9144 50.9697C39.9144 50.5939 39.968 50.6476 41.1479 52.5266ZM284.855 52.2045C284.694 52.3655 284.212 52.4192 283.836 52.2582C283.407 52.0971 283.568 51.936 284.158 51.936C284.748 51.8824 285.07 52.0434 284.855 52.2045ZM39.7535 53.6003C39.5926 54.0298 39.4317 53.8688 39.4317 53.2782C39.378 52.6877 39.5389 52.3655 39.6998 52.5803C39.8607 52.7413 39.9144 53.2245 39.7535 53.6003ZM59.1149 53.4393C59.6512 53.7614 59.544 53.9761 58.6322 54.1909C57.2378 54.5667 56.8087 54.3519 57.345 53.5466C57.7204 52.8487 58.1495 52.795 59.1149 53.4393ZM73.9712 53.493C74.1321 53.8151 73.9175 53.8688 73.4885 53.7077C72.5231 53.3319 72.3622 52.9561 73.1131 52.9561C73.4349 52.9561 73.8103 53.1708 73.9712 53.493ZM45.2776 54.0298C45.2776 54.2983 45.1704 54.5667 45.0631 54.5667C44.9022 54.5667 44.634 54.2983 44.4731 54.0298C44.3122 53.7077 44.4195 53.493 44.6877 53.493C45.0095 53.493 45.2776 53.7077 45.2776 54.0298ZM50.5873 53.654C50.48 53.7077 49.9437 54.1372 49.461 54.513C48.6565 55.1572 48.4956 55.1035 48.4956 54.3519C48.4956 53.8151 48.9247 53.493 49.6755 53.493C50.3191 53.493 50.6945 53.5466 50.5873 53.654ZM54.9315 54.0298C54.9315 54.2983 54.717 54.5667 54.3952 54.5667C54.127 54.5667 53.8589 54.2983 53.8589 54.0298C53.8589 53.7077 54.127 53.493 54.3952 53.493C54.717 53.493 54.9315 53.7077 54.9315 54.0298ZM248.814 61.0091C248.975 61.3312 248.76 61.3849 248.331 61.2238C247.366 60.848 247.205 60.4722 247.956 60.4722C248.278 60.4722 248.653 60.687 248.814 61.0091ZM257.02 61.5996C257.181 62.1902 257.073 62.1902 256.644 61.5459C256.108 60.848 256.054 60.848 256.054 61.5459C256.054 62.0828 255.894 62.1365 255.625 61.7607C255.411 61.4386 254.875 61.0091 254.445 60.848C254.016 60.687 254.338 60.5796 255.196 60.687C256.108 60.7406 256.913 61.1701 257.02 61.5996ZM222.802 63.9081C222.802 64.0155 222.427 64.284 221.944 64.445C221.515 64.6061 221.3 64.5524 221.461 64.2303C221.783 63.6934 222.802 63.4787 222.802 63.9081ZM87.9693 66.9146C89.9538 66.4314 90.3828 67.0757 88.7738 67.9883C87.5939 68.5789 85.3413 67.9883 84.6977 66.8609C84.3759 66.4314 84.5368 66.3777 85.2341 66.7535C85.7704 67.0757 86.9503 67.1293 87.9693 66.9146ZM92.1527 67.3441C91.8845 67.5588 91.5091 67.9346 91.3482 68.1494C91.1873 68.4178 90.8655 68.2568 90.7046 67.881C90.5437 67.3978 90.8655 67.1293 91.5091 67.0756C92.0991 67.022 92.3672 67.1293 92.1527 67.3441ZM73.8639 68.4178C73.703 68.7936 73.3812 68.9547 73.2203 68.6862C73.0594 68.4715 72.684 68.0957 72.4158 67.881C72.2013 67.6662 72.4695 67.5588 73.0594 67.6125C73.703 67.6662 74.0248 67.9346 73.8639 68.4178ZM109.637 73.1422C109.637 73.5717 109.369 73.7865 109.101 73.6254C108.779 73.4107 108.672 73.0349 108.832 72.7664C109.315 72.0148 109.637 72.1759 109.637 73.1422ZM98.3741 73.9475C98.3741 74.1623 98.1059 74.5381 97.8378 74.6991C97.516 74.9139 97.4623 75.2897 97.6232 75.6118C97.8378 75.9876 97.7305 76.0413 97.4087 75.8266C96.4969 75.2897 96.6042 73.518 97.5696 73.518C97.9987 73.518 98.3741 73.7328 98.3741 73.9475ZM50.6409 79.0477C50.6409 79.4772 50.3728 79.692 50.1046 79.5309C49.7828 79.3162 49.6755 78.9404 49.8364 78.6719C50.3191 77.9203 50.6409 78.0814 50.6409 79.0477ZM32.4058 81.41C33.103 81.8395 33.103 81.9468 32.2985 81.9468C31.8158 81.9468 31.2258 81.6784 31.0649 81.41C30.6359 80.712 31.3331 80.712 32.4058 81.41ZM238.624 81.41C238.463 81.6784 238.034 81.9468 237.766 81.9468C237.444 81.9468 237.39 81.6784 237.551 81.41C237.712 81.0878 238.141 80.8731 238.409 80.8731C238.731 80.8731 238.785 81.0878 238.624 81.41ZM27.5788 81.9468C27.5788 82.2153 27.3107 82.4837 26.9889 82.4837C26.7207 82.4837 26.6134 82.2153 26.7743 81.9468C26.9352 81.6247 27.2034 81.41 27.3643 81.41C27.4716 81.41 27.5788 81.6247 27.5788 81.9468ZM25.2726 82.2689C25.1117 82.43 24.629 82.4837 24.2536 82.3226C23.8245 82.1616 23.9854 82.0005 24.5754 82.0005C25.1653 81.9468 25.4871 82.1079 25.2726 82.2689ZM166.327 86.5639C166.166 86.7249 165.683 86.7786 165.308 86.6176C164.879 86.4565 165.04 86.2954 165.63 86.2954C166.22 86.2417 166.541 86.4028 166.327 86.5639ZM170.993 87.0471C170.778 87.4765 170.457 87.6913 170.188 87.5302C169.598 87.2081 170.081 86.2418 170.778 86.2418C171.047 86.2418 171.154 86.6176 170.993 87.0471ZM147.18 87.906C147.18 88.2281 146.965 88.2818 146.644 88.1208C146.161 87.8523 145.893 88.4966 146 89.5166C146.054 89.7314 145.571 89.9998 145.035 90.1609C144.445 90.3219 144.069 90.2146 144.23 89.9998C144.82 89.0335 143.318 88.8724 142.621 89.7851C141.656 91.1272 141.012 90.4293 141.924 88.9798C142.299 88.3355 142.943 87.9597 143.426 88.1208C143.908 88.2818 144.766 88.0671 145.303 87.6376C146.375 86.8323 147.18 86.9934 147.18 87.906ZM132.699 88.3892C132.699 88.6576 133.235 88.9261 133.933 88.9261C135.005 88.9798 135.005 89.0334 134.147 89.5166C132.914 90.2682 131.036 89.624 131.466 88.604C131.787 87.745 132.699 87.5839 132.699 88.3892ZM138.706 88.604C139.51 88.604 139.939 88.8724 139.725 89.0871C139.028 89.7851 135.756 89.3019 135.488 88.4429C135.273 87.8523 135.488 87.7987 136.239 88.1208C136.829 88.3355 137.901 88.5503 138.706 88.604ZM127.872 89.1408C127.872 89.3019 127.658 89.5703 127.336 89.7314C127.068 89.8924 126.799 89.7851 126.799 89.5166C126.799 89.1945 127.068 88.9261 127.336 88.9261C127.658 88.9261 127.872 89.0334 127.872 89.1408ZM8.80735 90.5367C8.80735 90.8051 8.43192 90.9125 8.00285 90.7514C7.57379 90.5367 7.19836 90.3219 7.19836 90.2146C7.19836 90.1072 7.57379 89.9998 8.00285 89.9998C8.43192 89.9998 8.80735 90.2146 8.80735 90.5367ZM90.8655 90.6441C90.8655 91.0735 91.0264 91.1272 91.2946 90.8051C91.8845 89.9461 93.0108 89.9461 92.689 90.8051C92.4745 91.2883 91.7773 91.503 90.4364 91.3957C88.1839 91.1809 87.3794 89.9998 89.4711 89.9998C90.2219 89.9998 90.8655 90.3219 90.8655 90.6441ZM16.2087 91.8788C16.0478 92.0399 15.726 91.7715 15.5651 91.2346C15.2433 90.483 15.2969 90.4293 15.8332 90.9125C16.2087 91.2883 16.3696 91.7178 16.2087 91.8788ZM29.1878 91.0735C29.1878 91.7178 27.5788 92.8452 27.257 92.5231C26.6671 91.9862 27.4179 90.6977 28.3297 90.6977C28.8124 90.6977 29.1878 90.9125 29.1878 91.0735ZM65.4436 92.5231C65.1754 93.4357 64.9072 93.7579 64.6391 93.3284C63.9418 92.201 61.9038 92.0936 61.9038 93.1136C61.9038 93.8652 61.7965 93.9189 61.4211 93.221C61.0457 92.6841 61.2066 92.2546 61.9574 91.7178C62.9228 91.0735 63.191 91.0735 64.1564 91.9862C64.8 92.5231 65.1218 92.6304 64.9072 92.2546C64.6927 91.9325 64.6927 91.342 64.8536 91.0199C65.4972 90.0535 65.819 90.9662 65.4436 92.5231ZM74.5611 91.342C73.3276 92.3083 72.6304 92.362 72.6304 91.5567C72.6304 91.2883 72.8449 91.1272 73.0594 91.2883C73.274 91.3957 73.8103 91.342 74.2393 91.0199C75.4729 90.2682 75.6874 90.483 74.5611 91.342ZM13.6343 91.6104C13.6343 91.8788 13.2589 91.9862 12.8298 91.8251C12.4007 91.6104 12.0253 91.3957 12.0253 91.2883C12.0253 91.1809 12.4007 91.0735 12.8298 91.0735C13.2589 91.0735 13.6343 91.2883 13.6343 91.6104ZM22.0546 91.3957C21.8937 91.5567 21.411 91.6104 21.0356 91.4493C20.6066 91.2883 20.7675 91.1272 21.3574 91.1272C21.9474 91.0735 22.2692 91.2346 22.0546 91.3957ZM25.4335 91.6104C26.0235 91.9862 26.0235 92.1473 25.5408 92.1473C25.1653 92.1473 25.0044 92.4157 25.219 92.7378C25.3799 93.0599 24.9508 92.8989 24.1463 92.4157C23.3955 91.8788 22.7519 91.3957 22.7519 91.2883C22.7519 90.8588 24.629 91.1272 25.4335 91.6104ZM31.3331 91.6104C31.3331 91.8788 30.9577 91.9862 30.5286 91.8251C30.0996 91.6104 29.7241 91.3957 29.7241 91.2883C29.7241 91.1809 30.0996 91.0735 30.5286 91.0735C30.9577 91.0735 31.3331 91.2883 31.3331 91.6104ZM51.7136 91.9325C51.7136 92.0399 51.3381 92.1473 50.9091 92.1473C50.48 92.1473 50.1046 91.9325 50.1046 91.6104C50.1046 91.342 50.48 91.2346 50.9091 91.3957C51.3381 91.6104 51.7136 91.8251 51.7136 91.9325ZM56.3796 91.9325C56.2187 92.0936 55.736 92.1473 55.3606 91.9862C54.9315 91.8251 55.0924 91.6641 55.6824 91.6641C56.2724 91.6104 56.5942 91.7715 56.3796 91.9325Z" fill="#F46F3B" fill-opacity="0.15"/>
<path fillRule="evenodd" clipRule="evenodd" d="M87.8659 70.4356C87.8655 70.6225 87.6778 70.7155 87.4279 70.6216C87.178 70.5277 86.8966 70.5271 86.8026 70.6515C86.6774 70.7447 86.2081 70.8994 85.7703 70.9608C85.3013 71.0221 84.738 71.3012 84.4874 71.581C84.268 71.8607 84.1428 71.9228 84.2683 71.7051C84.3625 71.5185 84.3316 71.3316 84.144 71.3312C83.9877 71.3309 83.8 71.4239 83.7372 71.5483C83.6743 71.7039 83.2358 72.1389 82.7348 72.5738C82.2337 73.0087 81.9208 73.1638 82.0463 72.9461C82.3913 72.3552 81.8908 72.5099 81.0453 73.2554C80.6068 73.6593 80.3878 73.7523 80.5133 73.5034C80.7642 73.0992 80.733 73.0991 80.1695 73.5028C79.8564 73.7512 79.4805 74.093 79.3551 74.2795C79.2297 74.435 78.9793 74.6213 78.7917 74.6209C78.0725 74.7129 78.0411 74.7751 78.4782 75.0562C78.7904 75.2747 78.8215 75.3682 78.5713 75.3988C78.3524 75.4295 78.0398 75.4601 77.8521 75.4908C77.6958 75.4905 77.5705 75.6148 77.6329 75.7083C77.7572 76.0511 76.5357 77.2318 76.2547 77.0444C76.0986 76.9507 75.8794 77.1059 75.7538 77.417C75.6594 77.6971 75.158 78.3188 74.6569 78.7848C74.187 79.2509 73.7794 79.8728 73.7788 80.1531C73.7782 80.4333 73.6527 80.6821 73.4651 80.6817C73.3088 80.7125 73.0273 80.7431 72.871 80.774C72.7147 80.7736 72.4643 80.9288 72.3076 81.0842C72.151 81.2707 72.2448 81.2709 72.4952 81.1157C72.8394 80.9296 72.9018 80.992 72.7447 81.3964C72.619 81.7075 72.5247 81.9875 72.5245 82.0809C72.5243 82.1432 72.3056 82.1117 72.0557 82.0178C71.7746 81.8927 71.4929 82.0478 71.3672 82.39C71.2414 82.7322 70.8965 83.2609 70.5833 83.5716C70.3013 83.8824 70.113 84.2556 70.1753 84.3803C70.2688 84.505 69.9245 84.6912 69.4554 84.7837C68.7986 84.938 68.4551 84.7817 67.9249 84.1268C67.5195 83.6589 67.2079 83.1601 67.2082 82.9733C67.209 82.5997 65.6799 81.2578 65.2422 81.2569C65.0547 81.2566 65.0236 81.1631 65.1176 81.0388C65.2428 80.9456 64.9936 80.5403 64.5567 80.1347C64.1199 79.7291 63.9019 79.3239 64.0896 79.2308C64.2774 79.1378 64.403 78.8579 64.3721 78.671C64.3727 78.3908 64.3101 78.3906 64.1845 78.6706C64.0902 78.9506 63.8713 78.9813 63.4966 78.7626C63.1843 78.6063 62.8406 78.5434 62.7778 78.6366C62.6839 78.7299 62.5281 78.4493 62.404 78.0132C62.2489 77.3902 61.9055 77.1404 60.8744 76.8893C60.1557 76.7322 59.1874 76.3566 58.7189 76.1377C57.9382 75.7314 57.8131 75.7312 57.5308 76.1976C57.3426 76.5398 57.2175 76.5707 57.218 76.3216C57.2186 76.0102 56.8748 75.9472 55.7491 76.1318C53.8103 76.4082 52.9969 76.7179 52.1513 77.4946C51.7755 77.8364 51.2747 78.1156 51.0559 78.1151C50.8371 78.1147 50.6492 78.2389 50.6489 78.4257C50.6486 78.5814 50.4294 78.7366 50.1481 78.736C49.7104 78.7352 49.7102 78.8286 50.0221 79.2028C50.2404 79.4524 50.3024 79.7016 50.1461 79.7012C48.7077 79.8852 47.8002 80.3816 47.9868 80.8179C48.0799 81.1605 48.0173 81.2226 47.6737 81.0974C47.33 80.9722 47.0795 81.1896 46.8909 81.7186C46.7024 82.1541 46.3572 82.8384 46.0752 83.1803L45.5736 83.8643L45.7939 83.1487C46.0141 82.433 46.0142 82.4018 45.419 82.9922C45.0745 83.3029 44.9488 83.6451 45.0737 83.7388C45.1985 83.8324 45.1353 84.1748 44.8846 84.4857C44.5712 84.8898 44.5392 85.2634 44.726 85.6374C44.9129 85.9491 44.8811 86.2292 44.6933 86.3534C44.5368 86.4465 44.3808 86.2905 44.3814 85.9792C44.3823 85.5433 44.3198 85.512 44.1003 85.8541C43.9436 86.0717 43.6932 86.1957 43.5059 86.0708C43.3498 85.9771 43.1305 86.1946 43.0047 86.5991C42.7211 87.6883 42.7835 87.7818 43.4719 87.4407C44.0665 87.1305 44.0978 87.1306 43.784 87.6904C43.5644 88.0948 43.2202 88.2498 42.8765 88.1557C42.5016 88.0615 42.3137 88.2168 42.2815 88.6838C42.2179 89.2129 42.3428 89.3066 42.8746 89.1209C43.3125 88.9972 43.4374 89.0597 43.3119 89.2774C43.1865 89.464 42.8423 89.619 42.4984 89.6183C42.1858 89.6176 41.8415 89.8349 41.7472 90.1149C41.6215 90.426 41.6838 90.5196 41.9655 90.3645C42.1533 90.2403 42.0591 90.4269 41.7458 90.7999C41.4012 91.1729 41.244 91.5773 41.3376 91.7021C41.4624 91.7957 41.3994 92.0758 41.2113 92.3245C40.9294 92.6042 40.9604 92.7288 41.2105 92.7293C41.398 92.7296 41.5547 92.5743 41.555 92.4186C41.5564 91.7336 42.1182 92.1706 42.2729 92.9805C42.3965 93.6657 42.6149 93.8841 43.1777 93.854C43.928 93.8244 44.9612 93.0481 44.7744 92.643C44.7122 92.5183 44.8999 92.4252 45.2125 92.4259C45.5251 92.4265 45.9634 92.1471 46.1516 91.805C46.4966 91.2764 46.4654 91.2452 45.9961 91.4C45.652 91.5238 45.7775 91.3061 46.3414 90.7157C46.8112 90.2496 47.1874 89.721 47.1877 89.5965C47.188 89.4408 47.4071 89.3167 47.6572 89.3172C47.9073 89.3177 48.1264 89.1625 48.1268 88.9445C48.1273 88.7266 48.4721 88.229 48.8794 87.794C49.318 87.3278 49.6942 86.7992 49.7572 86.5503C49.915 85.8345 50.9171 84.9647 51.5736 84.966C51.9174 84.9667 52.199 84.8427 52.1993 84.7182C52.1996 84.5625 52.544 84.283 52.9821 84.097C53.9834 83.632 54.1709 83.6323 53.92 84.0366C53.7319 84.3164 54.3568 84.4734 55.2636 84.3818C55.4512 84.351 55.6386 84.4448 55.6383 84.5693C55.638 84.725 55.2314 84.8487 54.7 84.8165C54.1998 84.8155 53.7624 84.7213 53.7626 84.5967C53.7634 84.2231 52.8879 84.3148 52.637 84.7191C52.4802 84.9367 52.5427 84.9679 52.8243 84.8128C53.1373 84.6266 53.1997 84.7202 53.0737 85.187C52.9477 85.6537 53.0412 85.8096 53.4164 85.7481C53.6978 85.7175 54.1038 85.9363 54.3219 86.2792C54.5401 86.591 54.8837 86.7473 55.0715 86.6543C55.2905 86.5302 55.3217 86.5925 55.1962 86.7791C55.0708 86.9656 55.2577 87.3085 55.6324 87.5272C55.9758 87.7458 56.2564 88.1512 56.2558 88.4625C56.2552 88.7427 56.5044 89.1791 56.8478 89.3978C57.16 89.6163 57.4407 89.9282 57.4716 90.1151C57.4713 90.2708 57.7206 90.6761 58.0013 90.988C58.2507 91.331 58.4064 91.6426 58.3437 91.7359C58.2498 91.798 58.5303 92.2033 58.9671 92.6401C59.4039 93.0768 59.6529 93.6066 59.5899 93.8556C59.4957 94.0733 59.6202 94.3538 59.8701 94.4477C60.12 94.5416 60.3069 94.8533 60.3064 95.1024C60.3058 95.3827 60.4619 95.5075 60.6184 95.4144C60.8062 95.3214 60.931 95.4151 60.9306 95.633C60.93 95.9132 61.0238 95.9134 61.2433 95.5713C61.4941 95.1982 61.5565 95.2606 61.5554 95.8211C61.5545 96.2881 61.7726 96.631 62.1788 96.7252C62.5225 96.8193 62.7097 97.0065 62.6156 97.162C62.4587 97.4419 63.271 97.6926 64.9275 97.8827C65.6464 97.9464 65.9279 97.8536 65.9286 97.5111C65.9293 97.1686 65.6793 97.1058 64.835 97.2287C63.3652 97.4748 63.4595 97.2259 64.9609 96.8242C65.649 96.6387 66.4938 96.2668 66.8696 95.9562C67.4958 95.4593 67.5273 95.3659 67.0591 94.9913C66.6222 94.6168 66.5596 94.6479 66.5585 95.2083C66.5578 95.5508 66.3383 95.8928 66.1193 95.9858C65.7751 96.1097 65.7128 96.0161 65.8073 95.6427C65.9646 95.176 65.9333 95.1759 65.5573 95.611C65.1499 96.1084 64.2121 96.0754 64.5257 95.5779C64.6198 95.4224 64.3386 95.3595 63.8696 95.4209C63.3693 95.451 63.1507 95.3572 63.2136 95.1393C63.3079 94.9216 63.0893 94.7655 62.7767 94.7649C62.0577 94.7634 62.0262 94.8879 62.7436 95.6989C63.149 96.1978 63.1489 96.2601 62.7744 95.948C62.4934 95.7607 62.181 95.6666 62.0869 95.791C61.9617 95.8841 61.8683 95.6971 61.869 95.3235C61.8705 94.5763 62.4028 94.1414 63.2466 94.2988C63.6841 94.3619 63.7781 94.2687 63.6226 93.8636C63.4672 93.4274 63.5611 93.3653 64.0923 93.4909C64.4672 93.5851 65.0925 93.5552 65.4992 93.4003C65.9685 93.2144 66.2498 93.215 66.2495 93.4018C66.2491 93.5886 66.0613 93.7128 65.8112 93.7123C64.9359 93.7105 65.06 94.1778 65.9665 94.2108C66.4354 94.2428 66.7795 94.119 66.6859 93.9943C66.5925 93.8384 66.6865 93.714 66.8741 93.7144C67.0929 93.7148 67.3112 93.9955 67.4043 94.3382C67.5903 95.0858 67.7778 95.1173 68.6232 94.4963C68.9988 94.2479 69.3741 94.1553 69.499 94.249C69.5926 94.3425 69.6865 94.2805 69.6868 94.0937C69.6873 93.8757 69.8439 93.7203 70.0002 93.7206C70.1878 93.721 70.1558 94.0634 69.8734 94.5922C69.5596 95.1831 69.1527 95.4625 68.5586 95.5236C67.6831 95.5842 66.6815 96.2049 67.4318 96.2064C67.7444 96.207 67.7441 96.3627 67.4617 96.8914C67.2106 97.3683 67.3043 97.41 67.7428 97.0165C68.1185 96.7059 68.3382 96.3016 68.2446 96.1768C68.1512 96.021 68.3077 95.8967 68.5891 95.8973C68.9017 95.8979 68.9952 96.0227 68.8384 96.2715C68.7129 96.4892 69.1513 96.1475 69.8091 95.495C70.4981 94.8737 71.1556 94.3456 71.3119 94.3459C71.4682 94.3463 71.719 94.0043 71.8762 93.5687C72.0334 93.1331 72.3466 92.8224 72.5654 92.854C72.7841 92.9167 72.9719 92.7925 72.9722 92.6368C73.0987 91.8898 73.5377 91.2368 74.0066 91.2378C74.2567 91.2383 74.4132 91.1763 74.3196 91.0827C74.1636 90.9267 76.6698 88.2852 77.1391 88.0682C77.6397 87.8824 79.3002 86.0798 79.1755 85.8616C79.1133 85.737 79.4264 85.4885 79.927 85.3027C80.3962 85.1479 81.3666 84.4648 82.0557 83.8124C83.7784 82.1656 84.5602 82.0426 85.6833 83.1658C86.1825 83.6649 86.5878 84.2262 86.5874 84.413C86.587 84.5998 86.7119 84.6934 86.8684 84.5692C87.0249 84.4761 87.212 84.7256 87.2738 85.0993C87.3355 85.5042 87.5537 85.816 87.7725 85.8164C87.9913 85.8169 88.4282 86.2225 88.771 86.7525C89.4567 87.7813 89.5807 88.3109 89.0811 87.9985C88.4879 87.6237 88.767 88.7452 89.3914 89.1823C89.7347 89.4321 89.9217 89.7127 89.7965 89.8058C89.5772 90.0545 91.2291 92.5175 91.6042 92.5182C91.7605 92.5185 91.8851 92.7367 91.8846 93.0169C91.8832 93.7019 93.037 95.1053 93.2879 94.701C93.382 94.5456 93.6637 94.3904 93.8513 94.3908C94.1326 94.3914 94.1325 94.4537 93.8508 94.6399C93.6004 94.7951 93.5999 95.013 93.9429 95.4496C94.1923 95.7926 94.3797 95.8864 94.3801 95.6684C94.3806 95.4505 94.537 95.3885 94.6931 95.4822C94.8805 95.6071 94.9737 95.8876 94.9418 96.1677C94.784 96.9147 95.8147 97.4149 96.5658 96.9805C97.0667 96.639 97.1291 96.6703 96.972 97.1058C96.8463 97.4169 96.9086 97.5416 97.0964 97.4174C97.2842 97.2933 97.5966 97.4184 97.8149 97.6679C98.0955 98.011 98.3143 98.0426 98.5961 97.8252C98.8153 97.6388 99.1282 97.5149 99.2532 97.5462C99.4094 97.5777 99.7845 97.5784 100.097 97.5479C100.629 97.5178 100.629 97.4556 100.192 97.05C99.5056 96.3636 100.164 95.3374 101.258 95.3707C101.977 95.3722 101.977 95.4033 101.414 95.6513C100.882 95.8682 100.882 95.9305 101.351 95.9314C101.632 95.9631 101.976 95.9949 102.101 96.0263C102.195 96.0888 102.32 95.8711 102.383 95.591C102.415 95.2797 102.166 94.9989 101.666 94.8734C100.947 94.7163 100.916 94.6539 101.355 93.9698C101.825 93.2858 101.794 93.2546 101.075 93.4089C100.48 93.5011 100.356 93.4386 100.513 93.0653C100.764 92.3496 102.045 92.9126 102.074 93.7533C102.135 94.8743 102.416 94.8126 102.637 93.661C102.763 93.1008 103.077 92.4165 103.39 92.1992C103.86 91.8265 103.891 91.8265 103.547 92.2617C103.076 92.8524 102.759 95.1247 103.166 94.8764C103.323 94.7522 103.448 94.4722 103.449 94.2231C103.449 93.974 103.669 93.6942 103.919 93.6013C104.169 93.4773 104.389 93.2286 104.389 93.0107C104.39 92.7927 104.671 92.5442 105.015 92.4515C105.422 92.3589 105.704 91.9235 105.831 91.3322C105.957 90.772 106.114 90.3987 106.176 90.4611C106.238 90.5547 106.959 89.9957 107.773 89.25C108.65 88.4422 109.307 88.0388 109.432 88.2258C109.681 88.6622 109.963 88.1958 109.871 87.4795C109.778 87.0123 110.091 86.7949 110.747 86.9208C110.904 86.9522 110.935 86.8277 110.842 86.6719C110.592 86.2666 111.5 85.6146 111.937 85.8957C112.218 86.0519 112.25 85.9586 112.126 85.6158C111.877 84.9615 112.503 84.558 112.877 85.1191C113.095 85.4621 113.157 85.4622 113.158 85.1509C113.159 84.9329 113.472 84.6533 113.878 84.4984C114.88 84.1268 117.222 85.408 117.22 86.3421C117.219 86.5289 117.344 86.6225 117.469 86.5294C117.595 86.4674 117.75 86.6545 117.75 86.997C117.78 87.3084 118.03 87.8071 118.279 88.0878C118.56 88.3374 118.778 88.7115 118.778 88.8671C118.777 89.3342 119.837 90.3949 120.338 90.3959C120.65 90.3965 120.681 90.49 120.462 90.6453C120.212 90.8004 120.399 91.1433 120.992 91.6738C121.491 92.1418 121.897 92.4228 121.897 92.2983C121.897 92.2049 122.053 92.3297 122.209 92.5791C122.458 92.9844 122.521 92.9534 122.522 92.4864C122.522 92.2061 122.71 91.9574 122.929 91.9578C123.179 91.9583 123.148 91.8337 122.836 91.6463C122.493 91.4277 122.462 91.3342 122.774 91.3348C123.024 91.3353 123.274 91.616 123.367 91.9587C123.46 92.3014 123.678 92.582 123.835 92.5824C123.991 92.5827 124.022 92.427 123.929 92.2712C123.804 92.0841 124.086 91.9601 124.524 91.961C124.961 91.9619 125.367 92.0872 125.367 92.274C125.398 92.4298 125.429 92.7724 125.459 92.9592C125.521 93.3641 126.271 93.3345 126.585 92.9615C126.679 92.8371 126.992 92.7132 127.336 92.6516C127.648 92.59 128.212 92.2486 128.588 91.9068C128.932 91.5339 129.058 91.3473 128.87 91.4715C128.651 91.5956 128.463 91.533 128.464 91.3461C128.464 91.0971 128.746 91.0354 129.183 91.1608C129.683 91.2863 130.027 91.1313 130.341 90.7272C130.56 90.4163 130.904 90.2301 131.06 90.3239C131.217 90.4176 131.749 90.045 132.219 89.5166C132.72 88.9883 133.315 88.5536 133.565 88.5541C133.815 88.5546 134.253 88.2752 134.567 87.9334C134.88 87.5915 135.443 87.3124 135.818 87.3132C136.225 87.314 136.6 87.0968 136.726 86.8479C136.82 86.599 137.039 86.3815 137.227 86.3819C137.414 86.3823 137.508 86.507 137.414 86.6314C137.351 86.7558 137.695 86.9121 138.195 86.9443C138.757 86.9765 139.102 86.8527 139.102 86.6347C139.134 86.3857 139.29 86.4483 139.539 86.7601C139.758 87.0719 140.07 87.3216 140.195 87.3219C140.57 87.3226 143.504 89.5391 144.752 90.7559C146.655 92.6278 148.466 93.9391 148.935 93.7532C149.185 93.6603 149.467 93.7231 149.56 93.9101C149.685 94.066 149.903 94.1287 150.06 94.0357C150.216 93.9114 150.341 94.0674 150.341 94.3164C150.34 94.5655 150.465 94.846 150.621 94.9397C151.089 95.252 151.903 94.7866 151.904 94.2573C151.905 93.8525 151.998 93.8838 152.373 94.3827C152.622 94.6946 152.841 94.8196 152.841 94.6639C152.841 94.4771 152.935 94.5084 153.091 94.6955C153.403 95.1632 156.155 94.4837 156.062 93.9853C156 93.7673 156.188 93.6742 156.532 93.7683C156.906 93.8936 156.844 93.7689 156.314 93.3008C155.502 92.552 155.596 92.4899 156.721 92.9903C157.345 93.3029 157.658 93.2412 158.472 92.6513C159.223 92.1235 159.38 91.8747 159.037 91.6872C158.818 91.5311 158.381 91.4991 158.099 91.5919C157.786 91.6847 157.536 91.622 157.537 91.4663C157.537 90.9993 158.257 90.845 158.819 91.1886C159.318 91.501 161.289 90.8822 161.29 90.4463C161.29 90.3217 161.541 90.1666 161.853 90.1049C162.51 89.9194 162.669 88.9234 162.012 88.9221C161.793 88.9216 161.606 88.7656 161.606 88.5788C161.607 88.4231 161.732 88.3299 161.888 88.4237C162.044 88.5174 162.232 88.2998 162.327 87.9575C162.432 87.5426 162.296 87.5008 161.92 87.8321C161.294 88.3913 160.823 89.667 161.355 89.3255C161.574 89.2326 161.605 89.2949 161.479 89.4815C161.354 89.6992 160.885 89.8228 160.416 89.8218C159.885 89.7896 159.76 89.7271 160.135 89.6345C160.479 89.5417 160.667 89.1996 160.668 88.5769C160.669 88.0787 160.764 87.7053 160.92 87.7056C161.514 87.8002 161.952 87.6454 161.796 87.396C161.672 87.2401 161.859 87.147 162.141 87.2099C162.453 87.2728 162.891 87.3359 163.109 87.3363C163.578 87.3684 163.607 88.3648 163.106 88.862C162.887 89.0795 162.855 89.2351 162.981 89.2354C163.449 89.2363 164.452 87.8995 164.297 87.4944C164.204 87.214 164.423 87.1521 165.079 87.2157C165.61 87.3102 165.923 87.2174 165.83 87.0615C165.705 86.8745 165.893 86.7503 166.237 86.751C166.549 86.7516 167.081 86.5036 167.426 86.1929C167.77 85.8823 168.208 85.6652 168.427 85.759C168.614 85.8217 169.521 85.73 170.428 85.545C171.804 85.2364 172.086 85.2681 172.304 85.6733C172.459 85.9227 172.74 86.1412 172.959 86.1417C173.178 86.1421 173.49 86.3918 173.646 86.7035C174.206 87.7321 175.796 89.8836 176.951 91.1313C177.574 91.7864 178.042 92.41 177.979 92.4722C177.823 92.6276 179.883 94.2507 180.195 94.2513C180.289 94.2515 180.664 94.5325 181.038 94.8757C181.537 95.3437 181.819 95.4066 182.132 95.1581C182.445 94.8785 182.539 94.9098 182.538 95.2835C182.537 95.8439 183.38 96.2192 183.662 95.7839C183.788 95.5662 183.975 95.5977 184.256 95.8162C184.568 96.0659 184.85 96.0664 185.319 95.8494C185.663 95.6633 186.226 95.5087 186.57 95.5094C186.914 95.5101 187.383 95.2931 187.665 95.0446C187.916 94.796 188.323 94.5788 188.542 94.5793C188.854 94.5799 188.823 94.4864 188.48 94.2678C188.105 94.018 188.136 93.9558 188.73 93.9569C189.137 93.9577 189.418 93.8027 189.356 93.5534C189.294 93.3665 189.357 93.1798 189.482 93.18C189.92 93.1809 190.954 91.9998 190.767 91.6881C190.642 91.5011 190.83 91.4392 191.205 91.5333C191.986 91.7528 193.991 89.8575 193.617 89.2652C193.492 89.047 193.523 88.9848 193.742 89.1098C193.929 89.2036 194.273 89.1108 194.493 88.8622C194.743 88.6447 195.369 88.2101 195.933 87.931C196.496 87.6519 196.934 87.3103 196.934 87.1857C196.935 87.0612 197.404 86.9687 197.998 86.9699C198.592 86.9711 198.998 87.0653 198.935 87.1586C198.747 87.4695 199.621 88.094 199.84 87.8454C199.966 87.7522 200.059 87.8147 200.059 88.0326C200.058 88.2506 200.37 88.6871 200.776 89.0304C201.213 89.3737 201.306 89.5919 201.025 89.6224C200.493 89.6214 201.335 90.993 202.458 91.9604C202.864 92.3037 203.176 92.7714 203.175 92.9582C203.174 93.4564 204.361 94.1126 205.361 94.208C205.799 94.24 206.173 94.4276 206.235 94.6145C206.298 94.7703 206.516 94.833 206.704 94.7088C206.892 94.5847 206.954 94.7093 206.829 95.0204C206.703 95.3627 206.89 95.5499 207.515 95.7068C208.734 95.9583 210.079 95.5874 210.956 94.7173C211.363 94.3445 211.832 94.0029 211.989 94.0032C212.145 94.0035 212.177 93.8479 212.083 93.6921C211.99 93.5051 211.74 93.38 211.584 93.3797C211.396 93.3793 211.333 93.5038 211.458 93.6597C211.645 94.0026 210.424 94.7785 210.143 94.4977C210.018 94.4041 209.737 94.4969 209.486 94.6833C208.954 95.1181 208.172 95.2722 208.173 94.9608C208.173 94.8052 208.549 94.4323 208.987 94.1218C209.426 93.8113 209.989 93.3766 210.209 93.159C210.428 92.9415 210.709 92.8798 210.865 93.0047C211.021 93.1295 210.928 92.9425 210.679 92.6306C210.429 92.2877 210.367 92.1007 210.586 92.2257C210.773 92.3506 211.148 92.258 211.399 92.0094C211.649 91.7608 211.931 91.6057 212.025 91.6993C212.118 91.824 212.494 91.7002 212.838 91.4518C213.214 91.2035 213.402 90.8925 213.277 90.7989C213.183 90.6741 213.246 90.5808 213.434 90.5812C213.621 90.5816 213.746 90.862 213.714 91.2045C213.682 91.578 213.494 91.7956 213.181 91.7327C212.9 91.701 212.743 91.8564 212.805 92.199C212.898 92.8219 212.366 92.9454 212.148 92.3534C212.024 92.0729 211.899 92.1038 211.648 92.4458C211.397 92.7878 211.491 93.0059 212.021 93.2872C212.615 93.5997 212.865 93.5379 213.71 92.8858C214.243 92.4821 214.837 92.1408 214.994 92.1411C215.15 92.1414 215.463 91.9241 215.682 91.6754C215.902 91.3956 215.933 91.2089 215.746 91.2085C215.589 91.2082 215.34 90.9586 215.215 90.647C215.06 90.242 215.123 90.211 215.403 90.4917C215.59 90.6789 215.965 90.7731 216.184 90.6801C216.435 90.5872 216.685 90.7434 216.809 90.9927C216.933 91.3666 217.183 91.3982 217.903 91.2128C218.403 91.0581 218.81 91.0278 218.809 91.1523C218.809 91.2769 219.278 91.3401 219.809 91.3411C220.403 91.3112 220.81 91.1252 220.779 90.9383C220.717 90.7514 220.843 90.5959 221.03 90.5963C221.218 90.5967 221.28 90.877 221.154 91.2193C220.965 91.8416 221.215 91.9978 222.184 91.8752C222.403 91.8445 222.528 92.0004 222.496 92.2183C222.433 92.405 222.558 92.6232 222.714 92.6235C223.683 92.7499 224.714 93.1879 224.588 93.4367C224.494 93.5611 224.713 93.6238 225.057 93.5622C225.463 93.5007 225.682 93.5946 225.681 93.9059C225.681 94.155 225.806 94.3109 225.962 94.2178C226.119 94.0936 226.306 94.1874 226.368 94.3743C226.43 94.5613 226.868 94.7178 227.337 94.7188C227.806 94.7197 228.337 94.9387 228.524 95.157C228.711 95.4065 229.148 95.5942 229.461 95.5948C229.805 95.5955 230.054 95.6894 230.054 95.8139C230.054 95.9696 230.397 96.2194 230.834 96.4382C231.272 96.6259 231.553 96.6576 231.46 96.5328C231.366 96.377 231.46 96.2215 231.679 96.1597C231.867 96.0978 231.93 95.8488 231.805 95.6306C231.618 95.3811 231.462 95.3497 231.149 95.5981C230.867 95.8155 230.648 95.784 230.368 95.4409C230.024 95.0355 230.15 94.9734 231.15 94.9754C232.15 94.9774 232.276 94.9154 231.901 94.4788C231.621 94.1357 231.433 94.1042 231.37 94.3532C231.276 94.5709 231.026 94.5082 230.589 94.1337C230.027 93.6344 229.965 93.6343 230.151 94.1017C230.276 94.4755 230.213 94.5688 229.869 94.4436C228.963 94.0993 229.465 93.571 230.59 93.6978C230.777 93.7293 231.028 93.6052 231.153 93.4187C231.247 93.2632 231.498 93.108 231.654 93.1083C231.842 93.1087 231.904 93.2334 231.778 93.3888C231.684 93.5754 231.872 93.6692 232.216 93.6387C232.632 93.6188 232.643 93.4216 232.248 93.0472C231.468 92.2984 230.561 92.2966 230.81 93.0132C230.965 93.4806 230.903 93.4493 230.529 92.9504C230.217 92.5761 230.155 92.2958 230.374 92.234C230.53 92.172 230.687 91.861 230.688 91.5496C230.689 91.2382 230.846 90.8649 231.002 90.7718C231.221 90.6477 231.283 90.8347 231.126 91.3637C230.937 92.1105 230.999 92.1729 231.937 92.1748C232.5 92.1759 232.844 92.3011 232.718 92.4877C232.593 92.6743 232.936 92.7995 233.53 92.8007C234.468 92.8025 234.499 92.8338 233.967 93.2063C233.529 93.5479 233.497 93.7035 233.809 93.891C234.09 94.0472 234.153 94.0162 233.997 93.7668C233.841 93.5485 234.123 93.3623 234.749 93.2079C235.312 93.1156 235.812 92.8364 235.906 92.6186C236.001 92.3697 236.314 92.1835 236.595 92.1841C236.97 92.1848 237.001 92.2472 236.688 92.4645C236.344 92.6506 236.375 92.7752 236.812 92.9318C237.5 93.1822 238.032 92.6851 237.752 92.0307C237.628 91.688 237.378 91.5629 237.002 91.7178C236.596 91.8727 236.565 91.8104 236.847 91.5307C237.128 91.2511 237.441 91.2828 238.222 91.6891C239.471 92.3143 239.44 92.3143 239.441 91.5359C239.442 91.1311 239.567 90.9757 239.848 91.1319C240.036 91.2568 240.005 91.1634 239.755 90.9138C239.505 90.6642 239.131 90.2587 238.913 90.0092C238.57 89.6038 238.538 89.6037 238.694 90.0711C238.818 90.4761 238.724 90.5381 238.224 90.4126C237.849 90.3184 237.568 90.0999 237.569 89.9443C237.569 89.7886 237.694 89.7266 237.85 89.8514C238.006 89.9451 238.225 89.8833 238.351 89.7278C238.445 89.5412 238.757 89.5107 239.039 89.6047C239.32 89.7298 239.476 89.6678 239.351 89.5119C239.258 89.3249 239.415 89.0139 239.728 88.7965C240.292 88.3929 240.295 86.8984 239.732 86.8973C239.576 86.897 239.545 86.7101 239.639 86.4923C239.733 86.2434 239.421 85.8069 238.984 85.4636C238.547 85.1513 238.205 84.6214 238.205 84.31C238.206 83.7807 238.175 83.7806 237.705 84.2156C237.267 84.6506 237.142 84.6192 236.393 83.9327C235.925 83.4959 235.457 83.1525 235.363 83.1523C234.956 83.1515 233.459 81.5295 233.398 81.0312C233.336 80.6886 232.774 80.3449 231.774 80.0627C230.93 79.8431 229.9 79.374 229.494 79.0619C228.682 78.4064 228.057 78.2806 228.4 78.8106C228.525 79.0599 228.368 79.0908 227.869 78.9341C227.462 78.8087 226.994 78.6833 226.806 78.6518C226.65 78.6514 226.306 78.4328 226.088 78.2145C225.526 77.7152 225.026 77.7453 225.15 78.2748C225.212 78.5241 225.118 78.7418 224.93 78.7103C224.774 78.71 224.649 78.5852 224.681 78.4607C224.712 78.3362 224.556 78.118 224.307 78.0241C224.057 77.9302 223.838 78.0232 223.837 78.21C223.837 78.4279 223.712 78.4277 223.462 78.2404C223.119 77.9906 221.056 77.9242 220.805 78.1416C220.648 78.2659 220.086 78.3582 219.429 78.4191C218.96 78.4493 218.835 78.6048 218.959 78.9164C219.083 79.2902 218.927 79.3522 218.177 79.2262C217.396 79.0689 217.177 79.1619 217.051 79.691C216.956 80.0333 216.737 80.313 216.58 80.3127C216.424 80.3124 216.362 80.1877 216.456 80.0323C216.55 79.9079 216.269 79.8451 215.862 79.9377C215.456 79.9991 215.143 80.2165 215.173 80.4345C215.204 80.6213 215.016 80.7766 214.766 80.7761C214.516 80.7757 214.11 80.8994 213.922 81.0236C213.671 81.1787 213.515 81.1161 213.516 80.9293C213.516 80.7425 213.391 80.6489 213.235 80.7731C213.047 80.8661 212.828 80.7411 212.672 80.4918C212.548 80.2424 212.298 80.024 212.111 80.0236C211.954 79.9922 211.798 79.8673 211.799 79.6805C211.799 79.5248 211.394 78.9636 210.926 78.4333C210.427 77.903 209.99 77.3106 209.959 77.0926C209.836 76.1894 208.837 75.4402 208.836 76.2497C208.835 76.4054 209.054 76.5615 209.335 76.562C209.585 76.5625 209.71 76.7185 209.616 76.9051C209.365 77.2782 208.21 76.373 208.305 75.875C208.337 75.7194 208.087 75.4076 207.744 75.2201C207.4 75.0014 207.057 74.7828 206.963 74.6892C206.87 74.5956 206.401 74.4701 205.901 74.438C205.369 74.4058 204.901 74.2492 204.776 74.0932C204.683 73.9062 204.151 73.8118 203.62 73.8108C202.87 73.8404 202.682 73.9646 202.806 74.3384C202.962 74.7746 202.93 74.7746 202.431 74.3377C201.994 73.9009 201.682 73.8692 200.9 74.1167C200.368 74.2713 199.085 74.6424 198.053 74.9517C196.99 75.2609 196.207 75.633 196.238 75.851C196.3 76.0691 196.112 76.2244 195.862 76.2239C195.612 76.2234 195.393 76.4409 195.392 76.7211C195.392 76.9702 195.267 77.1256 195.142 77.032C194.829 76.8445 193.514 77.9628 193.513 78.3676C193.513 78.5232 193.138 78.7404 192.668 78.8329C192.231 78.9566 191.573 79.3912 191.26 79.8264C190.915 80.2305 190.477 80.5721 190.227 80.5716C190.008 80.5712 189.663 80.7884 189.413 81.0682C189.068 81.5034 189.005 81.5033 188.725 81.0045C188.476 80.5993 188.382 80.5679 188.163 80.91C187.943 81.2521 187.881 81.2519 187.881 80.8472C187.882 80.567 187.602 80.0994 187.258 79.7873C186.915 79.4753 186.635 79.0389 186.635 78.7898C186.636 78.5407 186.511 78.4159 186.354 78.509C186.198 78.6021 185.823 78.3211 185.543 77.8847C185.169 77.3235 185.138 77.1366 185.419 77.2928C185.669 77.4179 185.544 77.2308 185.138 76.9187C184.639 76.5129 184.483 76.1389 184.609 75.7344C184.766 75.33 184.735 75.2365 184.547 75.4853C184.171 76.0138 183.047 75.2332 183.049 74.4548C183.049 74.0812 182.706 73.7691 182.113 73.5811C181.613 73.4244 180.707 73.0802 180.113 72.8299C179.551 72.5797 178.895 72.3604 178.708 72.3289C178.52 72.2974 178.208 72.2034 178.052 72.0785C177.864 71.9536 176.614 71.92 175.238 71.9795C172.706 72.0679 169.609 72.9024 169.17 73.6176C168.857 74.1463 166.76 75.2319 166.51 75.0134C166.417 74.8887 166.323 74.9819 166.322 75.1999C166.322 75.449 166.072 75.5107 165.634 75.4164C165.228 75.3222 165.103 75.322 165.322 75.4158C165.603 75.5409 165.446 75.7897 164.757 76.1931C164.225 76.5345 163.662 76.7202 163.537 76.6577C163.287 76.5015 161.721 77.9618 161.877 78.2112C162.126 78.6787 161.844 78.9584 161.188 78.7702C160.688 78.6447 160.407 78.7376 160.281 79.0798C159.778 80.3865 156.589 80.816 155.684 79.6934C155.466 79.475 155.185 79.3499 155.029 79.443C154.872 79.5361 154.747 79.4424 154.748 79.2556C154.748 79.0688 154.405 78.6011 153.999 78.2267C153.313 77.5714 153.188 77.3844 153.189 76.8239C153.19 76.6994 153.064 76.7925 152.908 77.0413C152.688 77.3834 152.5 77.383 151.907 76.9459C151.502 76.6649 151.314 76.4466 151.502 76.4469C151.658 76.4472 152.002 76.6348 152.22 76.822C152.532 77.134 152.532 77.0717 152.221 76.5107C151.972 76.1365 151.566 75.8555 151.284 75.8861C151.003 75.9478 150.784 75.854 150.753 75.7293C150.723 75.2623 149.63 74.6062 148.911 74.5736C148.536 74.5729 148.13 74.4164 148.005 74.2294C147.881 74.0423 147.38 73.979 146.755 74.1023C145.879 74.2563 145.723 74.1937 145.88 73.7892C146.037 73.3848 145.85 73.291 144.724 73.351C142.724 73.4093 139.753 73.995 139.94 74.3067C140.033 74.4315 139.564 74.555 138.907 74.5537C138.126 74.5522 137.876 74.6451 138.125 74.8324C138.469 75.051 138.469 75.1133 138.093 75.2682C137.843 75.3612 137.468 75.267 137.25 75.0798C136.938 74.7989 136.906 74.7989 137.062 75.0794C137.187 75.2976 137.124 75.4842 136.967 75.4839C136.78 75.4836 136.624 75.3587 136.624 75.1719C136.624 75.0162 136.406 74.9535 136.124 75.0775C135.749 75.2013 135.749 75.3258 136.03 75.4821C136.279 75.6694 136.216 75.8249 135.747 76.0731C135.278 76.3212 135.059 76.3208 134.966 76.0093C134.841 75.7911 134.778 75.8221 134.778 76.1334C134.746 76.4447 134.214 76.8796 133.525 77.1584C132.837 77.4061 132.023 77.9027 131.71 78.2445C130.958 79.0214 129.426 79.0184 129.428 78.24C129.428 77.9286 129.148 77.4922 128.805 77.2736C128.461 77.0549 128.18 76.7119 128.181 76.5251C128.181 76.3071 127.557 75.6832 126.777 75.1212C126.028 74.5281 125.373 73.8107 125.373 73.5305C125.375 72.9078 123.907 72.0642 122.688 71.9684C122.25 71.9052 121.782 71.7175 121.72 71.4994C121.626 71.2813 121.439 71.1563 121.314 71.2495C121.157 71.3426 120.97 71.2799 120.877 71.1241C120.783 70.9993 120.127 70.9669 119.376 71.0899C118.657 71.2442 117.875 71.2738 117.657 71.1799C117.438 71.0861 117.25 71.1791 117.25 71.3659C117.249 71.5528 117.155 71.6771 117.03 71.6457C116.374 71.4576 114.747 72.0459 114.747 72.4818C114.746 72.7309 114.589 72.9486 114.402 72.9482C114.245 72.9479 114.183 73.1034 114.276 73.2593C114.401 73.4775 114.213 73.5394 113.682 73.3827C113.182 73.2571 112.869 73.3188 112.869 73.5056C112.868 73.6924 112.555 73.9408 112.18 74.0646C111.46 74.3123 111.242 74.343 110.46 74.4349C110.241 74.4656 110.053 74.652 110.053 74.8388C110.052 75.0879 110.24 75.0571 110.615 74.7776C110.929 74.5292 110.897 74.6537 110.49 75.0888C110.145 75.4617 109.582 75.8031 109.3 75.8648C108.988 75.8953 108.643 76.1126 108.518 76.3303C108.392 76.548 108.142 76.672 107.986 76.6405C107.33 76.5147 107.173 76.7012 107.578 77.2002C107.796 77.512 107.859 77.6678 107.734 77.543C107.578 77.4181 107.265 77.5421 107.014 77.8529C106.722 78.1844 106.628 78.1739 106.733 77.8212C106.827 77.4789 106.796 77.3232 106.609 77.4473C106.421 77.5404 106.295 77.9138 106.294 78.2874C106.294 78.6921 106.137 78.8475 105.856 78.7535C105.543 78.6284 105.449 78.7216 105.574 79.0332C105.667 79.3136 105.542 79.469 105.167 79.4683C104.698 79.4673 104.666 79.5295 105.01 79.7482C105.447 80.0293 105.227 80.7138 104.695 80.7127C104.508 80.7124 104.477 80.5255 104.602 80.3078C104.79 80.0591 104.696 80.0589 104.321 80.3695C103.945 80.6801 103.882 80.9291 104.1 81.3654C104.349 81.8329 104.318 81.8952 103.974 81.7699C103.724 81.676 103.38 81.8621 103.16 82.2665C102.972 82.6086 102.69 82.826 102.534 82.7323C102.378 82.6385 102.19 82.7004 102.065 82.887C101.72 83.4468 101.283 82.8855 101.285 81.9203C101.286 81.3287 101.131 81.017 100.818 81.0164C100.537 81.0158 100.35 80.7352 100.351 80.3616C100.352 79.6455 99.4176 77.9 99.0425 77.8993C98.9174 77.899 98.7927 77.7431 98.7932 77.5252C98.7935 77.3384 98.4197 76.6838 97.9832 76.1225C97.3908 75.3429 97.0786 75.1243 96.828 75.3729C96.6401 75.5594 96.3584 75.7145 96.2021 75.7142C96.0458 75.7138 96.1713 75.4962 96.4219 75.2164C97.0171 74.626 96.7993 74.1274 96.0486 74.3439C95.6106 74.4987 95.5794 74.4675 95.9863 74.1881C96.3934 73.8775 96.3935 73.8153 95.9876 73.5342C95.7379 73.3781 95.6444 73.2222 95.7694 73.2225C95.9257 73.2228 95.7391 72.7865 95.365 72.2565C94.8973 71.6328 94.4602 71.3517 93.9912 71.4131C93.6473 71.4435 93.1472 71.3802 92.9287 71.2241C92.7101 71.0991 92.4289 71.0363 92.3662 71.1296C92.2722 71.2228 91.7097 71.0972 91.1163 70.8469C90.4916 70.5966 89.7103 70.4705 89.2098 70.594C88.6468 70.7486 88.4593 70.7171 88.6162 70.4371C88.7416 70.2506 88.6481 70.0947 88.3668 70.0942C88.0854 70.0936 87.8663 70.2488 87.8659 70.4356ZM124.437 73.0304C124.436 73.2173 124.249 73.1857 123.968 72.9672C123.718 72.7488 123.5 72.5304 123.5 72.4681C123.5 72.4059 123.719 72.4374 123.969 72.5313C124.218 72.6564 124.437 72.8748 124.437 73.0304ZM79.3826 76.1788C79.1945 76.4276 78.9129 76.5515 78.8194 76.4268C78.7258 76.3021 78.8199 76.1466 79.0389 76.0848C79.2266 75.9917 79.3209 75.774 79.2274 75.6181C79.1028 75.3999 79.1654 75.3689 79.3839 75.4939C79.6649 75.6812 79.6646 75.8369 79.3826 76.1788ZM106.385 79.6264C106.291 79.9064 106.134 80.0618 106.072 79.9682C105.979 79.8746 106.01 79.6879 106.136 79.5013C106.418 79.0037 106.605 79.0975 106.385 79.6264ZM138.673 82.524C138.672 82.8042 138.828 83.1159 139.078 83.2098C139.39 83.3038 139.453 83.2105 139.328 82.8366C139.204 82.525 139.236 82.3694 139.423 82.4943C139.61 82.5881 139.735 82.8997 139.734 83.1177C139.734 83.3667 139.921 83.4917 140.14 83.3987C140.609 83.2439 141.92 84.3674 141.888 84.9278C141.887 85.208 141.825 85.2079 141.7 84.8963C141.638 84.7094 141.357 84.522 141.107 84.5215C140.857 84.521 140.576 84.3336 140.483 84.1155C140.296 83.617 139.358 83.6151 138.732 84.112C138.513 84.2673 138.106 84.5466 137.856 84.6707C137.449 84.8878 137.449 84.8567 137.793 84.4526C138.138 84.0174 138.044 84.0172 136.918 84.2952C136.23 84.4807 135.823 84.7289 135.98 84.8226C136.136 84.9164 135.979 85.1651 135.666 85.3825C135.134 85.6928 135.04 85.6926 135.041 85.2567C135.042 84.6651 134.073 84.7877 133.853 85.41C133.758 85.6589 133.852 85.7525 134.04 85.6595C134.509 85.349 134.694 86.5014 134.287 87.1856C133.722 88.1185 133.097 88.0861 133.161 87.0899C133.258 85.7824 133.196 85.5332 132.851 86.0618C132.663 86.3417 132.538 86.3726 132.538 86.1546C132.539 85.6876 133.885 84.7873 135.668 84.0436C136.451 83.7338 137.421 83.1442 137.859 82.7403C138.768 81.9015 138.736 81.9014 138.673 82.524ZM170.747 82.5878C170.34 82.8672 169.933 82.9909 169.839 82.8973C169.715 82.8037 169.809 82.7105 170.027 82.7109C170.246 82.7113 170.309 82.5558 170.216 82.3999C170.122 82.2129 170.341 82.0888 170.748 82.0896L171.435 82.091L170.747 82.5878ZM173.029 82.4055C172.935 82.561 173.247 82.8107 173.716 82.9051C174.497 83.1246 174.497 83.1557 173.965 83.3726C173.089 83.7133 172.808 83.7128 173.027 83.3707C173.121 83.2152 173.059 82.9972 172.872 82.8723C172.56 82.6848 172.717 82.0936 173.061 82.0942C173.155 82.0944 173.123 82.2189 173.029 82.4055ZM97.063 82.877C97.1565 83.0329 97.0937 83.1885 96.9374 83.1882C96.7498 83.1878 96.5938 83.0318 96.5941 82.8761C96.5945 82.6893 96.6573 82.5649 96.7198 82.565C96.8136 82.5652 96.9696 82.69 97.063 82.877ZM138.354 85.5124C138.448 85.6371 138.76 85.6377 139.042 85.5449C139.417 85.4211 139.386 85.5144 138.947 85.856C138.321 86.3218 137.509 86.1645 137.072 85.4475C136.854 85.1046 138.011 85.2003 138.354 85.5124ZM165.832 86.0341C166.269 86.3775 166.3 86.4709 165.956 86.3457C165.675 86.2517 165.268 86.3443 165.049 86.5307C164.736 86.8103 164.611 86.81 164.518 86.4985C164.424 86.3115 164.237 86.1866 164.081 86.3108C163.924 86.4039 163.799 86.3102 163.8 86.1234C163.8 85.9366 164.144 85.875 164.675 86.0006C165.331 86.1265 165.425 86.0955 165.051 85.8457C164.801 85.6584 164.739 85.5026 164.895 85.5029C165.082 85.5344 165.488 85.7532 165.832 86.0341ZM136.508 86.1002C136.227 86.2865 136.039 86.5352 136.132 86.7222C136.257 86.8781 136.038 87.0022 135.694 87.0016C134.912 87 134.82 86.1592 135.602 85.9739C136.666 85.6958 137.103 85.7589 136.508 86.1002ZM220.694 86.6726C220.694 86.7348 220.475 86.8901 220.193 86.9829C219.943 87.0758 219.818 87.0444 219.912 86.8578C220.1 86.5468 220.695 86.4235 220.694 86.6726ZM132.347 88.0846C131.533 88.6746 131.377 88.3629 132.098 87.586C132.442 87.213 132.724 87.0891 132.786 87.3071C132.848 87.4941 132.66 87.8362 132.347 88.0846ZM223.037 87.4868C223.162 87.6738 223.13 87.7983 222.974 87.7669C222.349 87.6722 222.192 87.8276 222.567 88.2642C222.847 88.6073 222.847 88.7318 222.597 88.7313C222.409 88.7309 222.16 88.5125 222.066 88.2632C221.942 88.0139 221.755 87.889 221.598 87.9821C221.442 88.0751 221.317 88.0749 221.317 87.9504C221.317 87.8258 222.037 87.4225 222.788 87.206C222.819 87.175 222.944 87.3309 223.037 87.4868ZM219.222 88.0085C219.159 88.2263 219.409 88.4759 219.752 88.57C220.096 88.6952 220.377 88.9137 220.377 89.1005C220.376 89.2873 220.189 89.2869 219.908 89.0373C219.533 88.7252 219.44 88.725 219.439 89.1609C219.438 89.4411 219.219 89.6586 218.969 89.6581C218.719 89.6576 218.5 89.5015 218.5 89.3459C218.501 89.159 218.657 89.0348 218.845 89.0352C219.001 89.0355 219.064 88.88 218.939 88.6929C218.815 88.4436 218.659 88.4744 218.47 88.7542C218.251 89.0963 218.095 89.096 217.658 88.6281C217.159 88.1601 217.159 88.0355 217.566 87.7872C218.192 87.3837 219.317 87.5416 219.222 88.0085ZM122.218 88.2513C122.217 88.4381 122.092 88.469 121.905 88.3752C121.749 88.2815 121.593 88.0321 121.593 87.8764C121.594 87.6896 121.75 87.6588 121.906 87.7525C122.093 87.8463 122.218 88.0956 122.218 88.2513ZM216.47 88.4078C216.157 88.7496 215.781 89.0291 215.656 89.0288C215.187 89.0279 215.721 88.1261 216.252 88.0026C216.565 87.9098 216.847 87.8481 216.909 87.817C216.972 87.8172 216.784 88.0659 216.47 88.4078ZM225.691 88.8931C225.847 89.0803 225.66 89.2044 225.253 89.2036C224.659 89.2024 224.628 89.109 224.911 88.518C225.099 88.1136 225.287 87.9894 225.349 88.2075C225.411 88.4256 225.567 88.7061 225.691 88.8931ZM214.906 89.0273C214.812 89.1828 214.53 89.338 214.343 89.3376C214.124 89.3371 214.155 89.2127 214.437 89.0264C215.032 88.654 215.157 88.6542 214.906 89.0273ZM222.221 89.1665C222.533 89.5407 222.501 89.6029 222.064 89.5398C221.751 89.4769 221.439 89.2895 221.377 89.1025C221.222 88.5729 221.784 88.6363 222.221 89.1665ZM124.404 89.1586C124.404 89.3143 124.341 89.4698 124.278 89.4697C124.185 89.4695 124.029 89.3135 123.935 89.1576C123.842 88.9706 123.905 88.8462 124.061 88.8465C124.248 88.8469 124.405 88.9718 124.404 89.1586ZM127.843 89.1654C127.843 89.3211 127.78 89.4766 127.717 89.4765C127.623 89.4763 127.467 89.3204 127.374 89.1645C127.281 88.9775 127.343 88.8531 127.5 88.8534C127.687 88.8538 127.843 88.9786 127.843 89.1654ZM217.969 89.5628C217.937 89.7807 218.374 89.8749 219.093 89.8452C219.781 89.8466 220.25 89.9098 220.156 90.0342C220.093 90.1897 219.405 90.2817 218.624 90.2802C217.655 90.2782 217.28 90.153 217.436 89.9353C217.531 89.7487 217.437 89.4683 217.219 89.2811C216.875 89.0624 216.938 89.0314 217.407 89.1257C217.751 89.1887 218 89.376 217.969 89.5628ZM126.435 89.7853C126.528 89.9412 126.466 90.0967 126.309 90.0964C126.122 90.0961 125.966 89.9401 125.966 89.7844C125.966 89.5976 126.029 89.4732 126.092 89.4733C126.185 89.4735 126.341 89.5983 126.435 89.7853ZM129.091 90.102C129.091 90.4756 128.871 90.7242 128.59 90.7237C128.184 90.7229 128.153 90.6294 128.435 90.3186C128.623 90.0699 128.686 89.7898 128.561 89.6962C128.467 89.5714 128.53 89.4781 128.718 89.4785C128.936 89.479 129.092 89.7595 129.091 90.102ZM237.192 90.4728C237.099 90.566 236.911 90.41 236.818 90.0984C236.631 89.6622 236.663 89.6311 236.975 89.912C237.193 90.1303 237.286 90.3796 237.192 90.4728ZM123.621 90.0911C123.527 90.2466 123.245 90.4017 123.057 90.4013C122.839 90.4009 122.87 90.2764 123.152 90.0901C123.747 89.7177 123.872 89.718 123.621 90.0911ZM226.812 91.2928C226.624 91.417 226.374 91.3542 226.281 91.1672C226.156 90.9802 225.781 90.9171 225.406 91.0098C225.031 91.1025 224.687 91.0706 224.624 90.946C224.531 90.8212 224.781 90.6972 225.156 90.6979C225.532 90.6676 225.876 90.4814 225.939 90.2947C226.033 90.077 226.283 90.1709 226.626 90.5141C226.969 90.8884 227.031 91.1376 226.812 91.2928ZM211.933 90.765C211.932 91.0141 211.807 91.1384 211.62 91.0446C211.463 90.9509 211.307 91.1063 211.275 91.4176C211.274 91.9157 211.243 91.9157 211.025 91.3548C210.807 90.7939 211.027 90.5141 211.871 90.2979C211.902 90.2668 211.933 90.4848 211.933 90.765ZM223.187 90.6006C223.187 90.7563 223.124 90.9118 223.061 90.9117C222.968 90.9115 222.812 90.7555 222.718 90.5997C222.625 90.4127 222.688 90.2883 222.844 90.2886C223.031 90.2889 223.188 90.4138 223.187 90.6006ZM159.726 90.7857C159.726 90.9413 159.601 91.0968 159.413 91.0964C159.257 91.0961 159.101 90.9401 159.101 90.7844C159.101 90.5976 159.258 90.4734 159.414 90.4737C159.602 90.4741 159.727 90.5988 159.726 90.7857ZM219.967 90.781C219.873 90.8742 219.591 90.9048 219.373 90.811C219.123 90.7171 219.217 90.6238 219.561 90.6245C219.905 90.5941 220.092 90.6878 219.967 90.781ZM232.878 90.9312C232.877 91.0869 232.658 91.1488 232.408 91.0549C232.159 90.9298 231.94 90.8048 231.94 90.7426C231.94 90.6803 232.159 90.6185 232.409 90.619C232.659 90.6195 232.878 90.7444 232.878 90.9312ZM234.128 91.0894C233.908 91.3381 233.595 91.5554 233.408 91.555C233.22 91.5546 233.346 91.3369 233.69 91.0885C234.473 90.4985 234.629 90.4988 234.128 91.0894ZM239.129 91.255C239.128 91.7844 239.065 91.8465 238.691 91.5033C238.379 91.2224 238.348 91.0356 238.63 90.8804C239.131 90.5389 239.131 90.5701 239.129 91.255ZM155.443 90.9951C155.224 91.0569 154.849 91.0562 154.661 90.9935C154.443 90.8997 154.599 90.8377 155.037 90.8386C155.475 90.8395 155.631 90.9021 155.443 90.9951ZM72.286 91.8882C72.0662 92.3548 71.6276 92.8209 71.3148 92.9137C71.002 93.0169 71.0126 92.9339 71.3466 92.6647C71.691 92.3852 71.7853 92.1363 71.598 92.0114C71.192 91.7926 71.7875 91.0154 72.3502 91.0165C72.6003 91.017 72.5998 91.2972 72.286 91.8882ZM127.776 91.5627C127.68 92.2164 127.211 92.6202 126.836 92.4015C126.43 92.1516 126.556 91.6537 126.994 91.7169C127.181 91.7795 127.338 91.6241 127.307 91.4061C127.245 91.2192 127.37 91.0326 127.527 91.0329C127.714 91.0333 127.839 91.2827 127.776 91.5627ZM187.704 91.4641C187.61 91.6195 187.328 91.6813 187.078 91.5562C186.422 91.337 186.485 91.1503 187.267 91.1518C187.611 91.1525 187.829 91.2775 187.704 91.4641ZM190.016 92.1225C189.765 92.2777 189.296 92.3702 188.952 92.3695L188.327 92.3371L188.953 92.1827C189.297 92.0899 189.704 91.8105 189.861 91.5306C190.08 91.1263 190.205 91.1265 190.299 91.4381C190.361 91.6562 190.235 91.9672 190.016 92.1225ZM229.437 91.7028C229.78 92.1082 229.749 92.1393 229.312 91.9828C229.03 91.8888 228.812 91.6704 228.812 91.5147C228.813 91.11 229.001 91.1726 229.437 91.7028ZM156.598 91.8692C156.597 92.1494 156.316 92.3357 155.909 92.3037C155.378 92.2715 155.315 92.2403 155.753 92.1166C156.035 92.0549 156.285 91.8374 156.286 91.6817C156.286 91.5261 156.349 91.4016 156.443 91.4018C156.536 91.402 156.598 91.6201 156.598 91.8692ZM62.1247 92.5218C61.9057 92.6459 61.5931 92.6141 61.3746 92.458C61.1874 92.2709 60.9687 92.2081 60.8747 92.3014C60.812 92.3946 60.7185 92.2699 60.719 92.0208C60.7196 91.7095 60.9072 91.6787 61.5944 91.9603C62.188 92.1483 62.3439 92.3666 62.1247 92.5218ZM102.828 91.8867C102.828 92.0735 102.702 92.2912 102.515 92.3842C102.358 92.4773 102.202 92.3525 102.203 92.1034C102.203 91.8232 102.36 91.6055 102.516 91.6059C102.704 91.6062 102.829 91.731 102.828 91.8867ZM152.127 92.1716C152.126 92.4207 152.001 92.545 151.845 92.4513C151.689 92.3576 151.658 92.1396 151.752 91.9841C152.034 91.5799 152.128 91.6423 152.127 92.1716ZM186.546 92.209C186.326 92.4577 186.076 92.5817 186.013 92.5504C185.858 92.3633 186.328 91.7727 186.64 91.7733C186.797 91.7736 186.765 91.9604 186.546 92.209ZM184.107 92.391C184.107 92.5466 184.044 92.7022 183.981 92.7021C183.887 92.7019 183.731 92.5459 183.638 92.39C183.545 92.203 183.607 92.0786 183.764 92.0789C183.951 92.0793 184.107 92.2041 184.107 92.391ZM187.449 93.861C187.104 94.2028 186.917 94.2647 186.917 94.0156C186.918 93.7977 187.074 93.6423 187.262 93.6427C187.449 93.643 187.512 93.4252 187.388 93.0825C187.232 92.6463 187.264 92.6152 187.576 92.9583C187.919 93.2704 187.887 93.426 187.449 93.861ZM227.778 92.976C227.684 93.0693 227.402 93.0999 227.184 93.006C226.934 92.9121 227.028 92.8189 227.372 92.8196C227.716 92.7891 227.903 92.8829 227.778 92.976ZM183.323 93.3235C183.417 93.4793 183.354 93.6349 183.198 93.6346C183.01 93.6342 182.854 93.4782 182.855 93.3225C182.855 93.1357 182.918 93.0113 182.98 93.0114C183.074 93.0116 183.23 93.1365 183.323 93.3235ZM188.794 93.3344C188.794 93.49 188.731 93.6456 188.669 93.6455C188.575 93.6453 188.419 93.4893 188.325 93.3334C188.232 93.1464 188.295 93.022 188.451 93.0223C188.638 93.0227 188.795 93.1475 188.794 93.3344ZM151.593 93.5717C151.592 93.7273 151.436 93.8827 151.248 93.8823C151.092 93.882 151.03 93.7262 151.124 93.5707C151.218 93.3841 151.374 93.2599 151.468 93.2601C151.531 93.2602 151.593 93.3849 151.593 93.5717ZM153.906 93.5451C154.187 93.9816 152.904 94.1658 152.561 93.7604C152.343 93.5109 152.468 93.3866 153 93.3254C153.406 93.2951 153.813 93.3893 153.906 93.5451ZM61.3705 94.513C61.5881 95.105 61.4319 95.0735 60.7769 94.325C60.2778 93.7947 60.278 93.7013 60.684 93.8578C60.9651 93.9829 61.2772 94.2637 61.3705 94.513ZM96.9431 95.9226C96.3783 96.949 95.9402 97.166 95.9416 96.4499C95.9421 96.2008 96.1615 95.9522 96.4118 95.8281C97.1314 95.5493 96.9768 94.7084 96.1952 94.7068C95.7576 94.706 95.7266 94.5606 96.1023 94.2707C96.6345 93.8982 96.7596 93.8984 97.1024 94.3973C97.4454 94.865 97.4136 95.1452 96.9431 95.9226ZM98.6024 94.6805C98.6959 94.8364 98.6329 95.0542 98.4451 95.1783C98.2886 95.2714 98.1326 95.1466 98.1331 94.8975C98.1342 94.3371 98.3219 94.244 98.6024 94.6805ZM96.2565 95.3297C96.2562 95.4853 96.0996 95.6407 95.912 95.6403C95.7557 95.64 95.6935 95.4842 95.7876 95.3287C95.8817 95.1421 96.0383 95.0179 96.1321 95.0181C96.1946 95.0182 96.2569 95.1428 96.2565 95.3297ZM98.5355 96.891C98.1596 97.2639 97.9094 97.3256 97.7535 97.0762C97.3483 96.4838 97.4737 96.3284 98.2865 96.3301C99.0993 96.3317 99.068 96.3627 98.5355 96.891Z" fill="#F46F3B"/>
</svg>
