<svg width="342" height="100" viewBox="0 0 342 100" fill="none" xmlns="http://www.w3.org/2000/svg">
<path d="M10 0L10.5665 3.43945C11.0732 6.51569 13.4843 8.92676 16.5606 9.43347L20 10L16.5606 10.5665C13.4843 11.0732 11.0732 13.4843 10.5665 16.5606L10 20L9.43347 16.5606C8.92676 13.4843 6.51569 11.0732 3.43944 10.5665L0 10L3.43945 9.43347C6.51569 8.92676 8.92676 6.51569 9.43347 3.43944L10 0Z" fill="#F46F3B"/>
<path d="M263 80L263.567 83.4394C264.073 86.5157 266.484 88.9268 269.561 89.4335L273 90L269.561 90.5665C266.484 91.0732 264.073 93.4843 263.567 96.5606L263 100L262.433 96.5606C261.927 93.4843 259.516 91.0732 256.439 90.5665L253 90L256.439 89.4335C259.516 88.9268 261.927 86.5157 262.433 83.4394L263 80Z" fill="#F46F3B"/>
<path d="M332 6L332.567 9.43945C333.073 12.5157 335.484 14.9268 338.561 15.4335L342 16L338.561 16.5665C335.484 17.0732 333.073 19.4843 332.567 22.5606L332 26L331.433 22.5606C330.927 19.4843 328.516 17.0732 325.439 16.5665L322 16L325.439 15.4335C328.516 14.9268 330.927 12.5157 331.433 9.43944L332 6Z" fill="#F46F3B"/>
</svg>
