<svg width="141" height="68" viewBox="0 0 141 68" fill="none" xmlns="http://www.w3.org/2000/svg">
<path d="M133 0.5L133.425 3.07958C133.805 5.38677 135.613 7.19507 137.92 7.5751L140.5 8L137.92 8.4249C135.613 8.80493 133.805 10.6132 133.425 12.9204L133 15.5L132.575 12.9204C132.195 10.6132 130.387 8.80493 128.08 8.4249L125.5 8L128.08 7.5751C130.387 7.19507 132.195 5.38677 132.575 3.07958L133 0.5Z" fill="#F46F3B"/>
<path d="M7.5 53L7.9249 55.5796C8.30493 57.8868 10.1132 59.6951 12.4204 60.0751L15 60.5L12.4204 60.9249C10.1132 61.3049 8.30493 63.1132 7.9249 65.4204L7.5 68L7.0751 65.4204C6.69507 63.1132 4.88677 61.3049 2.57958 60.9249L0 60.5L2.57958 60.0751C4.88677 59.6951 6.69507 57.8868 7.0751 55.5796L7.5 53Z" fill="#F46F3B"/>
</svg>
